<svg fill="none" height="216" viewBox="0 0 1306 216" width="1306" xmlns="http://www.w3.org/2000/svg" xmlns:xlink="http://www.w3.org/1999/xlink"><linearGradient id="a" gradientUnits="userSpaceOnUse" x1="141" x2="83.1732" y1="182.338" y2="23.4604"><stop offset="0" stop-color="#ff4c0d"/><stop offset="1" stop-color="#fc9502"/></linearGradient><clipPath id="b"><path d="m58 30h123.142v156h-123.142z"/></clipPath><rect height="214" rx="25" stroke="#539bf5" stroke-width="2" width="1303.09" x="1" y="1"/><g clip-path="url(#b)" clip-rule="evenodd" fill-rule="evenodd"><path d="m178.007 105.184c10.075 31.68-6.134 65.784-37.136 77.068-31.825 11.583-67.4953-6.149-78.9557-37.637-1.5318-4.208-4.6674-12.592-3.6282-29.042.6219-9.844 1.0088-16.0269.548-21.3823-.2535-2.9433-.399-7.713 6.1301-2.2312 3.8499 3.2322 6.0831 9.0835 6.0831 9.0835s6.288-10.0522 7.4503-25.3069c1.7038-22.3633-9.4085-31.3161-14.6832-38.4344-1.8251-2.4624-4.146-7.2368 2.2486-7.1734 6.5161.0651 25.5998 5.3398 37.662 13.8302 17.216 12.1177 26.899 26.221 26.899 26.221s1.957-5.8881 1.5-11.1376c-.515-5.9279-2.441-11.2841 4.315-7.2184 6.424 3.8663 16.751 11.7676 24.017 20.2082 13.194 15.3282 17.55 33.1523 17.55 33.1523z" fill="url(#a)"/><path d="m140.868 182.254c-22.007 8.01-46.4504-3.642-54.5973-26.025-4.9157-13.506-2.5492-23.653 4.5402-38.826 4.5392-9.716 8.0302-20.8893 8.6994-27.8762.1318-1.3754-.8208-7.9465 6.6827-2.5776 3.935 2.8155 10.393 8.0199 15.049 12.7727 8.026 8.1951 12.552 17.3211 12.552 17.3211s3.413-4.206 3.952-12.03c.174-2.523-.868-11.4511 7.572-5.2168 6.194 4.5748 15.634 13.4188 20.644 27.4268 8.147 22.384-3.089 47.022-25.094 55.031z" fill="#fc9502"/><path d="m125.354 137.757c5.671-2.064 9.558 8.616 21.951 20.255 8.252 7.75 4.657 20.194-5.838 24.014s-19.088-2.852-22.973-13.527c-3.886-10.675 1.19-28.678 6.86-30.742z" fill="#fce202"/></g><g fill="#539bf5"><path clip-rule="evenodd" d="m257.848 47.8598c.512.2061.775.7939.586 1.3128l-43.095 118.4014c-.189.519-.757.773-1.269.566-.513-.206-.775-.793-.586-1.312l43.094-118.4016c.189-.519.758-.7727 1.27-.5666z" fill-rule="evenodd"/><path d="m345.901 118.568h32.985v1.636h-32.985zm297.07 0h59.968v1.636h-59.968zm73.453 0h136.355v1.636h-136.355zm173.11 0h102.662v1.636h-102.662zm-598.758 33h195.897v1.636h-195.897z"/><path d="m672.762 146.932c-.42 0-.781-.151-1.082-.452s-.452-.662-.452-1.082c0-.421.151-.782.452-1.083s.662-.451 1.082-.451c.421 0 .782.15 1.083.451s.451.662.451 1.083c0 .278-.071.534-.213.767-.136.233-.321.42-.554.562-.227.137-.483.205-.767.205z"/><path d="m661.333 147.068c-1.091 0-2.054-.275-2.889-.827-.835-.556-1.488-1.341-1.96-2.352-.472-1.017-.707-2.219-.707-3.605 0-1.375.235-2.568.707-3.58.472-1.011 1.128-1.792 1.969-2.343s1.812-.827 2.914-.827c.853 0 1.526.142 2.02.426.5.279.881.597 1.142.955.267.352.475.642.623.869h.17v-6.443h2.011v17.454h-1.943v-2.011h-.238c-.148.239-.358.54-.631.903-.273.358-.662.679-1.168.963-.505.279-1.179.418-2.02.418zm.273-1.807c.807 0 1.489-.21 2.046-.63.556-.427.98-1.015 1.269-1.765.29-.755.435-1.627.435-2.616 0-.977-.142-1.832-.426-2.565-.284-.739-.705-1.313-1.261-1.722-.557-.415-1.245-.622-2.063-.622-.852 0-1.562.219-2.131.656-.562.432-.985 1.02-1.269 1.764-.279.739-.418 1.568-.418 2.489 0 .932.142 1.778.426 2.54.29.755.716 1.358 1.278 1.807.569.443 1.273.664 2.114.664z"/><path d="m644.362 138.92v7.875h-2.011v-13.09h1.943v2.045h.171c.307-.665.772-1.199 1.397-1.602.625-.409 1.432-.614 2.421-.614.886 0 1.662.182 2.327.546.664.357 1.181.903 1.551 1.636.369.727.554 1.648.554 2.761v8.318h-2.012v-8.181c0-1.029-.267-1.83-.801-2.404-.534-.579-1.267-.869-2.199-.869-.642 0-1.216.139-1.721.417-.5.279-.895.685-1.185 1.219s-.435 1.182-.435 1.943z"/><path d="m633.871 147.068c-1.261 0-2.349-.278-3.264-.835-.909-.563-1.611-1.347-2.105-2.352-.489-1.012-.733-2.188-.733-3.529s.244-2.522.733-3.545c.494-1.029 1.182-1.83 2.062-2.404.887-.579 1.921-.869 3.102-.869.682 0 1.356.114 2.02.341.665.227 1.27.597 1.816 1.108.545.506.98 1.176 1.304 2.011.324.836.485 1.864.485 3.086v.852h-10.09v-1.739h8.045c0-.738-.148-1.398-.443-1.977-.29-.58-.705-1.037-1.244-1.372-.535-.336-1.165-.503-1.893-.503-.801 0-1.494.199-2.079.596-.58.393-1.026.904-1.338 1.535-.313.63-.469 1.306-.469 2.028v1.159c0 .989.171 1.827.511 2.514.347.682.827 1.202 1.441 1.56.613.352 1.327.528 2.139.528.528 0 1.006-.074 1.432-.221.432-.154.804-.381 1.116-.682.313-.307.554-.688.725-1.142l1.943.545c-.205.659-.548 1.239-1.031 1.739-.483.494-1.08.881-1.79 1.159-.71.273-1.509.409-2.395.409z"/><path d="m625.497 133.704v1.705h-6.784v-1.705zm-4.806-3.136h2.011v12.477c0 .569.082.995.247 1.279.171.278.386.466.648.562.267.091.548.137.844.137.221 0 .403-.012.545-.034.142-.029.256-.052.341-.069l.409 1.807c-.136.051-.327.102-.571.154-.244.056-.554.085-.929.085-.568 0-1.125-.122-1.67-.367-.54-.244-.989-.616-1.347-1.116-.352-.5-.528-1.131-.528-1.892z"/><path d="m607.777 138.92v7.875h-2.012v-13.09h1.943v2.045h.171c.307-.665.773-1.199 1.398-1.602.625-.409 1.431-.614 2.42-.614.886 0 1.662.182 2.327.546.664.357 1.182.903 1.551 1.636.369.727.554 1.648.554 2.761v8.318h-2.012v-8.181c0-1.029-.267-1.83-.801-2.404-.534-.579-1.267-.869-2.199-.869-.642 0-1.215.139-1.721.417-.5.279-.895.685-1.185 1.219s-.434 1.182-.434 1.943z"/><path d="m596.763 147.068c-1.182 0-2.219-.281-3.111-.844-.886-.562-1.579-1.349-2.079-2.36-.495-1.012-.742-2.194-.742-3.546 0-1.363.247-2.554.742-3.571.5-1.017 1.193-1.807 2.079-2.369.892-.563 1.929-.844 3.111-.844s2.216.281 3.102.844c.892.562 1.586 1.352 2.08 2.369.5 1.017.75 2.208.75 3.571 0 1.352-.25 2.534-.75 3.546-.494 1.011-1.188 1.798-2.08 2.36-.886.563-1.92.844-3.102.844zm0-1.807c.898 0 1.636-.23 2.216-.69s1.008-1.065 1.287-1.815c.278-.75.418-1.563.418-2.438s-.14-1.69-.418-2.446c-.279-.756-.707-1.366-1.287-1.832s-1.318-.699-2.216-.699-1.636.233-2.216.699c-.579.466-1.008 1.076-1.287 1.832-.278.756-.417 1.571-.417 2.446s.139 1.688.417 2.438c.279.75.708 1.355 1.287 1.815.58.46 1.318.69 2.216.69z"/><path d="m582.914 146.795v-13.09h1.943v1.977h.136c.239-.648.671-1.173 1.296-1.577.625-.403 1.329-.605 2.113-.605.148 0 .333.003.554.009.222.005.389.014.503.025v2.046c-.068-.018-.224-.043-.469-.077-.238-.04-.491-.06-.758-.06-.637 0-1.205.134-1.705.401-.494.261-.886.625-1.176 1.091-.284.46-.426.985-.426 1.576v8.284z"/><path d="m580.095 133.705v1.704h-7.057v-1.704zm-4.943 13.09v-14.897c0-.75.176-1.375.528-1.875s.81-.875 1.372-1.125c.563-.25 1.156-.375 1.781-.375.495 0 .898.039 1.211.119.312.08.545.153.698.222l-.579 1.738c-.102-.034-.244-.076-.426-.128-.176-.051-.409-.076-.699-.076-.665 0-1.145.167-1.44.503-.29.335-.435.826-.435 1.474v14.42z"/><path d="m559.035 147.068c-1.261 0-2.349-.278-3.264-.835-.909-.563-1.611-1.347-2.105-2.352-.489-1.012-.733-2.188-.733-3.529s.244-2.522.733-3.545c.494-1.029 1.182-1.83 2.062-2.404.887-.579 1.921-.869 3.103-.869.681 0 1.355.114 2.019.341.665.227 1.27.597 1.816 1.108.545.506.98 1.176 1.304 2.011.324.836.486 1.864.486 3.086v.852h-10.091v-1.739h8.045c0-.738-.148-1.398-.443-1.977-.29-.58-.705-1.037-1.244-1.372-.534-.336-1.165-.503-1.892-.503-.802 0-1.495.199-2.08.596-.58.393-1.026.904-1.338 1.535-.313.63-.469 1.306-.469 2.028v1.159c0 .989.171 1.827.512 2.514.346.682.826 1.202 1.44 1.56.614.352 1.327.528 2.139.528.529 0 1.006-.074 1.432-.221.432-.154.804-.381 1.116-.682.313-.307.554-.688.725-1.142l1.943.545c-.205.659-.548 1.239-1.031 1.739-.483.494-1.08.881-1.79 1.159-.71.273-1.509.409-2.395.409z"/><path d="m541.378 138.92v7.875h-2.011v-17.454h2.011v6.409h.171c.306-.676.767-1.213 1.38-1.611.62-.403 1.443-.605 2.472-.605.892 0 1.673.179 2.344.537.67.352 1.19.895 1.559 1.628.375.727.563 1.653.563 2.778v8.318h-2.012v-8.181c0-1.04-.269-1.844-.809-2.412-.534-.574-1.276-.861-2.225-.861-.659 0-1.25.139-1.772.417-.517.279-.927.685-1.228 1.219-.295.534-.443 1.182-.443 1.943z"/><path d="m536.06 133.704v1.705h-6.784v-1.705zm-4.807-3.136h2.011v12.477c0 .569.083.995.248 1.279.17.278.386.466.647.562.267.091.549.137.844.137.222 0 .404-.012.546-.034.142-.029.255-.052.34-.069l.41 1.807c-.137.051-.327.102-.571.154-.245.056-.554.085-.929.085-.569 0-1.125-.122-1.671-.367-.54-.244-.989-.616-1.346-1.116-.353-.5-.529-1.131-.529-1.892z"/><path d="m511.589 138.92v7.875h-2.011v-13.09h1.943v2.045h.17c.307-.665.773-1.199 1.398-1.602.625-.409 1.432-.614 2.421-.614.886 0 1.661.182 2.326.546.665.357 1.182.903 1.551 1.636.37.727.554 1.648.554 2.761v8.318h-2.011v-8.181c0-1.029-.267-1.83-.801-2.404-.534-.579-1.267-.869-2.199-.869-.642 0-1.216.139-1.722.417-.5.279-.895.685-1.184 1.219-.29.534-.435 1.182-.435 1.943z"/><path d="m500.576 147.068c-1.182 0-2.219-.281-3.111-.844-.887-.562-1.58-1.349-2.08-2.36-.494-1.012-.741-2.194-.741-3.546 0-1.363.247-2.554.741-3.571.5-1.017 1.193-1.807 2.08-2.369.892-.563 1.929-.844 3.111-.844 1.181 0 2.215.281 3.102.844.892.562 1.585 1.352 2.079 2.369.5 1.017.75 2.208.75 3.571 0 1.352-.25 2.534-.75 3.546-.494 1.011-1.187 1.798-2.079 2.36-.887.563-1.921.844-3.102.844zm0-1.807c.897 0 1.636-.23 2.215-.69.58-.46 1.009-1.065 1.287-1.815.279-.75.418-1.563.418-2.438s-.139-1.69-.418-2.446c-.278-.756-.707-1.366-1.287-1.832-.579-.466-1.318-.699-2.215-.699-.898 0-1.637.233-2.216.699-.58.466-1.009 1.076-1.287 1.832-.279.756-.418 1.571-.418 2.446s.139 1.688.418 2.438c.278.75.707 1.355 1.287 1.815.579.46 1.318.69 2.216.69z"/><path d="m485.531 137.437-3.324.205c-.057-.284-.179-.54-.367-.767-.187-.233-.434-.418-.741-.554-.301-.142-.662-.213-1.082-.213-.563 0-1.037.119-1.424.358-.386.233-.579.545-.579.937 0 .313.125.577.375.793s.679.389 1.287.52l2.369.477c1.273.262 2.222.682 2.847 1.262.625.579.937 1.34.937 2.284 0 .858-.253 1.61-.758 2.258-.5.648-1.188 1.154-2.063 1.517-.869.358-1.872.537-3.008.537-1.733 0-3.114-.361-4.142-1.082-1.023-.728-1.623-1.716-1.799-2.966l3.571-.188c.108.529.37.932.784 1.211.415.272.946.409 1.594.409.636 0 1.148-.123 1.534-.367.392-.25.591-.571.597-.963-.006-.329-.145-.599-.418-.81-.273-.215-.693-.38-1.261-.494l-2.267-.452c-1.279-.255-2.23-.698-2.855-1.329-.62-.631-.929-1.435-.929-2.412 0-.841.227-1.565.681-2.173.461-.608 1.106-1.077 1.935-1.407.835-.329 1.813-.494 2.932-.494 1.653 0 2.955.349 3.903 1.048.955.699 1.512 1.651 1.671 2.855z"/><path d="m463.96 143.028.008-4.355h.529l4.193-4.969h4.168l-5.634 6.58h-.861zm-3.29 3.767v-17.454h3.631v17.454zm8.182 0-3.852-5.701 2.42-2.566 5.685 8.267z"/><path d="m450.85 146.795v-13.091h3.52v2.285h.136c.239-.813.639-1.427 1.202-1.841.562-.421 1.21-.631 1.943-.631.182 0 .378.011.588.034s.395.054.554.094v3.221c-.171-.051-.406-.096-.707-.136-.302-.04-.577-.06-.827-.06-.534 0-1.012.117-1.432.35-.415.227-.744.545-.989.954-.238.409-.358.881-.358 1.415v7.406z"/><path d="m442.046 147.051c-1.324 0-2.469-.281-3.435-.844-.96-.568-1.702-1.358-2.224-2.369-.523-1.017-.784-2.196-.784-3.537 0-1.352.261-2.534.784-3.545.522-1.017 1.264-1.807 2.224-2.37.966-.568 2.111-.852 3.435-.852s2.466.284 3.426.852c.966.563 1.71 1.353 2.233 2.37.523 1.011.784 2.193.784 3.545 0 1.341-.261 2.52-.784 3.537-.523 1.011-1.267 1.801-2.233 2.369-.96.563-2.102.844-3.426.844zm.017-2.812c.602 0 1.105-.171 1.508-.512.404-.346.708-.818.912-1.415.21-.596.316-1.275.316-2.036 0-.762-.106-1.441-.316-2.037-.204-.597-.508-1.069-.912-1.415-.403-.347-.906-.52-1.508-.52-.608 0-1.12.173-1.534.52-.409.346-.719.818-.929 1.415-.205.596-.307 1.275-.307 2.037 0 .761.102 1.44.307 2.036.21.597.52 1.069.929 1.415.414.341.926.512 1.534.512z"/><path d="m418.627 146.795-3.562-13.091h3.673l2.029 8.796h.119l2.114-8.796h3.605l2.147 8.745h.111l1.995-8.745h3.664l-3.554 13.091h-3.843l-2.25-8.233h-.162l-2.25 8.233z"/><path d="m407.761 147.051c-1.347 0-2.506-.273-3.477-.818-.966-.551-1.711-1.33-2.233-2.335-.523-1.012-.784-2.208-.784-3.588 0-1.347.261-2.529.784-3.546.522-1.017 1.258-1.809 2.207-2.378.955-.568 2.074-.852 3.358-.852.864 0 1.668.139 2.412.418.75.272 1.403.684 1.96 1.235.563.552 1 1.245 1.313 2.08.312.83.468 1.801.468 2.915v.997h-11.054v-2.25h7.637c0-.523-.114-.986-.341-1.389-.227-.404-.543-.719-.946-.946-.398-.233-.861-.35-1.389-.35-.551 0-1.04.128-1.466.384-.421.25-.75.588-.989 1.014-.238.42-.361.889-.366 1.406v2.139c0 .648.119 1.208.358 1.679.244.472.588.836 1.031 1.091.443.256.969.384 1.577.384.403 0 .772-.057 1.108-.171.335-.113.622-.284.86-.511.239-.227.421-.506.546-.835l3.358.221c-.171.807-.52 1.512-1.049 2.114-.522.597-1.198 1.063-2.028 1.398-.824.329-1.776.494-2.855.494z"/><path d="m379.904 146.795v-13.09h3.461v2.309h.153c.273-.767.727-1.372 1.364-1.815.636-.443 1.397-.665 2.284-.665.897 0 1.662.224 2.292.673.631.444 1.052 1.046 1.262 1.807h.136c.267-.75.75-1.349 1.449-1.798.705-.455 1.537-.682 2.497-.682 1.222 0 2.213.389 2.975 1.168.767.772 1.15 1.869 1.15 3.289v8.804h-3.622v-8.088c0-.727-.193-1.272-.58-1.636-.386-.364-.869-.545-1.448-.545-.66 0-1.174.21-1.543.63-.369.415-.554.963-.554 1.645v7.994h-3.52v-8.164c0-.642-.185-1.154-.554-1.534-.364-.381-.844-.571-1.44-.571-.404 0-.767.102-1.091.306-.318.199-.571.48-.759.844-.187.358-.281.779-.281 1.261v7.858z"/><path d="m369.715 147.043c-.835 0-1.579-.145-2.232-.435-.654-.296-1.171-.73-1.552-1.304-.375-.58-.562-1.301-.562-2.165 0-.727.133-1.338.4-1.832.268-.495.631-.892 1.091-1.193.461-.302.983-.529 1.569-.682.59-.154 1.21-.262 1.858-.324.761-.08 1.375-.153 1.84-.222.466-.074.804-.181 1.015-.324.21-.142.315-.352.315-.63v-.051c0-.54-.17-.958-.511-1.253-.336-.296-.813-.443-1.432-.443-.654 0-1.174.145-1.56.434-.386.284-.642.642-.767 1.074l-3.358-.273c.171-.795.506-1.483 1.006-2.062.5-.585 1.145-1.034 1.934-1.347.796-.318 1.716-.477 2.762-.477.727 0 1.423.085 2.088.256.67.17 1.264.434 1.781.792.523.358.935.819 1.236 1.381.301.557.452 1.224.452 2.003v8.829h-3.444v-1.815h-.102c-.21.409-.491.77-.844 1.082-.352.307-.775.549-1.269.725-.495.17-1.066.256-1.714.256zm1.04-2.506c.534 0 1.006-.105 1.415-.315.409-.216.73-.506.963-.87.233-.363.35-.775.35-1.236v-1.389c-.114.074-.27.142-.469.205-.193.057-.412.111-.656.162-.245.045-.489.088-.733.128-.245.034-.466.065-.665.093-.426.063-.798.162-1.117.299-.318.136-.565.321-.741.554-.176.227-.264.511-.264.852 0 .494.179.872.537 1.133.363.256.823.384 1.38.384z"/><path d="m356.537 146.795v-13.091h3.52v2.285h.136c.239-.813.64-1.427 1.202-1.841.563-.421 1.21-.631 1.943-.631.182 0 .378.011.588.034.211.023.395.054.554.094v3.221c-.17-.051-.406-.096-.707-.136s-.577-.06-.827-.06c-.534 0-1.011.117-1.432.35-.414.227-.744.545-.988.954-.239.409-.358.881-.358 1.415v7.406z"/><path d="m354.319 133.705v2.727h-8.079v-2.727zm-6.23 13.09v-14.037c0-.948.185-1.735.554-2.36.375-.625.886-1.094 1.534-1.407.648-.312 1.384-.468 2.208-.468.556 0 1.065.042 1.525.128.466.085.813.161 1.04.23l-.648 2.727c-.142-.046-.318-.088-.528-.128-.205-.04-.415-.06-.631-.06-.534 0-.906.125-1.116.375-.211.245-.316.589-.316 1.032v13.968z"/><path d="m335.535 134.361c-.068-.688-.361-1.222-.878-1.603-.517-.38-1.218-.571-2.105-.571-.602 0-1.111.086-1.525.256-.415.165-.733.395-.955.69-.216.296-.324.631-.324 1.006-.011.313.054.585.196.818.148.233.35.435.605.605.256.165.551.31.887.435.335.119.693.222 1.074.307l1.568.375c.761.17 1.46.398 2.096.682.637.284 1.188.633 1.654 1.048s.826.903 1.082 1.466c.261.562.395 1.207.401 1.935-.006 1.068-.279 1.994-.819 2.778-.534.778-1.306 1.383-2.318 1.815-1.005.426-2.218.64-3.639.64-1.409 0-2.636-.216-3.682-.648-1.039-.432-1.852-1.071-2.437-1.918-.58-.852-.884-1.906-.912-3.162h3.571c.04.585.207 1.074.503 1.466.301.387.701.679 1.201.878.506.193 1.077.29 1.713.29.625 0 1.168-.091 1.628-.273.466-.182.827-.435 1.083-.758.255-.324.383-.697.383-1.117 0-.392-.116-.722-.349-.989-.227-.267-.563-.494-1.006-.681-.437-.188-.974-.358-1.611-.512l-1.9-.477c-1.472-.358-2.634-.918-3.486-1.679s-1.276-1.787-1.27-3.077c-.006-1.057.276-1.98.844-2.77.574-.789 1.361-1.406 2.361-1.849s2.136-.665 3.409-.665c1.295 0 2.426.222 3.392.665.971.443 1.727 1.06 2.267 1.849.54.79.818 1.705.835 2.745z"/><path d="m319.809 134.361c-.069-.688-.361-1.222-.878-1.603-.517-.38-1.219-.571-2.105-.571-.603 0-1.111.086-1.526.256-.415.165-.733.395-.955.69-.215.296-.323.631-.323 1.006-.012.313.054.585.196.818.147.233.349.435.605.605.255.165.551.31.886.435.335.119.693.222 1.074.307l1.568.375c.762.17 1.46.398 2.097.682.636.284 1.187.633 1.653 1.048s.827.903 1.083 1.466c.261.562.394 1.207.4 1.935-.006 1.068-.278 1.994-.818 2.778-.534.778-1.307 1.383-2.318 1.815-1.006.426-2.219.64-3.639.64-1.41 0-2.637-.216-3.682-.648-1.04-.432-1.853-1.071-2.438-1.918-.579-.852-.883-1.906-.912-3.162h3.571c.04.585.208 1.074.503 1.466.301.387.702.679 1.202.878.506.193 1.077.29 1.713.29.625 0 1.168-.091 1.628-.273.466-.182.826-.435 1.082-.758.256-.324.384-.697.384-1.117 0-.392-.117-.722-.35-.989-.227-.267-.562-.494-1.005-.681-.438-.188-.975-.358-1.611-.512l-1.901-.477c-1.471-.358-2.633-.918-3.486-1.679-.852-.761-1.275-1.787-1.269-3.077-.006-1.057.275-1.98.843-2.77.574-.789 1.361-1.406 2.361-1.849s2.136-.665 3.409-.665c1.296 0 2.426.222 3.392.665.972.443 1.727 1.06 2.267 1.849.54.79.818 1.705.835 2.745z"/><path d="m307.693 135.452h-3.732c-.069-.483-.208-.912-.418-1.287-.21-.381-.48-.705-.81-.972-.329-.267-.71-.472-1.142-.614-.426-.142-.889-.213-1.389-.213-.903 0-1.69.225-2.361.674-.67.443-1.19 1.091-1.559 1.943-.37.846-.554 1.875-.554 3.085 0 1.244.184 2.29.554 3.136.375.847.897 1.486 1.568 1.918.67.432 1.446.648 2.326.648.495 0 .952-.066 1.373-.196.426-.131.804-.321 1.133-.571.33-.256.602-.566.818-.929.222-.364.375-.779.461-1.245l3.732.017c-.096.802-.338 1.574-.724 2.319-.381.738-.895 1.4-1.543 1.985-.642.58-1.409 1.04-2.301 1.381-.886.335-1.889.503-3.008.503-1.557 0-2.949-.352-4.176-1.057-1.222-.704-2.188-1.724-2.898-3.059-.705-1.336-1.057-2.952-1.057-4.85 0-1.903.358-3.523 1.074-4.858s1.687-2.352 2.915-3.051c1.227-.705 2.608-1.057 4.142-1.057 1.011 0 1.949.142 2.812.426.87.284 1.639.699 2.31 1.245.67.539 1.216 1.201 1.636 1.985.426.785.699 1.682.818 2.694z"/><path d="m1240.55 113.795v-13.09h1.94v1.977h.14c.23-.648.67-1.173 1.29-1.577.63-.403 1.33-.605 2.12-.605.14 0 .33.003.55.009.22.005.39.014.5.025v2.046c-.07-.017-.22-.043-.47-.077-.24-.04-.49-.06-.76-.06-.63 0-1.2.134-1.7.401-.49.261-.89.625-1.18 1.091-.28.46-.42.985-.42 1.576v8.284z"/><path d="m1230.88 114.102c-.83 0-1.59-.156-2.26-.469-.68-.318-1.22-.775-1.61-1.372-.4-.602-.6-1.329-.6-2.181 0-.75.15-1.358.44-1.824.3-.472.69-.841 1.19-1.108.49-.267 1.04-.466 1.63-.597.61-.136 1.21-.244 1.82-.324.79-.102 1.44-.179 1.93-.23.5-.057.87-.15 1.09-.281.24-.131.35-.358.35-.682v-.068c0-.841-.23-1.494-.69-1.96-.45-.466-1.14-.699-2.07-.699-.96 0-1.71.21-2.26.63-.54.421-.92.87-1.15 1.347l-1.91-.682c.35-.795.8-1.415 1.37-1.858.57-.449 1.2-.761 1.87-.937.68-.182 1.36-.273 2.01-.273.42 0 .91.051 1.45.153.55.097 1.09.299 1.6.606.51.306.94.769 1.28 1.389.34.619.52 1.449.52 2.488v8.625h-2.02v-1.772h-.1c-.13.284-.36.588-.68.912-.32.323-.74.599-1.27.826-.53.228-1.17.341-1.93.341zm.3-1.807c.8 0 1.47-.156 2.01-.468.55-.313.97-.716 1.25-1.211.28-.494.42-1.014.42-1.559v-1.841c-.08.102-.27.196-.56.281-.28.08-.61.151-.99.213-.37.057-.73.108-1.08.154-.35.039-.63.073-.84.102-.53.068-1.01.179-1.47.332-.45.148-.81.372-1.09.674-.27.295-.41.698-.41 1.21 0 .699.26 1.227.78 1.585.52.352 1.18.528 1.98.528z"/><path d="m1223.34 96.3408v17.4542h-2.01v-17.4542z"/><path d="m1215.63 108.443v-7.739h2.01v13.091h-2.01v-2.216h-.13c-.31.665-.79 1.231-1.44 1.696-.64.461-1.46.691-2.45.691-.82 0-1.55-.179-2.18-.537-.64-.364-1.14-.909-1.5-1.636-.37-.733-.55-1.657-.55-2.77v-8.319h2.01v8.182c0 .955.27 1.716.8 2.284.54.569 1.23.853 2.07.853.5 0 1.01-.128 1.52-.384.53-.256.96-.648 1.32-1.176.35-.528.53-1.202.53-2.02z"/><path d="m1192.76 118.705v-18h1.94v2.079h.24c.15-.227.35-.517.61-.869.27-.358.65-.676 1.14-.955.5-.284 1.18-.426 2.03-.426 1.11 0 2.08.276 2.92.827s1.5 1.332 1.97 2.344c.47 1.011.7 2.204.7 3.579 0 1.386-.23 2.588-.7 3.605-.47 1.012-1.13 1.796-1.96 2.352-.84.552-1.8.827-2.89.827-.84 0-1.52-.139-2.02-.417-.51-.285-.9-.606-1.17-.964-.27-.363-.48-.664-.63-.903h-.17v6.921zm1.97-11.455c0 .989.15 1.861.44 2.616.29.75.71 1.339 1.27 1.765.56.42 1.24.63 2.04.63.85 0 1.55-.221 2.11-.664.57-.449.99-1.052 1.28-1.807.29-.762.43-1.608.43-2.54 0-.92-.14-1.75-.42-2.489-.28-.744-.7-1.332-1.27-1.764-.57-.437-1.27-.656-2.13-.656-.81 0-1.5.207-2.06.622-.55.409-.98.983-1.26 1.722-.28.733-.43 1.588-.43 2.565z"/><path d="m1183.76 114.068c-1.19 0-2.22-.281-3.12-.844-.88-.562-1.58-1.349-2.08-2.36-.49-1.012-.74-2.194-.74-3.546 0-1.363.25-2.554.74-3.571.5-1.017 1.2-1.807 2.08-2.369.9-.563 1.93-.844 3.12-.844 1.18 0 2.21.281 3.1.844.89.562 1.58 1.352 2.08 2.369s.75 2.208.75 3.571c0 1.352-.25 2.534-.75 3.546-.5 1.011-1.19 1.798-2.08 2.36-.89.563-1.92.844-3.1.844zm0-1.807c.89 0 1.63-.23 2.21-.69s1.01-1.065 1.29-1.815.42-1.563.42-2.438-.14-1.69-.42-2.446-.71-1.366-1.29-1.832-1.32-.699-2.21-.699c-.9 0-1.64.233-2.22.699s-1.01 1.076-1.29 1.832-.42 1.571-.42 2.446.14 1.688.42 2.438.71 1.355 1.29 1.815 1.32.69 2.22.69z"/><path d="m1163.81 118.705v-18h1.95v2.079h.23c.15-.227.36-.517.62-.869.26-.358.65-.676 1.14-.955.5-.284 1.18-.426 2.03-.426 1.1 0 2.07.276 2.91.827s1.5 1.332 1.97 2.344c.47 1.011.71 2.204.71 3.579 0 1.386-.24 2.588-.71 3.605-.47 1.012-1.12 1.796-1.96 2.352-.83.552-1.8.827-2.89.827-.84 0-1.51-.139-2.02-.417-.5-.285-.89-.606-1.17-.964-.27-.363-.48-.664-.63-.903h-.17v6.921zm1.98-11.455c0 .989.14 1.861.43 2.616.29.75.72 1.339 1.27 1.765.56.42 1.24.63 2.05.63.84 0 1.54-.221 2.1-.664.57-.449 1-1.052 1.28-1.807.29-.762.44-1.608.44-2.54 0-.92-.14-1.75-.43-2.489-.28-.744-.7-1.332-1.27-1.764-.56-.437-1.27-.656-2.12-.656-.82 0-1.51.207-2.06.622-.56.409-.98.983-1.26 1.722-.29.733-.43 1.588-.43 2.565z"/><path d="m1154.04 100.704v1.705h-6.79v-1.705zm-4.81-3.1359h2.01v12.4769c0 .569.08.995.25 1.279.17.278.38.466.65.562.26.091.54.137.84.137.22 0 .4-.012.55-.034.14-.029.25-.052.34-.069l.41 1.807c-.14.051-.33.102-.58.154-.24.056-.55.085-.92.085-.57 0-1.13-.122-1.68-.367-.54-.244-.98-.616-1.34-1.116-.35-.5-.53-1.131-.53-1.892z"/><path d="m1145.08 103.636-1.81.512c-.11-.301-.28-.594-.5-.878-.22-.29-.51-.529-.89-.716-.37-.188-.85-.281-1.44-.281-.8 0-1.47.184-2 .554-.53.363-.79.826-.79 1.389 0 .5.18.895.54 1.185.36.289.93.531 1.71.724l1.94.477c1.17.284 2.04.719 2.61 1.304.58.58.87 1.327.87 2.242 0 .75-.22 1.42-.65 2.011s-1.02 1.057-1.79 1.398-1.66.511-2.68.511c-1.33 0-2.44-.29-3.31-.869-.88-.58-1.43-1.426-1.67-2.54l1.91-.477c.19.704.53 1.233 1.04 1.585s1.17.528 2 .528c.94 0 1.68-.198 2.23-.596.56-.404.84-.887.84-1.449 0-.455-.16-.835-.48-1.142-.32-.313-.81-.546-1.47-.699l-2.18-.511c-1.2-.284-2.08-.725-2.64-1.321-.56-.603-.84-1.355-.84-2.259 0-.738.21-1.392.63-1.96s.99-1.014 1.71-1.338c.73-.324 1.55-.486 2.47-.486 1.3 0 2.31.284 3.05.852.75.569 1.27 1.319 1.59 2.25z"/><path d="m1126.8 114.068c-1.18 0-2.22-.281-3.11-.844-.89-.562-1.58-1.349-2.08-2.36-.49-1.012-.74-2.194-.74-3.546 0-1.363.25-2.554.74-3.571.5-1.017 1.19-1.807 2.08-2.369.89-.563 1.93-.844 3.11-.844s2.22.281 3.1.844c.9.562 1.59 1.352 2.08 2.369.5 1.017.75 2.208.75 3.571 0 1.352-.25 2.534-.75 3.546-.49 1.011-1.18 1.798-2.08 2.36-.88.563-1.92.844-3.1.844zm0-1.807c.9 0 1.64-.23 2.22-.69s1.01-1.065 1.28-1.815c.28-.75.42-1.563.42-2.438s-.14-1.69-.42-2.446c-.27-.756-.7-1.366-1.28-1.832s-1.32-.699-2.22-.699-1.63.233-2.21.699-1.01 1.076-1.29 1.832-.42 1.571-.42 2.446.14 1.688.42 2.438.71 1.355 1.29 1.815 1.31.69 2.21.69z"/><path d="m1100.62 113.795v-13.09h1.95v2.045h.17c.27-.699.71-1.242 1.32-1.628.61-.392 1.34-.588 2.19-.588.86 0 1.58.196 2.16.588.58.386 1.03.929 1.35 1.628h.14c.33-.676.84-1.213 1.51-1.611.67-.403 1.47-.605 2.41-.605 1.17 0 2.13.367 2.87 1.099.74.728 1.12 1.861 1.12 3.401v8.761h-2.01v-8.761c0-.966-.27-1.656-.8-2.071s-1.15-.622-1.86-.622c-.92 0-1.64.278-2.14.835-.51.551-.76 1.25-.76 2.097v8.522h-2.05v-8.965c0-.745-.24-1.344-.72-1.799-.48-.46-1.11-.69-1.87-.69-.52 0-1.01.139-1.46.417-.45.279-.82.665-1.09 1.16-.28.488-.41 1.054-.41 1.696v8.181z"/><path d="m1085.39 114.068c-1.26 0-2.34-.278-3.26-.835-.91-.563-1.61-1.347-2.1-2.352-.49-1.012-.74-2.188-.74-3.529s.25-2.522.74-3.545c.49-1.029 1.18-1.83 2.06-2.404.88-.579 1.92-.869 3.1-.869.68 0 1.36.114 2.02.341s1.27.597 1.82 1.108c.54.506.98 1.176 1.3 2.011.32.836.48 1.864.48 3.086v.852h-10.09v-1.739h8.05c0-.738-.15-1.398-.44-1.977-.29-.58-.71-1.037-1.25-1.372-.53-.336-1.16-.503-1.89-.503-.8 0-1.49.199-2.08.596-.58.393-1.03.904-1.34 1.535-.31.63-.47 1.306-.47 2.028v1.159c0 .989.17 1.827.51 2.514.35.682.83 1.202 1.45 1.56.61.352 1.32.528 2.13.528.53 0 1.01-.074 1.44-.221.43-.154.8-.381 1.11-.682.32-.307.56-.688.73-1.142l1.94.545c-.2.659-.55 1.239-1.03 1.739-.48.494-1.08.881-1.79 1.159-.71.273-1.51.409-2.4.409z"/><path d="m1067.74 105.92v7.875h-2.01v-17.4542h2.01v6.4092h.17c.3-.676.76-1.213 1.38-1.611.62-.403 1.44-.605 2.47-.605.89 0 1.67.179 2.34.537.67.352 1.19.895 1.56 1.628.38.727.57 1.653.57 2.778v8.318h-2.02v-8.181c0-1.04-.27-1.844-.8-2.412-.54-.574-1.28-.861-2.23-.861-.66 0-1.25.139-1.77.417-.52.279-.93.685-1.23 1.219-.29.534-.44 1.182-.44 1.943z"/><path d="m1062.42 100.704v1.705h-6.78v-1.705zm-4.81-3.1359h2.01v12.4769c0 .569.09.995.25 1.279.17.278.39.466.65.562.27.091.55.137.84.137.22 0 .41-.012.55-.034.14-.029.25-.052.34-.069l.41 1.807c-.14.051-.33.102-.57.154-.25.056-.56.085-.93.085-.57 0-1.13-.122-1.67-.367-.54-.244-.99-.616-1.35-1.116-.35-.5-.53-1.131-.53-1.892z"/><path d="m1040.01 114.068c-1.09 0-2.05-.275-2.89-.827-.83-.556-1.48-1.341-1.96-2.352-.47-1.017-.7-2.219-.7-3.605 0-1.375.23-2.568.7-3.58.48-1.011 1.13-1.792 1.97-2.343s1.81-.827 2.92-.827c.85 0 1.52.142 2.02.426.5.279.88.597 1.14.955.27.352.47.642.62.869h.17v-6.4432h2.01v17.4542h-1.94v-2.011h-.24c-.15.239-.36.54-.63.903-.27.358-.66.679-1.17.963-.5.279-1.18.418-2.02.418zm.28-1.807c.8 0 1.48-.21 2.04-.63.56-.427.98-1.015 1.27-1.765.29-.755.44-1.627.44-2.616 0-.977-.15-1.832-.43-2.565-.28-.739-.7-1.313-1.26-1.722-.56-.415-1.25-.622-2.06-.622-.86 0-1.57.219-2.13.656-.57.432-.99 1.02-1.27 1.764-.28.739-.42 1.568-.42 2.489 0 .932.14 1.778.42 2.54.29.755.72 1.358 1.28 1.807.57.443 1.27.664 2.12.664z"/><path d="m1023.04 105.92v7.875h-2.01v-13.09h1.94v2.045h.17c.31-.665.78-1.199 1.4-1.602.63-.409 1.43-.614 2.42-.614.89 0 1.66.182 2.33.546.66.357 1.18.903 1.55 1.636.37.727.55 1.648.55 2.761v8.318h-2.01v-8.181c0-1.029-.26-1.83-.8-2.404-.53-.579-1.27-.869-2.2-.869-.64 0-1.21.139-1.72.417-.5.279-.89.685-1.18 1.219s-.44 1.182-.44 1.943z"/><path d="m1011.36 114.102c-.83 0-1.58-.156-2.26-.469-.68-.318-1.21-.775-1.61-1.372-.4-.602-.6-1.329-.6-2.181 0-.75.15-1.358.45-1.824.29-.472.69-.841 1.18-1.108.5-.267 1.04-.466 1.64-.597.6-.136 1.21-.244 1.81-.324.8-.102 1.44-.179 1.94-.23.5-.057.86-.15 1.09-.281s.35-.358.35-.682v-.068c0-.841-.23-1.494-.69-1.96s-1.15-.699-2.07-.699c-.96 0-1.72.21-2.26.63-.55.421-.93.87-1.15 1.347l-1.91-.682c.34-.795.79-1.415 1.36-1.858.58-.449 1.2-.761 1.88-.937.68-.182 1.35-.273 2.01-.273.42 0 .9.051 1.45.153.55.097 1.08.299 1.59.606.52.306.95.769 1.29 1.389.34.619.51 1.449.51 2.488v8.625h-2.01v-1.772h-.1c-.14.284-.37.588-.69.912-.31.323-.74.599-1.27.826-.52.228-1.17.341-1.93.341zm.31-1.807c.79 0 1.46-.156 2.01-.468.55-.313.96-.716 1.24-1.211.29-.494.43-1.014.43-1.559v-1.841c-.09.102-.27.196-.56.281-.29.08-.62.151-.99.213-.37.057-.73.108-1.09.154-.34.039-.62.073-.84.102-.52.068-1.01.179-1.46.332-.45.148-.82.372-1.1.674-.27.295-.4.698-.4 1.21 0 .699.25 1.227.77 1.585.52.352 1.19.528 1.99.528z"/><path d="m997.031 111.409-.137.921c-.096.647-.244 1.34-.443 2.079-.193.739-.395 1.435-.605 2.088-.21.654-.383 1.173-.52 1.56h-1.534c.074-.364.171-.844.29-1.441.119-.596.239-1.264.358-2.002.125-.733.227-1.483.307-2.25l.102-.955z"/><path d="m991.054 104.437-3.324.205c-.056-.284-.179-.54-.366-.767-.188-.233-.435-.418-.742-.554-.301-.142-.661-.213-1.082-.213-.562 0-1.037.119-1.423.358-.387.233-.58.545-.58.937 0 .313.125.577.375.793s.679.389 1.287.52l2.369.477c1.273.262 2.222.682 2.847 1.262.625.579.938 1.34.938 2.284 0 .858-.253 1.61-.759 2.258-.5.648-1.187 1.154-2.062 1.517-.87.358-1.873.537-3.009.537-1.733 0-3.114-.361-4.142-1.082-1.023-.728-1.622-1.716-1.798-2.966l3.571-.188c.108.529.369.932.784 1.211.415.272.946.409 1.594.409.636 0 1.147-.123 1.534-.367.392-.25.591-.571.596-.963-.005-.329-.145-.599-.417-.81-.273-.215-.694-.38-1.262-.494l-2.267-.452c-1.278-.255-2.23-.698-2.855-1.329-.619-.631-.929-1.435-.929-2.412 0-.841.227-1.565.682-2.173.46-.608 1.105-1.077 1.935-1.407.835-.329 1.812-.494 2.931-.494 1.654 0 2.955.349 3.904 1.048.954.699 1.511 1.651 1.67 2.855z"/><path d="m973.623 100.705h3.631v13.738c0 1.012-.199 1.83-.597 2.455-.397.625-.968 1.082-1.713 1.372-.738.29-1.622.435-2.65.435-.125 0-.245-.003-.358-.009-.12 0-.245-.003-.375-.008v-2.839c.096.006.181.009.255.009.068.006.142.008.222.008.585 0 .994-.125 1.227-.375.239-.244.358-.613.358-1.107zm1.807-1.688c-.534 0-.994-.1789-1.381-.5369-.386-.3636-.579-.7983-.579-1.304 0-.5.193-.9289.579-1.2869.387-.3636.847-.5454 1.381-.5454.545 0 1.009.1818 1.389.5454.387.358.58.7869.58 1.2869 0 .5057-.193.9404-.58 1.304-.38.358-.844.5369-1.389.5369z"/><path d="m968.597 114.017c-.563 0-1.046-.199-1.449-.597-.398-.403-.597-.886-.597-1.448 0-.557.199-1.035.597-1.432.403-.398.886-.597 1.449-.597.545 0 1.023.199 1.432.597.409.397.613.875.613 1.432 0 .375-.096.718-.289 1.031-.188.307-.435.554-.742.741-.307.182-.645.273-1.014.273z"/><path d="m958.097 114.051c-1.347 0-2.506-.273-3.477-.818-.966-.551-1.711-1.33-2.233-2.335-.523-1.012-.784-2.208-.784-3.588 0-1.347.261-2.529.784-3.546.522-1.017 1.258-1.809 2.207-2.378.955-.568 2.074-.852 3.358-.852.864 0 1.668.139 2.412.418.75.272 1.403.684 1.96 1.235.563.552 1 1.245 1.313 2.08.312.83.468 1.801.468 2.915v.997h-11.054v-2.25h7.637c0-.523-.114-.986-.341-1.389-.227-.404-.543-.719-.946-.946-.398-.233-.861-.35-1.389-.35-.552 0-1.04.128-1.466.384-.421.25-.75.588-.989 1.014-.239.42-.361.889-.366 1.406v2.139c0 .648.119 1.208.358 1.679.244.472.588.836 1.031 1.091.443.256.969.384 1.577.384.403 0 .772-.057 1.107-.171.336-.113.623-.284.861-.511.239-.227.421-.506.546-.835l3.358.221c-.171.807-.52 1.512-1.049 2.114-.522.597-1.198 1.063-2.028 1.398-.824.329-1.776.494-2.855.494z"/><path d="m940.832 106.227v7.568h-3.631v-13.09h3.461v2.309h.153c.29-.761.775-1.363 1.457-1.807.682-.449 1.509-.673 2.48-.673.91 0 1.702.199 2.378.597.676.397 1.202.966 1.577 1.704.375.733.562 1.608.562 2.625v8.335h-3.63v-7.687c.005-.801-.199-1.426-.614-1.875-.415-.455-.986-.682-1.713-.682-.489 0-.92.105-1.295.315-.37.211-.659.517-.87.921-.204.398-.309.878-.315 1.44z"/><path d="m930.662 113.795v-13.09h3.631v13.09zm1.824-14.778c-.54 0-1.003-.1789-1.389-.5369-.381-.3636-.571-.7983-.571-1.304 0-.5.19-.9289.571-1.2869.386-.3636.849-.5454 1.389-.5454s1 .1818 1.381.5454c.386.358.579.7869.579 1.2869 0 .5057-.193.9404-.579 1.304-.381.358-.841.5369-1.381.5369z"/><path d="m915.475 118.705v-18h3.579v2.198h.162c.159-.352.389-.71.691-1.073.306-.37.704-.677 1.193-.921.494-.25 1.108-.375 1.841-.375.954 0 1.835.25 2.642.75.806.494 1.451 1.242 1.934 2.242.483.994.725 2.241.725 3.741 0 1.46-.236 2.693-.708 3.699-.466 1-1.102 1.758-1.909 2.275-.801.512-1.699.767-2.693.767-.704 0-1.304-.116-1.798-.349-.489-.233-.889-.526-1.202-.878-.312-.358-.551-.719-.716-1.082h-.111v7.006zm3.554-11.455c0 .778.108 1.457.324 2.037.215.579.528 1.031.937 1.355.409.318.906.477 1.492.477.59 0 1.09-.162 1.5-.486.409-.329.718-.784.928-1.363.216-.585.324-1.259.324-2.02 0-.756-.105-1.42-.315-1.994s-.52-1.023-.929-1.347-.912-.486-1.508-.486c-.591 0-1.091.157-1.5.469-.404.313-.714.756-.929 1.33-.216.573-.324 1.25-.324 2.028z"/><path d="m912.566 96.3408v17.4542h-3.63v-17.4542z"/><path d="m894.059 113.795h-3.954l6.025-17.4542h4.756l6.017 17.4542h-3.955l-4.372-13.466h-.136zm-.247-6.86h9.341v2.88h-9.341z"/><path d="m875.695 113.795v-13.09h1.943v1.977h.136c.239-.648.671-1.173 1.296-1.577.625-.403 1.329-.605 2.114-.605.147 0 .332.003.554.009.221.005.389.014.502.025v2.046c-.068-.017-.224-.043-.468-.077-.239-.04-.492-.06-.759-.06-.636 0-1.204.134-1.704.401-.495.261-.887.625-1.177 1.091-.284.46-.426.985-.426 1.576v8.284z"/><path d="m866.693 114.068c-1.182 0-2.219-.281-3.111-.844-.886-.562-1.58-1.349-2.08-2.36-.494-1.012-.741-2.194-.741-3.546 0-1.363.247-2.554.741-3.571.5-1.017 1.194-1.807 2.08-2.369.892-.563 1.929-.844 3.111-.844s2.216.281 3.102.844c.892.562 1.585 1.352 2.08 2.369.5 1.017.75 2.208.75 3.571 0 1.352-.25 2.534-.75 3.546-.495 1.011-1.188 1.798-2.08 2.36-.886.563-1.92.844-3.102.844zm0-1.807c.898 0 1.636-.23 2.216-.69.579-.46 1.008-1.065 1.287-1.815.278-.75.417-1.563.417-2.438s-.139-1.69-.417-2.446c-.279-.756-.708-1.366-1.287-1.832-.58-.466-1.318-.699-2.216-.699s-1.637.233-2.216.699c-.58.466-1.009 1.076-1.287 1.832s-.418 1.571-.418 2.446.14 1.688.418 2.438.707 1.355 1.287 1.815c.579.46 1.318.69 2.216.69z"/><path d="m851.867 100.704v2.728h-7.883v-2.728zm-6.093-3.1359h3.63v12.2049c0 .335.052.596.154.784.102.182.244.309.426.383.187.074.403.111.648.111.17 0 .341-.014.511-.043.17-.034.301-.059.392-.076l.571 2.701c-.182.057-.437.123-.767.196-.329.08-.73.128-1.202.145-.875.034-1.642-.082-2.301-.349-.653-.267-1.162-.682-1.525-1.244-.364-.563-.543-1.273-.537-2.131z"/><path d="m829.717 118.705v-18h3.579v2.198h.162c.159-.352.39-.71.691-1.073.307-.37.704-.677 1.193-.921.494-.25 1.108-.375 1.841-.375.954 0 1.835.25 2.642.75.807.494 1.452 1.242 1.934 2.242.483.994.725 2.241.725 3.741 0 1.46-.236 2.693-.707 3.699-.466 1-1.103 1.758-1.91 2.275-.801.512-1.698.767-2.693.767-.704 0-1.304-.116-1.798-.349-.489-.233-.889-.526-1.202-.878-.312-.358-.551-.719-.716-1.082h-.11v7.006zm3.554-11.455c0 .778.108 1.457.324 2.037.216.579.528 1.031.937 1.355.409.318.906.477 1.492.477.591 0 1.091-.162 1.5-.486.409-.329.718-.784.929-1.363.216-.585.324-1.259.324-2.02 0-.756-.106-1.42-.316-1.994s-.52-1.023-.929-1.347-.912-.486-1.508-.486c-.591 0-1.091.157-1.5.469-.404.313-.713.756-.929 1.33-.216.573-.324 1.25-.324 2.028z"/><path d="m823.178 113.795v-13.09h3.631v13.09zm1.824-14.778c-.54 0-1.003-.1789-1.389-.5369-.381-.3636-.572-.7983-.572-1.304 0-.5.191-.9289.572-1.2869.386-.3636.849-.5454 1.389-.5454.539 0 1 .1818 1.38.5454.387.358.58.7869.58 1.2869 0 .5057-.193.9404-.58 1.304-.38.358-.841.5369-1.38.5369z"/><path d="m813.358 113.795v-13.091h3.519v2.285h.137c.238-.813.639-1.427 1.201-1.841.563-.421 1.211-.631 1.944-.631.181 0 .378.011.588.034s.395.054.554.094v3.221c-.171-.051-.407-.096-.708-.136s-.576-.06-.826-.06c-.534 0-1.012.117-1.432.35-.415.227-.745.545-.989.954-.238.409-.358.881-.358 1.415v7.406z"/><path d="m805.186 114.051c-1.341 0-2.494-.284-3.46-.852-.96-.574-1.699-1.369-2.216-2.387-.511-1.017-.767-2.187-.767-3.511 0-1.341.259-2.517.776-3.528.522-1.017 1.264-1.81 2.224-2.378.96-.574 2.102-.861 3.426-.861 1.142 0 2.142.207 3 .622s1.537.997 2.037 1.747.776 1.631.827 2.642h-3.426c-.097-.653-.352-1.179-.767-1.576-.409-.404-.946-.605-1.611-.605-.563 0-1.054.153-1.474.46-.415.301-.739.741-.972 1.321-.233.579-.349 1.281-.349 2.105 0 .835.113 1.545.34 2.131.233.585.56 1.031.981 1.338.42.307.911.46 1.474.46.415 0 .787-.085 1.116-.256.336-.17.611-.417.827-.741.222-.33.367-.725.435-1.185h3.426c-.057 1-.33 1.881-.818 2.642-.483.756-1.151 1.347-2.003 1.773s-1.861.639-3.026.639z"/><path d="m796.687 104.437-3.324.205c-.057-.284-.179-.54-.366-.767-.188-.233-.435-.418-.742-.554-.301-.142-.662-.213-1.082-.213-.563 0-1.037.119-1.423.358-.387.233-.58.545-.58.937 0 .313.125.577.375.793s.679.389 1.287.52l2.369.477c1.273.262 2.222.682 2.847 1.262.625.579.937 1.34.937 2.284 0 .858-.252 1.61-.758 2.258-.5.648-1.188 1.154-2.063 1.517-.869.358-1.872.537-3.008.537-1.733 0-3.114-.361-4.142-1.082-1.023-.728-1.622-1.716-1.799-2.966l3.571-.188c.108.529.37.932.785 1.211.414.272.946.409 1.593.409.637 0 1.148-.123 1.534-.367.392-.25.591-.571.597-.963-.006-.329-.145-.599-.418-.81-.272-.215-.693-.38-1.261-.494l-2.267-.452c-1.278-.255-2.23-.698-2.855-1.329-.619-.631-.929-1.435-.929-2.412 0-.841.227-1.565.682-2.173.46-.608 1.105-1.077 1.934-1.407.836-.329 1.813-.494 2.932-.494 1.654 0 2.955.349 3.904 1.048.954.699 1.511 1.651 1.67 2.855z"/><path d="m775.975 113.795v-13.091h3.52v2.285h.136c.239-.813.639-1.427 1.202-1.841.562-.421 1.21-.631 1.943-.631.182 0 .378.011.588.034s.395.054.554.094v3.221c-.171-.051-.406-.096-.707-.136-.302-.04-.577-.06-.827-.06-.534 0-1.012.117-1.432.35-.415.227-.744.545-.989.954-.238.409-.358.881-.358 1.415v7.406z"/><path d="m767.597 114.051c-1.347 0-2.506-.273-3.477-.818-.966-.551-1.711-1.33-2.233-2.335-.523-1.012-.784-2.208-.784-3.588 0-1.347.261-2.529.784-3.546.522-1.017 1.258-1.809 2.207-2.378.955-.568 2.074-.852 3.358-.852.864 0 1.668.139 2.412.418.75.272 1.403.684 1.96 1.235.563.552 1 1.245 1.313 2.08.312.83.468 1.801.468 2.915v.997h-11.054v-2.25h7.637c0-.523-.114-.986-.341-1.389-.227-.404-.543-.719-.946-.946-.398-.233-.861-.35-1.389-.35-.551 0-1.04.128-1.466.384-.421.25-.75.588-.989 1.014-.239.42-.361.889-.366 1.406v2.139c0 .648.119 1.208.358 1.679.244.472.588.836 1.031 1.091.443.256.969.384 1.577.384.403 0 .772-.057 1.107-.171.336-.113.623-.284.861-.511.239-.227.421-.506.546-.835l3.358.221c-.171.807-.52 1.512-1.049 2.114-.522.597-1.198 1.063-2.028 1.398-.824.329-1.776.494-2.855.494z"/><path d="m746.443 118.705v-18h3.58v2.198h.162c.159-.352.389-.71.69-1.073.307-.37.705-.677 1.193-.921.495-.25 1.108-.375 1.841-.375.955 0 1.836.25 2.642.75.807.494 1.452 1.242 1.935 2.242.483.994.725 2.241.725 3.741 0 1.46-.236 2.693-.708 3.699-.466 1-1.102 1.758-1.909 2.275-.801.512-1.699.767-2.693.767-.705 0-1.304-.116-1.798-.349-.489-.233-.89-.526-1.202-.878-.313-.358-.551-.719-.716-1.082h-.111v7.006zm3.554-11.455c0 .778.108 1.457.324 2.037.216.579.529 1.031.938 1.355.409.318.906.477 1.491.477.591 0 1.091-.162 1.5-.486.409-.329.719-.784.929-1.363.216-.585.324-1.259.324-2.02 0-.756-.105-1.42-.315-1.994s-.52-1.023-.929-1.347-.912-.486-1.509-.486c-.591 0-1.091.157-1.5.469-.403.313-.713.756-.929 1.33-.216.573-.324 1.25-.324 2.028z"/><path d="m734.622 118.704c-.46 0-.892-.036-1.295-.11-.398-.069-.727-.157-.989-.265l.819-2.71c.426.131.809.202 1.15.213.347.012.645-.068.895-.238.256-.171.463-.461.622-.87l.213-.554-4.696-13.466h3.818l2.711 9.614h.136l2.736-9.614h3.844l-5.089 14.506c-.244.705-.576 1.318-.997 1.841-.414.528-.94.935-1.576 1.219-.637.29-1.404.434-2.302.434z"/><path d="m721.504 106.227v7.568h-3.631v-17.4542h3.529v6.6732h.153c.295-.773.773-1.378 1.432-1.815.659-.443 1.486-.665 2.48-.665.909 0 1.702.199 2.378.597.682.392 1.21.957 1.585 1.696.381.733.568 1.61.562 2.633v8.335h-3.63v-7.687c.005-.807-.199-1.435-.614-1.884-.409-.449-.983-.673-1.721-.673-.495 0-.932.105-1.313.315-.375.211-.67.517-.886.921-.211.398-.318.878-.324 1.44z"/><path d="m707.789 111.409-.137.921c-.096.647-.244 1.34-.443 2.079-.193.739-.395 1.435-.605 2.088-.21.654-.384 1.173-.52 1.56h-1.534c.074-.364.17-.844.29-1.441.119-.596.238-1.264.358-2.002.125-.733.227-1.483.307-2.25l.102-.955z"/><path d="m693.649 100.704 2.404 4.577 2.463-4.577h3.724l-3.792 6.546 3.895 6.545h-3.708l-2.582-4.525-2.54 4.525h-3.75l3.886-6.545-3.75-6.546z"/><path d="m668.725 113.795v-13.09h3.46v2.309h.153c.273-.767.728-1.372 1.364-1.815s1.398-.665 2.284-.665c.898 0 1.662.224 2.293.673.63.444 1.051 1.046 1.261 1.807h.136c.267-.75.75-1.349 1.449-1.798.705-.455 1.537-.682 2.497-.682 1.222 0 2.213.389 2.975 1.168.767.772 1.15 1.869 1.15 3.289v8.804h-3.622v-8.088c0-.727-.193-1.272-.579-1.636-.387-.364-.87-.545-1.449-.545-.659 0-1.173.21-1.543.63-.369.415-.554.963-.554 1.645v7.994h-3.52v-8.164c0-.642-.184-1.154-.554-1.534-.363-.381-.843-.571-1.44-.571-.403 0-.767.102-1.091.306-.318.199-.571.48-.758.844-.188.358-.282.779-.282 1.261v7.858z"/><path d="m666.36 100.704v2.728h-7.884v-2.728zm-6.094-3.1359h3.631v12.2049c0 .335.051.596.153.784.102.182.244.309.426.383.188.074.404.111.648.111.17 0 .341-.014.511-.043.171-.034.301-.059.392-.076l.571 2.701c-.182.057-.437.123-.767.196-.329.08-.73.128-1.201.145-.875.034-1.643-.082-2.302-.349-.653-.267-1.162-.682-1.525-1.244-.364-.563-.543-1.273-.537-2.131z"/><path d="m648.051 106.227v7.568h-3.631v-17.4542h3.528v6.6732h.154c.295-.773.773-1.378 1.432-1.815.659-.443 1.485-.665 2.48-.665.909 0 1.701.199 2.378.597.681.392 1.21.957 1.585 1.696.381.733.568 1.61.562 2.633v8.335h-3.63v-7.687c.005-.807-.199-1.435-.614-1.884-.409-.449-.983-.673-1.722-.673-.494 0-.931.105-1.312.315-.375.211-.671.517-.886.921-.211.398-.319.878-.324 1.44z"/><path d="m628.721 118.977c-.971 0-1.807-.125-2.506-.375-.698-.244-1.281-.568-1.747-.971-.46-.398-.826-.824-1.099-1.279l1.602-1.125c.182.239.412.512.69.818.279.313.66.583 1.143.81.488.233 1.127.35 1.917.35 1.057 0 1.929-.256 2.617-.768.687-.511 1.031-1.312 1.031-2.403v-2.659h-.171c-.147.239-.358.534-.63.886-.267.347-.654.657-1.159.929-.5.267-1.176.401-2.029.401-1.057 0-2.005-.25-2.846-.75-.836-.5-1.498-1.227-1.986-2.182-.483-.954-.725-2.114-.725-3.477 0-1.341.236-2.509.708-3.503.471-1 1.128-1.773 1.969-2.318.84-.551 1.812-.827 2.914-.827.853 0 1.529.142 2.029.426.505.279.892.597 1.159.955.273.352.483.642.631.869h.204v-2.079h1.943v13.465c0 1.125-.255 2.04-.767 2.745-.505.71-1.187 1.23-2.045 1.559-.853.336-1.801.503-2.847.503zm-.068-7.193c.807 0 1.489-.185 2.045-.554.557-.369.981-.9 1.27-1.594.29-.693.435-1.522.435-2.488 0-.943-.142-1.776-.426-2.497-.284-.722-.705-1.287-1.262-1.696-.556-.41-1.244-.614-2.062-.614-.852 0-1.563.216-2.131.648-.562.431-.985 1.011-1.27 1.738-.278.728-.417 1.534-.417 2.421 0 .909.142 1.713.426 2.412.29.693.716 1.238 1.278 1.636.569.392 1.273.588 2.114.588z"/><path d="m611.409 105.92v7.875h-2.011v-13.09h1.943v2.045h.171c.306-.665.772-1.199 1.397-1.602.625-.409 1.432-.614 2.421-.614.886 0 1.662.182 2.327.546.664.357 1.181.903 1.551 1.636.369.727.554 1.648.554 2.761v8.318h-2.012v-8.181c0-1.029-.267-1.83-.801-2.404-.534-.579-1.267-.869-2.199-.869-.642 0-1.216.139-1.721.417-.5.279-.895.685-1.185 1.219s-.435 1.182-.435 1.943z"/><path d="m603.703 113.795v-13.09h2.011v13.09zm1.022-15.2723c-.392 0-.73-.1335-1.014-.4006-.278-.267-.417-.5881-.417-.9631s.139-.696.417-.963c.284-.2671.622-.4006 1.014-.4006s.728.1335 1.006.4006c.284.267.426.588.426.963s-.142.6961-.426.9631c-.278.2671-.614.4006-1.006.4006z"/><path d="m600.436 103.636-1.806.512c-.114-.301-.282-.594-.503-.878-.216-.29-.512-.529-.887-.716-.375-.188-.855-.281-1.44-.281-.801 0-1.469.184-2.003.554-.528.363-.792.826-.792 1.389 0 .5.181.895.545 1.185.364.289.932.531 1.705.724l1.943.477c1.17.284 2.042.719 2.616 1.304.574.58.861 1.327.861 2.242 0 .75-.216 1.42-.648 2.011-.426.591-1.022 1.057-1.79 1.398-.767.341-1.659.511-2.676.511-1.335 0-2.44-.29-3.315-.869-.875-.58-1.429-1.426-1.662-2.54l1.909-.477c.182.704.526 1.233 1.031 1.585.512.352 1.179.528 2.003.528.938 0 1.682-.198 2.233-.596.557-.404.835-.887.835-1.449 0-.455-.159-.835-.477-1.142-.318-.313-.807-.546-1.466-.699l-2.182-.511c-1.198-.284-2.079-.725-2.642-1.321-.556-.603-.835-1.355-.835-2.259 0-.738.208-1.392.622-1.96.421-.568.992-1.014 1.713-1.338.728-.324 1.552-.486 2.472-.486 1.295 0 2.312.284 3.051.852.744.569 1.273 1.319 1.585 2.25z"/><path d="m585.468 108.443v-7.739h2.012v13.091h-2.012v-2.216h-.136c-.307.665-.784 1.231-1.432 1.696-.648.461-1.466.691-2.454.691-.819 0-1.546-.179-2.182-.537-.637-.364-1.137-.909-1.5-1.636-.364-.733-.546-1.657-.546-2.77v-8.319h2.012v8.182c0 .955.267 1.716.801 2.284.54.569 1.227.853 2.062.853.5 0 1.009-.128 1.526-.384.523-.256.96-.648 1.312-1.176.358-.528.537-1.202.537-2.02z"/><path d="m566.742 111.409-.137.921c-.096.647-.244 1.34-.443 2.079-.193.739-.395 1.435-.605 2.088-.21.654-.383 1.173-.52 1.56h-1.534c.074-.364.171-.844.29-1.441.119-.596.239-1.264.358-2.002.125-.733.227-1.483.307-2.25l.102-.955z"/><path d="m553.779 114.068c-1.091 0-2.054-.275-2.89-.827-.835-.556-1.488-1.341-1.96-2.352-.471-1.017-.707-2.219-.707-3.605 0-1.375.236-2.568.707-3.58.472-1.011 1.128-1.792 1.969-2.343s1.813-.827 2.915-.827c.852 0 1.525.142 2.02.426.5.279.88.597 1.142.955.267.352.474.642.622.869h.17v-6.4432h2.012v17.4542h-1.943v-2.011h-.239c-.148.239-.358.54-.631.903-.273.358-.662.679-1.167.963-.506.279-1.179.418-2.02.418zm.272-1.807c.807 0 1.489-.21 2.046-.63.557-.427.98-1.015 1.27-1.765.29-.755.434-1.627.434-2.616 0-.977-.142-1.832-.426-2.565-.284-.739-.704-1.313-1.261-1.722-.557-.415-1.244-.622-2.063-.622-.852 0-1.562.219-2.13.656-.563.432-.986 1.02-1.27 1.764-.279.739-.418 1.568-.418 2.489 0 .932.142 1.778.426 2.54.29.755.716 1.358 1.279 1.807.568.443 1.273.664 2.113.664z"/><path d="m536.808 105.92v7.875h-2.012v-13.09h1.944v2.045h.17c.307-.665.773-1.199 1.398-1.602.625-.409 1.432-.614 2.42-.614.887 0 1.662.182 2.327.546.665.357 1.182.903 1.551 1.636.369.727.554 1.648.554 2.761v8.318h-2.011v-8.181c0-1.029-.267-1.83-.801-2.404-.535-.579-1.267-.869-2.199-.869-.642 0-1.216.139-1.722.417-.5.279-.895.685-1.185 1.219-.289.534-.434 1.182-.434 1.943z"/><path d="m526.316 114.068c-1.261 0-2.349-.278-3.264-.835-.909-.563-1.611-1.347-2.105-2.352-.489-1.012-.733-2.188-.733-3.529s.244-2.522.733-3.545c.494-1.029 1.182-1.83 2.063-2.404.886-.579 1.92-.869 3.102-.869.682 0 1.355.114 2.02.341.664.227 1.27.597 1.815 1.108.545.506.98 1.176 1.304 2.011.324.836.486 1.864.486 3.086v.852h-10.091v-1.739h8.045c0-.738-.147-1.398-.443-1.977-.29-.58-.704-1.037-1.244-1.372-.534-.336-1.165-.503-1.892-.503-.801 0-1.495.199-2.08.596-.579.393-1.025.904-1.338 1.535-.312.63-.469 1.306-.469 2.028v1.159c0 .989.171 1.827.512 2.514.346.682.826 1.202 1.44 1.56.614.352 1.327.528 2.139.528.529 0 1.006-.074 1.432-.221.432-.154.804-.381 1.117-.682.312-.307.554-.688.724-1.142l1.943.545c-.204.659-.548 1.239-1.031 1.739-.483.494-1.08.881-1.79 1.159-.71.273-1.508.409-2.395.409z"/><path d="m510.187 109.023-.034-2.489h.409l5.727-5.83h2.489l-6.102 6.171h-.171zm-1.875 4.772v-17.4542h2.011v17.4542zm8.318 0-5.113-6.477 1.431-1.398 6.239 7.875z"/><path d="m500.224 114.068c-1.227 0-2.284-.29-3.17-.869-.887-.58-1.569-1.378-2.046-2.395s-.716-2.179-.716-3.486c0-1.329.244-2.503.733-3.52.494-1.022 1.182-1.821 2.063-2.395.886-.579 1.92-.869 3.102-.869.92 0 1.75.171 2.489.511.738.341 1.343.819 1.815 1.432.471.614.764 1.33.878 2.148h-2.012c-.153-.597-.494-1.125-1.022-1.585-.523-.466-1.228-.699-2.114-.699-.784 0-1.472.204-2.063.614-.585.403-1.042.974-1.372 1.713-.324.733-.485 1.593-.485 2.582 0 1.011.159 1.892.477 2.642.324.75.778 1.332 1.363 1.747.591.415 1.285.622 2.08.622.523 0 .997-.091 1.423-.272.426-.182.787-.444 1.083-.784.295-.341.505-.75.63-1.228h2.012c-.114.773-.395 1.469-.844 2.088-.443.614-1.031 1.103-1.764 1.466-.727.358-1.574.537-2.54.537z"/><path d="m485.235 114.102c-.83 0-1.583-.156-2.259-.469-.676-.318-1.213-.775-1.611-1.372-.397-.602-.596-1.329-.596-2.181 0-.75.147-1.358.443-1.824.295-.472.69-.841 1.185-1.108.494-.267 1.039-.466 1.636-.597.602-.136 1.207-.244 1.815-.324.796-.102 1.441-.179 1.935-.23.5-.057.864-.15 1.091-.281.233-.131.349-.358.349-.682v-.068c0-.841-.23-1.494-.69-1.96-.455-.466-1.145-.699-2.071-.699-.96 0-1.713.21-2.259.63-.545.421-.929.87-1.15 1.347l-1.909-.682c.341-.795.795-1.415 1.363-1.858.574-.449 1.199-.761 1.875-.937.682-.182 1.353-.273 2.012-.273.42 0 .903.051 1.449.153.551.097 1.082.299 1.593.606.517.306.946.769 1.287 1.389.341.619.512 1.449.512 2.488v8.625h-2.012v-1.772h-.102c-.136.284-.364.588-.682.912-.318.323-.741.599-1.27.826-.528.228-1.173.341-1.934.341zm.306-1.807c.796 0 1.466-.156 2.012-.468.551-.313.966-.716 1.244-1.211.284-.494.426-1.014.426-1.559v-1.841c-.085.102-.272.196-.562.281-.284.08-.614.151-.989.213-.369.057-.73.108-1.082.154-.347.039-.628.073-.844.102-.523.068-1.011.179-1.466.332-.449.148-.812.372-1.091.674-.273.295-.409.698-.409 1.21 0 .699.259 1.227.776 1.585.522.352 1.184.528 1.985.528z"/><path d="m466.749 113.795v-17.4542h2.011v6.4432h.171c.147-.227.352-.517.613-.869.267-.358.648-.676 1.142-.955.5-.284 1.176-.426 2.029-.426 1.102 0 2.074.276 2.915.827.84.551 1.497 1.332 1.968 2.343.472 1.012.708 2.205.708 3.58 0 1.386-.236 2.588-.708 3.605-.471 1.011-1.125 1.796-1.96 2.352-.835.552-1.798.827-2.889.827-.841 0-1.514-.139-2.02-.418-.506-.284-.895-.605-1.168-.963-.272-.363-.483-.664-.63-.903h-.239v2.011zm1.977-6.545c0 .989.145 1.861.435 2.616.29.75.713 1.338 1.27 1.765.556.42 1.238.63 2.045.63.841 0 1.543-.221 2.105-.664.568-.449.995-1.052 1.279-1.807.289-.762.434-1.608.434-2.54 0-.921-.142-1.75-.426-2.489-.278-.744-.702-1.332-1.27-1.764-.562-.437-1.27-.656-2.122-.656-.818 0-1.506.207-2.062.622-.557.409-.978.983-1.262 1.722-.284.733-.426 1.588-.426 2.565z"/><path d="m451.246 114.068c-1.261 0-2.349-.278-3.264-.835-.909-.563-1.611-1.347-2.105-2.352-.489-1.012-.733-2.188-.733-3.529s.244-2.522.733-3.545c.494-1.029 1.181-1.83 2.062-2.404.887-.579 1.921-.869 3.102-.869.682 0 1.356.114 2.02.341.665.227 1.27.597 1.816 1.108.545.506.98 1.176 1.304 2.011.324.836.485 1.864.485 3.086v.852h-10.09v-1.739h8.045c0-.738-.148-1.398-.443-1.977-.29-.58-.705-1.037-1.244-1.372-.535-.336-1.165-.503-1.893-.503-.801 0-1.494.199-2.079.596-.58.393-1.026.904-1.338 1.535-.313.63-.469 1.306-.469 2.028v1.159c0 .989.171 1.827.511 2.514.347.682.827 1.202 1.441 1.56.613.352 1.327.528 2.139.528.528 0 1.006-.074 1.432-.221.432-.154.804-.381 1.116-.682.313-.307.554-.688.725-1.142l1.943.545c-.205.659-.548 1.239-1.031 1.739-.483.494-1.08.881-1.79 1.159-.71.273-1.509.409-2.395.409z"/><path d="m433.589 105.92v7.875h-2.011v-17.4542h2.011v6.4092h.171c.306-.676.767-1.213 1.38-1.611.62-.403 1.443-.605 2.472-.605.892 0 1.673.179 2.344.537.67.352 1.19.895 1.559 1.628.375.727.563 1.653.563 2.778v8.318h-2.012v-8.181c0-1.04-.27-1.844-.809-2.412-.534-.574-1.276-.861-2.225-.861-.659 0-1.25.139-1.772.417-.518.279-.927.685-1.228 1.219-.295.534-.443 1.182-.443 1.943z"/><path d="m428.271 100.704v1.705h-6.784v-1.705zm-4.807-3.1359h2.011v12.4769c0 .569.083.995.248 1.279.17.278.386.466.647.562.267.091.549.137.844.137.222 0 .403-.012.546-.034.142-.029.255-.052.34-.069l.41 1.807c-.137.051-.327.102-.572.154-.244.056-.553.085-.928.085-.569 0-1.125-.122-1.671-.367-.54-.244-.989-.616-1.347-1.116-.352-.5-.528-1.131-.528-1.892z"/><path d="m403.8 105.92v7.875h-2.011v-13.09h1.943v2.045h.17c.307-.665.773-1.199 1.398-1.602.625-.409 1.432-.614 2.42-.614.887 0 1.662.182 2.327.546.665.357 1.182.903 1.551 1.636.37.727.554 1.648.554 2.761v8.318h-2.011v-8.181c0-1.029-.267-1.83-.801-2.404-.534-.579-1.267-.869-2.199-.869-.642 0-1.216.139-1.722.417-.5.279-.895.685-1.184 1.219-.29.534-.435 1.182-.435 1.943z"/><path d="m392.786 114.068c-1.181 0-2.218-.281-3.11-.844-.887-.562-1.58-1.349-2.08-2.36-.494-1.012-.741-2.194-.741-3.546 0-1.363.247-2.554.741-3.571.5-1.017 1.193-1.807 2.08-2.369.892-.563 1.929-.844 3.11-.844 1.182 0 2.216.281 3.103.844.892.562 1.585 1.352 2.079 2.369.5 1.017.75 2.208.75 3.571 0 1.352-.25 2.534-.75 3.546-.494 1.011-1.187 1.798-2.079 2.36-.887.563-1.921.844-3.103.844zm0-1.807c.898 0 1.637-.23 2.216-.69.58-.46 1.009-1.065 1.287-1.815.279-.75.418-1.563.418-2.438s-.139-1.69-.418-2.446c-.278-.756-.707-1.366-1.287-1.832-.579-.466-1.318-.699-2.216-.699-.897 0-1.636.233-2.215.699-.58.466-1.009 1.076-1.287 1.832-.279.756-.418 1.571-.418 2.446s.139 1.688.418 2.438c.278.75.707 1.355 1.287 1.815.579.46 1.318.69 2.215.69z"/><path d="m371.522 114.051c-1.324 0-2.468-.281-3.434-.844-.961-.568-1.702-1.358-2.225-2.369-.523-1.017-.784-2.196-.784-3.537 0-1.352.261-2.534.784-3.545.523-1.017 1.264-1.807 2.225-2.37.966-.568 2.11-.852 3.434-.852s2.466.284 3.426.852c.966.563 1.711 1.353 2.233 2.37.523 1.011.784 2.193.784 3.545 0 1.341-.261 2.52-.784 3.537-.522 1.011-1.267 1.801-2.233 2.369-.96.563-2.102.844-3.426.844zm.017-2.812c.603 0 1.105-.171 1.509-.512.403-.346.707-.818.912-1.415.21-.596.315-1.275.315-2.036 0-.762-.105-1.441-.315-2.037-.205-.597-.509-1.069-.912-1.415-.404-.347-.906-.52-1.509-.52-.608 0-1.119.173-1.534.52-.409.346-.719.818-.929 1.415-.204.596-.307 1.275-.307 2.037 0 .761.103 1.44.307 2.036.21.597.52 1.069.929 1.415.415.341.926.512 1.534.512z"/><path d="m358.992 101.983c-.12-.415-.287-.781-.503-1.1-.216-.323-.48-.596-.793-.818-.307-.227-.659-.4003-1.057-.5196-.392-.1194-.826-.179-1.303-.179-.893 0-1.677.2216-2.353.6646-.67.443-1.193 1.088-1.568 1.935-.375.841-.562 1.869-.562 3.085s.184 2.25.554 3.102c.369.853.892 1.503 1.568 1.952.676.443 1.474.665 2.395.665.835 0 1.548-.148 2.139-.443.596-.302 1.051-.725 1.363-1.27.319-.546.478-1.191.478-1.935l.75.111h-4.5v-2.779h7.304v2.199c0 1.534-.324 2.853-.972 3.955-.648 1.096-1.54 1.943-2.676 2.54-1.136.591-2.438.886-3.903.886-1.637 0-3.074-.361-4.313-1.082-1.239-.728-2.204-1.759-2.898-3.094-.687-1.341-1.031-2.932-1.031-4.773 0-1.415.205-2.676.614-3.784.414-1.114.994-2.0568 1.738-2.8295.745-.7727 1.611-1.3608 2.6-1.7642.988-.4034 2.059-.6051 3.213-.6051.988 0 1.909.1449 2.761.4346.852.2841 1.608.6875 2.267 1.2103.665.5227 1.208 1.1448 1.628 1.8664.421.7155.69 1.5055.81 2.3695z"/><path d="m328.823 105.92v7.875h-2.011v-17.4542h2.011v6.4092h.171c.307-.676.767-1.213 1.381-1.611.619-.403 1.443-.605 2.471-.605.892 0 1.673.179 2.344.537.67.352 1.19.895 1.56 1.628.375.727.562 1.653.562 2.778v8.318h-2.011v-8.181c0-1.04-.27-1.844-.81-2.412-.534-.574-1.276-.861-2.224-.861-.659 0-1.25.139-1.773.417-.517.279-.926.685-1.227 1.219-.296.534-.444 1.182-.444 1.943z"/><path d="m323.505 100.704v1.705h-6.784v-1.705zm-4.807-3.1359h2.012v12.4769c0 .569.082.995.247 1.279.17.278.386.466.648.562.267.091.548.137.843.137.222 0 .404-.012.546-.034.142-.029.256-.052.341-.069l.409 1.807c-.136.051-.327.102-.571.154-.244.056-.554.085-.929.085-.568 0-1.125-.122-1.671-.367-.539-.244-.988-.616-1.346-1.116-.352-.5-.529-1.131-.529-1.892z"/><path d="m312.117 113.795v-13.09h2.011v13.09zm1.022-15.2723c-.392 0-.73-.1335-1.014-.4006-.278-.267-.417-.5881-.417-.9631s.139-.696.417-.963c.284-.2671.622-.4006 1.014-.4006.393 0 .728.1335 1.006.4006.284.267.426.588.426.963s-.142.6961-.426.9631c-.278.2671-.613.4006-1.006.4006z"/><path d="m295.583 113.795-3.989-13.091h2.114l2.829 10.023h.137l2.795-10.023h2.148l2.761 9.989h.136l2.83-9.989h2.114l-3.989 13.091h-1.977l-2.864-10.056h-.204l-2.864 10.056z"/><path d="m1209.62 70.6363-1.8.5114c-.12-.3011-.28-.5938-.51-.8778-.21-.2898-.51-.5285-.88-.716-.38-.1875-.86-.2812-1.44-.2812-.8 0-1.47.1847-2.01.554-.52.3636-.79.8267-.79 1.3892 0 .5.18.8949.55 1.1846.36.2898.93.5313 1.7.7245l1.95.4772c1.17.2841 2.04.7188 2.61 1.304.58.5796.86 1.3267.86 2.2415 0 .75-.21 1.4204-.65 2.0114-.42.5909-1.02 1.0568-1.78 1.3977-.77.3409-1.66.5113-2.68.5113-1.34 0-2.44-.2897-3.32-.8693-.87-.5795-1.43-1.4261-1.66-2.5397l1.91-.4773c.18.7045.53 1.2329 1.03 1.5852.51.3523 1.18.5284 2 .5284.94 0 1.69-.1988 2.24-.5966.55-.4034.83-.8863.83-1.4488 0-.4546-.16-.8353-.47-1.1421-.32-.3125-.81-.5454-1.47-.6988l-2.18-.5114c-1.2-.2841-2.08-.7244-2.64-1.321-.56-.6023-.84-1.3551-.84-2.2586 0-.7386.21-1.392.62-1.9602.42-.5682.99-1.0142 1.72-1.338.72-.3239 1.55-.4858 2.47-.4858 1.29 0 2.31.284 3.05.8522s1.27 1.3182 1.58 2.25z"/><path d="m1188.32 72.9204v7.875h-2.01v-13.0909h1.95v2.0455h.17c.3-.6648.77-1.1989 1.39-1.6023.63-.4091 1.44-.6136 2.42-.6136.89 0 1.67.1818 2.33.5454.67.358 1.18.9034 1.55 1.6364.37.7272.56 1.6477.56 2.7613v8.3182h-2.02v-8.1818c0-1.0284-.26-1.8295-.8-2.4034-.53-.5796-1.26-.8693-2.2-.8693-.64 0-1.21.1392-1.72.4176-.5.2784-.89.6846-1.18 1.2187s-.44 1.1819-.44 1.9432z"/><path d="m1177.31 81.0681c-1.18 0-2.22-.2812-3.11-.8437s-1.58-1.3494-2.08-2.3608c-.49-1.0114-.74-2.1932-.74-3.5455 0-1.3636.25-2.5539.74-3.571.5-1.017 1.19-1.8068 2.08-2.3693s1.93-.8437 3.11-.8437 2.22.2812 3.1.8437c.89.5625 1.59 1.3523 2.08 2.3693.5 1.0171.75 2.2074.75 3.571 0 1.3523-.25 2.5341-.75 3.5455-.49 1.0114-1.19 1.7983-2.08 2.3608-.88.5625-1.92.8437-3.1.8437zm0-1.8068c.9 0 1.64-.2301 2.22-.6903s1-1.0654 1.28-1.8154.42-1.5625.42-2.4375-.14-1.6903-.42-2.446-.7-1.3665-1.28-1.8324-1.32-.6988-2.22-.6988-1.64.2329-2.22.6988-1 1.0767-1.28 1.8324-.42 1.571-.42 2.446.14 1.6875.42 2.4375.7 1.3552 1.28 1.8154 1.32.6903 2.22.6903z"/><path d="m1166.3 80.7954v-13.0909h2.01v13.0909zm1.02-15.2727c-.39 0-.73-.1335-1.02-.4006-.27-.267-.41-.5881-.41-.9631s.14-.696.41-.963c.29-.2671.63-.4006 1.02-.4006s.73.1335 1 .4006c.29.267.43.588.43.963s-.14.6961-.43.9631c-.27.2671-.61.4006-1 .4006z"/><path d="m1163.27 67.7045v1.7045h-6.78v-1.7045zm-4.81-3.1364h2.02v12.4773c0 .5682.08.9943.24 1.2784.17.2784.39.4659.65.5625.27.0909.55.1364.84.1364.23 0 .41-.0114.55-.0341.14-.0284.26-.0512.34-.0682l.41 1.8068c-.14.0511-.33.1023-.57.1534-.25.0568-.56.0852-.93.0852-.57 0-1.13-.1221-1.67-.3664-.54-.2444-.99-.6165-1.35-1.1165-.35-.5-.53-1.1307-.53-1.8921z"/><path d="m1147.91 81.1022c-.83 0-1.59-.1562-2.26-.4687-.68-.3182-1.22-.7756-1.61-1.3722-.4-.6022-.6-1.3295-.6-2.1818 0-.75.15-1.3579.44-1.8239.3-.4715.69-.8409 1.19-1.1079.49-.2671 1.04-.4659 1.63-.5966.61-.1364 1.21-.2443 1.82-.3239.8-.1022 1.44-.1789 1.93-.2301.5-.0568.87-.1505 1.1-.2812s.35-.358.35-.6818v-.0682c0-.8409-.23-1.4943-.7-1.9603-.45-.4659-1.14-.6988-2.07-.6988-.96 0-1.71.2102-2.25.6307-.55.4204-.93.8693-1.16 1.3466l-1.9-.6819c.34-.7954.79-1.4147 1.36-1.8579.57-.4489 1.2-.7614 1.87-.9375.69-.1818 1.36-.2727 2.02-.2727.42 0 .9.0511 1.44.1534.56.0966 1.09.2983 1.6.6051.52.3068.94.7699 1.29 1.3892.34.6193.51 1.4488.51 2.4886v8.625h-2.01v-1.7727h-.11c-.13.2841-.36.5881-.68.9119-.32.3239-.74.5995-1.27.8267-.53.2273-1.17.3409-1.93.3409zm.3-1.8068c.8 0 1.47-.1562 2.01-.4687.56-.3125.97-.7159 1.25-1.2103.28-.4943.43-1.0142.43-1.5596v-1.8409c-.09.1022-.28.196-.57.2812-.28.0796-.61.1506-.99.2131-.37.0568-.73.1079-1.08.1534-.34.0398-.63.0739-.84.1023-.52.0682-1.01.179-1.47.3324-.45.1477-.81.3721-1.09.6733-.27.2954-.41.6988-.41 1.2102 0 .6988.26 1.2273.78 1.5852.52.3523 1.18.5284 1.98.5284z"/><path d="m1135.97 81.0681c-1.23 0-2.29-.2897-3.17-.8693-.89-.5795-1.57-1.3778-2.05-2.3949-.48-1.017-.72-2.1789-.72-3.4858 0-1.3295.25-2.5028.74-3.5198.49-1.0228 1.18-1.8211 2.06-2.3949.89-.5796 1.92-.8693 3.1-.8693.92 0 1.75.1704 2.49.5113s1.34.8182 1.82 1.4318c.47.6137.76 1.3296.87 2.1478h-2.01c-.15-.5966-.49-1.125-1.02-1.5853-.52-.4659-1.23-.6988-2.11-.6988-.79 0-1.48.2045-2.07.6136-.58.4034-1.04.9744-1.37 1.7131-.32.7329-.48 1.5937-.48 2.5824 0 1.0113.15 1.892.47 2.642.33.75.78 1.3324 1.37 1.7472.59.4147 1.28.6221 2.08.6221.52 0 .99-.0909 1.42-.2727s.79-.4432 1.08-.7841c.3-.3409.51-.75.63-1.2273h2.01c-.11.7728-.39 1.4688-.84 2.0881-.44.6136-1.03 1.1023-1.76 1.4659-.73.358-1.58.5369-2.54.5369z"/><path d="m1124.95 80.7954v-13.0909h2.01v13.0909zm1.03-15.2727c-.4 0-.73-.1335-1.02-.4006-.28-.267-.42-.5881-.42-.9631s.14-.696.42-.963c.29-.2671.62-.4006 1.02-.4006.39 0 .72.1335 1 .4006.29.267.43.588.43.963s-.14.6961-.43.9631c-.28.2671-.61.4006-1 .4006z"/><path d="m1121.27 63.3408v17.4546h-2.01v-17.4546z"/><path d="m1104.63 85.7045v-18h1.95v2.0796h.23c.15-.2273.36-.5171.62-.8694.26-.3579.65-.6761 1.14-.9545.5-.2841 1.18-.4261 2.03-.4261 1.1 0 2.07.2755 2.91.8267.84.5511 1.5 1.3323 1.97 2.3437s.71 2.2046.71 3.5796c0 1.3863-.24 2.588-.71 3.6051-.47 1.0113-1.12 1.7954-1.96 2.3522-.83.5512-1.8.8267-2.89.8267-.84 0-1.51-.1392-2.02-.4176-.5-.2841-.89-.6051-1.17-.963-.27-.3637-.48-.6648-.63-.9034h-.17v6.9204zm1.98-11.4545c0 .9886.14 1.8608.43 2.6164.29.75.72 1.3381 1.27 1.7642.56.4205 1.24.6307 2.05.6307.84 0 1.54-.2216 2.1-.6647.57-.4489 1-1.0512 1.28-1.8069.29-.7613.44-1.6079.44-2.5397 0-.9205-.14-1.75-.43-2.4887-.28-.7443-.7-1.3324-1.27-1.7642-.56-.4375-1.27-.6562-2.12-.6562-.82 0-1.51.2074-2.06.6221-.56.4091-.98.983-1.26 1.7216-.29.733-.43 1.5881-.43 2.5654z"/><path d="m1090.01 85.7045v-18h1.94v2.0796h.24c.15-.2273.35-.5171.61-.8694.27-.3579.65-.6761 1.14-.9545.5-.2841 1.18-.4261 2.03-.4261 1.11 0 2.08.2755 2.92.8267.84.5511 1.5 1.3323 1.97 2.3437s.7 2.2046.7 3.5796c0 1.3863-.23 2.588-.7 3.6051-.47 1.0113-1.13 1.7954-1.96 2.3522-.84.5512-1.8.8267-2.89.8267-.84 0-1.52-.1392-2.02-.4176-.51-.2841-.9-.6051-1.17-.963-.27-.3637-.48-.6648-.63-.9034h-.17v6.9204zm1.97-11.4545c0 .9886.15 1.8608.44 2.6164.29.75.71 1.3381 1.27 1.7642.56.4205 1.24.6307 2.04.6307.85 0 1.55-.2216 2.11-.6647.57-.4489.99-1.0512 1.28-1.8069.29-.7613.43-1.6079.43-2.5397 0-.9205-.14-1.75-.42-2.4887-.28-.7443-.7-1.3324-1.27-1.7642-.57-.4375-1.27-.6562-2.13-.6562-.81 0-1.5.2074-2.06.6221-.55.4091-.98.983-1.26 1.7216-.28.733-.43 1.5881-.43 2.5654z"/><path d="m1080.34 81.1022c-.83 0-1.59-.1562-2.26-.4687-.68-.3182-1.22-.7756-1.61-1.3722-.4-.6022-.6-1.3295-.6-2.1818 0-.75.15-1.3579.44-1.8239.3-.4715.69-.8409 1.19-1.1079.49-.2671 1.04-.4659 1.63-.5966.61-.1364 1.21-.2443 1.82-.3239.8-.1022 1.44-.1789 1.93-.2301.5-.0568.87-.1505 1.1-.2812s.34-.358.34-.6818v-.0682c0-.8409-.23-1.4943-.69-1.9603-.45-.4659-1.14-.6988-2.07-.6988-.96 0-1.71.2102-2.26.6307-.54.4204-.92.8693-1.15 1.3466l-1.9-.6819c.34-.7954.79-1.4147 1.36-1.8579.57-.4489 1.2-.7614 1.87-.9375.69-.1818 1.36-.2727 2.02-.2727.42 0 .9.0511 1.44.1534.56.0966 1.09.2983 1.6.6051s.94.7699 1.28 1.3892c.35.6193.52 1.4488.52 2.4886v8.625h-2.02v-1.7727h-.1c-.13.2841-.36.5881-.68.9119-.32.3239-.74.5995-1.27.8267-.53.2273-1.17.3409-1.93.3409zm.3-1.8068c.8 0 1.47-.1562 2.01-.4687.56-.3125.97-.7159 1.25-1.2103.28-.4943.42-1.0142.42-1.5596v-1.8409c-.08.1022-.27.196-.56.2812-.28.0796-.61.1506-.99.2131-.37.0568-.73.1079-1.08.1534-.35.0398-.63.0739-.84.1023-.53.0682-1.01.179-1.47.3324-.45.1477-.81.3721-1.09.6733-.27.2954-.41.6988-.41 1.2102 0 .6988.26 1.2273.78 1.5852.52.3523 1.18.5284 1.98.5284z"/><path d="m1055.1 80.7954v-17.4546h2.01v6.4432h.17c.15-.2273.35-.517.62-.8693.26-.358.64-.6762 1.14-.9546.5-.2841 1.17-.4261 2.03-.4261 1.1 0 2.07.2756 2.91.8267s1.5 1.3324 1.97 2.3438c.47 1.0113.71 2.2045.71 3.5795 0 1.3864-.24 2.5881-.71 3.6051-.47 1.0114-1.13 1.7955-1.96 2.3523-.84.5511-1.8.8267-2.89.8267-.84 0-1.51-.1392-2.02-.4176-.51-.2841-.89-.6051-1.17-.9631-.27-.3636-.48-.6648-.63-.9034h-.24v2.0114zm1.98-6.5455c0 .9886.14 1.8608.43 2.6165.29.75.72 1.3381 1.27 1.7642.56.4204 1.24.6307 2.05.6307.84 0 1.54-.2216 2.1-.6648.57-.4489 1-1.0511 1.28-1.8068.29-.7614.44-1.608.44-2.5398 0-.9204-.15-1.75-.43-2.4886-.28-.7443-.7-1.3324-1.27-1.7642-.56-.4375-1.27-.6563-2.12-.6563-.82 0-1.51.2074-2.06.6222-.56.4091-.98.9829-1.27 1.7216-.28.7329-.42 1.588-.42 2.5653z"/><path d="m1046.35 81.0681c-1.26 0-2.35-.2784-3.27-.8352-.91-.5625-1.61-1.3466-2.1-2.3523-.49-1.0113-.73-2.1875-.73-3.5284s.24-2.5227.73-3.5454c.49-1.0284 1.18-1.8296 2.06-2.4034.89-.5796 1.92-.8693 3.1-.8693.68 0 1.36.1136 2.02.3409.67.2272 1.27.5966 1.82 1.1079.54.5057.98 1.1762 1.3 2.0114.33.8352.49 1.8636.49 3.0852v.8523h-10.09v-1.7387h8.04c0-.7386-.15-1.3977-.44-1.9772-.29-.5796-.71-1.037-1.24-1.3722-.54-.3352-1.17-.5028-1.9-.5028-.8 0-1.49.1988-2.08.5966-.58.392-1.02.9034-1.33 1.5341-.32.6306-.47 1.3068-.47 2.0284v1.1591c0 .9886.17 1.8267.51 2.5142.34.6818.82 1.2017 1.44 1.5596.61.3523 1.33.5284 2.14.5284.53 0 1-.0738 1.43-.2216.43-.1534.8-.3806 1.12-.6818.31-.3068.55-.6875.72-1.142l1.94.5454c-.2.6591-.54 1.2387-1.03 1.7387-.48.4943-1.08.8806-1.79 1.1591-.71.2727-1.51.409-2.39.409z"/><path d="m1024.77 80.7954-3.99-13.0909h2.12l2.82 10.0227h.14l2.8-10.0227h2.14l2.77 9.9886h.13l2.83-9.9886h2.12l-3.99 13.0909h-1.98l-2.86-10.0568h-.21l-2.86 10.0568z"/><path d="m1005.71 85.9772c-.97 0-1.8-.125-2.5-.375-.7-.2443-1.28-.5681-1.75-.9716-.46-.3977-.83-.8238-1.1-1.2784l1.6-1.125c.19.2387.42.5114.69.8182.28.3125.66.5824 1.15.8097.48.2329 1.12.3494 1.91.3494 1.06 0 1.93-.2557 2.62-.767.69-.5114 1.03-1.3125 1.03-2.4034v-2.6591h-.17c-.15.2386-.36.5341-.63.8863-.27.3466-.65.6563-1.16.929-.5.2671-1.18.4006-2.03.4006-1.05 0-2-.25-2.84-.75s-1.5-1.2273-1.99-2.1818c-.48-.9546-.724-2.1137-.724-3.4773 0-1.3409.234-2.5085.704-3.5029.47-1 1.13-1.7727 1.97-2.3181.84-.5512 1.81-.8267 2.92-.8267.85 0 1.52.142 2.02.4261.51.2784.9.5966 1.16.9545.28.3523.49.6421.63.8694h.21v-2.0796h1.94v13.4659c0 1.125-.25 2.0398-.76 2.7443-.51.7103-1.19 1.2302-2.05 1.5597-.85.3352-1.8.5028-2.85.5028zm-.06-7.1931c.8 0 1.48-.1847 2.04-.554s.98-.9006 1.27-1.5938.44-1.5227.44-2.4886c0-.9432-.15-1.7756-.43-2.4972-.29-.7216-.71-1.2869-1.26-1.696-.56-.4091-1.25-.6136-2.06-.6136-.86 0-1.57.2159-2.14.6477-.56.4318-.98 1.0114-1.27 1.7386-.27.7273-.41 1.5341-.41 2.4205 0 .9091.14 1.7131.42 2.4119.29.6932.72 1.2387 1.28 1.6364.57.392 1.27.5881 2.12.5881z"/><path d="m988.402 72.9204v7.875h-2.012v-13.0909h1.943v2.0455h.171c.307-.6648.773-1.1989 1.398-1.6023.625-.4091 1.431-.6136 2.42-.6136.886 0 1.662.1818 2.327.5454.664.358 1.182.9034 1.551 1.6364.369.7272.554 1.6477.554 2.7613v8.3182h-2.012v-8.1818c0-1.0284-.267-1.8295-.801-2.4034-.534-.5796-1.267-.8693-2.199-.8693-.642 0-1.215.1392-1.721.4176-.5.2784-.895.6846-1.185 1.2187s-.434 1.1819-.434 1.9432z"/><path d="m980.695 80.7954v-13.0909h2.011v13.0909zm1.023-15.2727c-.392 0-.731-.1335-1.015-.4006-.278-.267-.417-.5881-.417-.9631s.139-.696.417-.963c.284-.2671.623-.4006 1.015-.4006s.727.1335 1.005.4006c.284.267.426.588.426.963s-.142.6961-.426.9631c-.278.2671-.613.4006-1.005.4006z"/><path d="m967.335 80.7954v-1.5341l7.432-9.5455v-.1363h-7.193v-1.875h9.784v1.6022l-7.227 9.4773v.1364h7.466v1.875z"/><path d="m958.039 81.1022c-.829 0-1.582-.1562-2.258-.4687-.676-.3182-1.213-.7756-1.611-1.3722-.398-.6022-.597-1.3295-.597-2.1818 0-.75.148-1.3579.444-1.8239.295-.4715.69-.8409 1.184-1.1079.495-.2671 1.04-.4659 1.637-.5966.602-.1364 1.207-.2443 1.815-.3239.795-.1022 1.44-.1789 1.935-.2301.5-.0568.863-.1505 1.091-.2812.233-.1307.349-.358.349-.6818v-.0682c0-.8409-.23-1.4943-.69-1.9603-.455-.4659-1.145-.6988-2.071-.6988-.961 0-1.713.2102-2.259.6307-.545.4204-.929.8693-1.15 1.3466l-1.91-.6819c.341-.7954.796-1.4147 1.364-1.8579.574-.4489 1.199-.7614 1.875-.9375.682-.1818 1.352-.2727 2.011-.2727.421 0 .904.0511 1.449.1534.551.0966 1.083.2983 1.594.6051.517.3068.946.7699 1.287 1.3892s.511 1.4488.511 2.4886v8.625h-2.011v-1.7727h-.102c-.137.2841-.364.5881-.682.9119-.318.3239-.742.5995-1.27.8267-.528.2273-1.173.3409-1.935.3409zm.307-1.8068c.796 0 1.466-.1562 2.012-.4687.551-.3125.965-.7159 1.244-1.2103.284-.4943.426-1.0142.426-1.5596v-1.8409c-.085.1022-.273.196-.563.2812-.284.0796-.613.1506-.988.2131-.369.0568-.73.1079-1.083.1534-.346.0398-.627.0739-.843.1023-.523.0682-1.012.179-1.466.3324-.449.1477-.813.3721-1.091.6733-.273.2954-.409.6988-.409 1.2102 0 .6988.258 1.2273.775 1.5852.523.3523 1.185.5284 1.986.5284z"/><path d="m933.328 80.7954v-13.0909h1.943v2.0455h.17c.273-.6989.713-1.2415 1.321-1.6279.608-.392 1.338-.588 2.191-.588.863 0 1.582.196 2.156.588.579.3864 1.031.929 1.355 1.6279h.136c.336-.6762.838-1.2131 1.509-1.6108.67-.4034 1.474-.6051 2.412-.6051 1.17 0 2.128.3664 2.872 1.0994.744.7273 1.116 1.8608 1.116 3.4006v8.7613h-2.011v-8.7613c0-.966-.264-1.6563-.792-2.0711-.529-.4147-1.151-.6221-1.867-.6221-.92 0-1.633.2784-2.139.8352-.506.5511-.759 1.25-.759 2.0966v8.5227h-2.045v-8.9659c0-.7443-.242-1.3437-.725-1.7983-.483-.4602-1.105-.6903-1.866-.6903-.523 0-1.011.1392-1.466.4176-.449.2784-.812.6648-1.091 1.1591-.273.4886-.409 1.054-.409 1.696v8.1818z"/><path d="m923.657 81.1022c-.83 0-1.583-.1562-2.259-.4687-.676-.3182-1.213-.7756-1.611-1.3722-.398-.6022-.596-1.3295-.596-2.1818 0-.75.147-1.3579.443-1.8239.295-.4715.69-.8409 1.184-1.1079.495-.2671 1.04-.4659 1.637-.5966.602-.1364 1.207-.2443 1.815-.3239.796-.1022 1.44-.1789 1.935-.2301.5-.0568.863-.1505 1.091-.2812.233-.1307.349-.358.349-.6818v-.0682c0-.8409-.23-1.4943-.69-1.9603-.455-.4659-1.145-.6988-2.071-.6988-.96 0-1.713.2102-2.259.6307-.545.4204-.929.8693-1.15 1.3466l-1.909-.6819c.341-.7954.795-1.4147 1.363-1.8579.574-.4489 1.199-.7614 1.875-.9375.682-.1818 1.353-.2727 2.012-.2727.42 0 .903.0511 1.448.1534.552.0966 1.083.2983 1.594.6051.517.3068.946.7699 1.287 1.3892s.512 1.4488.512 2.4886v8.625h-2.012v-1.7727h-.102c-.136.2841-.364.5881-.682.9119-.318.3239-.741.5995-1.27.8267-.528.2273-1.173.3409-1.934.3409zm.306-1.8068c.796 0 1.466-.1562 2.012-.4687.551-.3125.966-.7159 1.244-1.2103.284-.4943.426-1.0142.426-1.5596v-1.8409c-.085.1022-.273.196-.562.2812-.284.0796-.614.1506-.989.2131-.369.0568-.73.1079-1.082.1534-.347.0398-.628.0739-.844.1023-.523.0682-1.011.179-1.466.3324-.449.1477-.813.3721-1.091.6733-.273.2954-.409.6988-.409 1.2102 0 .6988.259 1.2273.776 1.5852.522.3523 1.184.5284 1.985.5284z"/><path d="m904.574 81.0681c-1.261 0-2.349-.2784-3.264-.8352-.909-.5625-1.611-1.3466-2.105-2.3523-.489-1.0113-.733-2.1875-.733-3.5284s.244-2.5227.733-3.5454c.494-1.0284 1.182-1.8296 2.062-2.4034.887-.5796 1.921-.8693 3.103-.8693.681 0 1.355.1136 2.019.3409.665.2272 1.27.5966 1.816 1.1079.545.5057.98 1.1762 1.304 2.0114s.486 1.8636.486 3.0852v.8523h-10.091v-1.7387h8.045c0-.7386-.148-1.3977-.443-1.9772-.29-.5796-.705-1.037-1.244-1.3722-.534-.3352-1.165-.5028-1.892-.5028-.802 0-1.495.1988-2.08.5966-.579.392-1.026.9034-1.338 1.5341-.313.6306-.469 1.3068-.469 2.0284v1.1591c0 .9886.171 1.8267.512 2.5142.346.6818.826 1.2017 1.44 1.5596.614.3523 1.327.5284 2.139.5284.529 0 1.006-.0738 1.432-.2216.432-.1534.804-.3806 1.116-.6818.313-.3068.554-.6875.725-1.142l1.943.5454c-.204.6591-.548 1.2387-1.031 1.7387-.483.4943-1.08.8806-1.79 1.1591-.71.2727-1.509.409-2.395.409z"/><path d="m896.201 67.7045v1.7045h-6.785v-1.7045zm-4.807-3.1364h2.011v12.4773c0 .5682.082.9943.247 1.2784.171.2784.387.4659.648.5625.267.0909.548.1364.844.1364.221 0 .403-.0114.545-.0341.142-.0284.256-.0512.341-.0682l.409 1.8068c-.136.0511-.326.1023-.571.1534-.244.0568-.554.0852-.929.0852-.568 0-1.125-.1221-1.67-.3664-.54-.2444-.989-.6165-1.347-1.1165-.352-.5-.528-1.1307-.528-1.8921z"/><path d="m880.836 81.1022c-.829 0-1.582-.1562-2.258-.4687-.676-.3182-1.213-.7756-1.611-1.3722-.398-.6022-.597-1.3295-.597-2.1818 0-.75.148-1.3579.444-1.8239.295-.4715.69-.8409 1.184-1.1079.494-.2671 1.04-.4659 1.636-.5966.603-.1364 1.208-.2443 1.816-.3239.795-.1022 1.44-.1789 1.934-.2301.5-.0568.864-.1505 1.091-.2812.233-.1307.35-.358.35-.6818v-.0682c0-.8409-.23-1.4943-.691-1.9603-.454-.4659-1.144-.6988-2.07-.6988-.961 0-1.714.2102-2.259.6307-.545.4204-.929.8693-1.151 1.3466l-1.909-.6819c.341-.7954.796-1.4147 1.364-1.8579.574-.4489 1.199-.7614 1.875-.9375.682-.1818 1.352-.2727 2.011-.2727.421 0 .904.0511 1.449.1534.551.0966 1.083.2983 1.594.6051.517.3068.946.7699 1.287 1.3892s.511 1.4488.511 2.4886v8.625h-2.011v-1.7727h-.102c-.137.2841-.364.5881-.682.9119-.318.3239-.742.5995-1.27.8267-.529.2273-1.173.3409-1.935.3409zm.307-1.8068c.795 0 1.466-.1562 2.011-.4687.552-.3125.966-.7159 1.245-1.2103.284-.4943.426-1.0142.426-1.5596v-1.8409c-.085.1022-.273.196-.563.2812-.284.0796-.613.1506-.988.2131-.37.0568-.73.1079-1.083.1534-.346.0398-.628.0739-.843.1023-.523.0682-1.012.179-1.466.3324-.449.1477-.813.3721-1.091.6733-.273.2954-.409.6988-.409 1.2102 0 .6988.258 1.2273.775 1.5852.523.3523 1.185.5284 1.986.5284z"/><path d="m868.504 81.0681c-1.262 0-2.35-.2784-3.264-.8352-.909-.5625-1.611-1.3466-2.106-2.3523-.488-1.0113-.732-2.1875-.732-3.5284s.244-2.5227.732-3.5454c.495-1.0284 1.182-1.8296 2.063-2.4034.886-.5796 1.92-.8693 3.102-.8693.682 0 1.355.1136 2.02.3409.665.2272 1.27.5966 1.815 1.1079.546.5057.981 1.1762 1.305 2.0114.323.8352.485 1.8636.485 3.0852v.8523h-10.091v-1.7387h8.046c0-.7386-.148-1.3977-.443-1.9772-.29-.5796-.705-1.037-1.245-1.3722-.534-.3352-1.164-.5028-1.892-.5028-.801 0-1.494.1988-2.079.5966-.58.392-1.026.9034-1.338 1.5341-.313.6306-.469 1.3068-.469 2.0284v1.1591c0 .9886.17 1.8267.511 2.5142.347.6818.827 1.2017 1.441 1.5596.613.3523 1.326.5284 2.139.5284.528 0 1.006-.0738 1.432-.2216.431-.1534.804-.3806 1.116-.6818.313-.3068.554-.6875.725-1.142l1.943.5454c-.205.6591-.549 1.2387-1.031 1.7387-.483.4943-1.08.8806-1.79 1.1591-.711.2727-1.509.409-2.395.409z"/><path d="m854.484 80.7955v-13.091h1.943v1.9773h.137c.238-.6477.67-1.1733 1.295-1.5767s1.329-.6051 2.114-.6051c.147 0 .332.0028.554.0085.221.0057.389.0142.502.0256v2.0454c-.068-.017-.224-.0426-.468-.0767-.239-.0397-.492-.0596-.759-.0596-.636 0-1.204.1335-1.704.4006-.495.2613-.887.625-1.177 1.0909-.284.4602-.426.9858-.426 1.5767v8.2841z"/><path d="m846.396 81.0681c-1.227 0-2.284-.2897-3.171-.8693-.886-.5795-1.568-1.3778-2.045-2.3949-.477-1.017-.716-2.1789-.716-3.4858 0-1.3295.244-2.5028.733-3.5198.494-1.0228 1.182-1.8211 2.062-2.3949.887-.5796 1.921-.8693 3.103-.8693.92 0 1.75.1704 2.488.5113.739.3409 1.344.8182 1.816 1.4318.471.6137.764 1.3296.878 2.1478h-2.012c-.153-.5966-.494-1.125-1.023-1.5853-.522-.4659-1.227-.6988-2.113-.6988-.784 0-1.472.2045-2.063.6136-.585.4034-1.042.9744-1.372 1.7131-.324.7329-.486 1.5937-.486 2.5824 0 1.0113.159 1.892.478 2.642.324.75.778 1.3324 1.363 1.7472.591.4147 1.284.6221 2.08.6221.523 0 .997-.0909 1.423-.2727s.787-.4432 1.083-.7841c.295-.3409.505-.75.63-1.2273h2.012c-.114.7728-.395 1.4688-.844 2.0881-.443.6136-1.031 1.1023-1.764 1.4659-.728.358-1.574.5369-2.54.5369z"/><path d="m825.326 81.0681c-1.182 0-2.219-.2812-3.111-.8437-.887-.5625-1.58-1.3494-2.08-2.3608-.494-1.0114-.741-2.1932-.741-3.5455 0-1.3636.247-2.5539.741-3.571.5-1.017 1.193-1.8068 2.08-2.3693.892-.5625 1.929-.8437 3.111-.8437 1.181 0 2.215.2812 3.102.8437.892.5625 1.585 1.3523 2.079 2.3693.5 1.0171.75 2.2074.75 3.571 0 1.3523-.25 2.5341-.75 3.5455-.494 1.0114-1.187 1.7983-2.079 2.3608-.887.5625-1.921.8437-3.102.8437zm0-1.8068c.897 0 1.636-.2301 2.215-.6903.58-.4602 1.009-1.0654 1.287-1.8154.279-.75.418-1.5625.418-2.4375s-.139-1.6903-.418-2.446c-.278-.7557-.707-1.3665-1.287-1.8324-.579-.4659-1.318-.6988-2.215-.6988-.898 0-1.637.2329-2.216.6988-.58.4659-1.009 1.0767-1.287 1.8324-.279.7557-.418 1.571-.418 2.446s.139 1.6875.418 2.4375c.278.75.707 1.3552 1.287 1.8154.579.4602 1.318.6903 2.216.6903z"/><path d="m817.122 67.7045v1.7045h-6.784v-1.7045zm-4.806-3.1364h2.011v12.4773c0 .5682.082.9943.247 1.2784.171.2784.387.4659.648.5625.267.0909.548.1364.844.1364.221 0 .403-.0114.545-.0341.142-.0284.256-.0512.341-.0682l.409 1.8068c-.136.0511-.327.1023-.571.1534-.244.0568-.554.0852-.929.0852-.568 0-1.125-.1221-1.67-.3664-.54-.2444-.989-.6165-1.347-1.1165-.352-.5-.528-1.1307-.528-1.8921z"/><path d="m792.615 85.7045c-.341 0-.645-.0284-.912-.0853-.267-.0511-.451-.1022-.554-.1534l.512-1.7727c.488.125.92.1705 1.295.1364s.708-.2017.997-.5029c.296-.2954.566-.7755.81-1.4403l.375-1.0227-4.841-13.1591h2.182l3.614 10.4318h.136l3.614-10.4318h2.181l-5.556 15c-.25.6761-.56 1.2358-.929 1.6789-.37.4489-.799.7813-1.287.9972-.483.2159-1.029.3239-1.637.3239z"/><path d="m788.054 70.6363-1.807.5114c-.114-.3011-.282-.5938-.503-.8778-.216-.2898-.511-.5285-.886-.716s-.856-.2812-1.441-.2812c-.801 0-1.469.1847-2.003.554-.528.3636-.792.8267-.792 1.3892 0 .5.182.8949.545 1.1846.364.2898.932.5313 1.705.7245l1.943.4772c1.17.2841 2.043.7188 2.616 1.304.574.5796.861 1.3267.861 2.2415 0 .75-.216 1.4204-.648 2.0114-.426.5909-1.022 1.0568-1.789 1.3977s-1.659.5113-2.676.5113c-1.336 0-2.441-.2897-3.316-.8693-.875-.5795-1.429-1.4261-1.662-2.5397l1.909-.4773c.182.7045.526 1.2329 1.032 1.5852.511.3523 1.179.5284 2.002.5284.938 0 1.682-.1988 2.233-.5966.557-.4034.836-.8863.836-1.4488 0-.4546-.159-.8353-.478-1.1421-.318-.3125-.806-.5454-1.466-.6988l-2.181-.5114c-1.199-.2841-2.08-.7244-2.642-1.321-.557-.6023-.836-1.3551-.836-2.2586 0-.7386.208-1.392.623-1.9602.42-.5682.991-1.0142 1.713-1.338.727-.3239 1.551-.4858 2.471-.4858 1.296 0 2.313.284 3.051.8522.745.5682 1.273 1.3182 1.586 2.25z"/><path d="m769.11 81.1022c-.83 0-1.583-.1562-2.259-.4687-.676-.3182-1.213-.7756-1.611-1.3722-.397-.6022-.596-1.3295-.596-2.1818 0-.75.147-1.3579.443-1.8239.295-.4715.69-.8409 1.185-1.1079.494-.2671 1.039-.4659 1.636-.5966.602-.1364 1.207-.2443 1.815-.3239.796-.1022 1.441-.1789 1.935-.2301.5-.0568.864-.1505 1.091-.2812.233-.1307.349-.358.349-.6818v-.0682c0-.8409-.23-1.4943-.69-1.9603-.455-.4659-1.145-.6988-2.071-.6988-.96 0-1.713.2102-2.259.6307-.545.4204-.929.8693-1.15 1.3466l-1.909-.6819c.341-.7954.795-1.4147 1.363-1.8579.574-.4489 1.199-.7614 1.875-.9375.682-.1818 1.353-.2727 2.012-.2727.42 0 .903.0511 1.449.1534.551.0966 1.082.2983 1.593.6051.517.3068.946.7699 1.287 1.3892s.512 1.4488.512 2.4886v8.625h-2.012v-1.7727h-.102c-.136.2841-.364.5881-.682.9119-.318.3239-.741.5995-1.27.8267-.528.2273-1.173.3409-1.934.3409zm.306-1.8068c.796 0 1.466-.1562 2.012-.4687.551-.3125.966-.7159 1.244-1.2103.284-.4943.426-1.0142.426-1.5596v-1.8409c-.085.1022-.272.196-.562.2812-.284.0796-.614.1506-.989.2131-.369.0568-.73.1079-1.082.1534-.347.0398-.628.0739-.844.1023-.523.0682-1.011.179-1.466.3324-.449.1477-.812.3721-1.091.6733-.273.2954-.409.6988-.409 1.2102 0 .6988.259 1.2273.776 1.5852.522.3523 1.184.5284 1.985.5284z"/><path d="m756.777 81.0681c-1.261 0-2.349-.2784-3.264-.8352-.909-.5625-1.611-1.3466-2.105-2.3523-.489-1.0113-.733-2.1875-.733-3.5284s.244-2.5227.733-3.5454c.494-1.0284 1.182-1.8296 2.062-2.4034.887-.5796 1.921-.8693 3.103-.8693.682 0 1.355.1136 2.02.3409.664.2272 1.27.5966 1.815 1.1079.545.5057.98 1.1762 1.304 2.0114s.486 1.8636.486 3.0852v.8523h-10.091v-1.7387h8.045c0-.7386-.147-1.3977-.443-1.9772-.29-.5796-.704-1.037-1.244-1.3722-.534-.3352-1.165-.5028-1.892-.5028-.801 0-1.495.1988-2.08.5966-.579.392-1.025.9034-1.338 1.5341-.312.6306-.469 1.3068-.469 2.0284v1.1591c0 .9886.171 1.8267.512 2.5142.346.6818.826 1.2017 1.44 1.5596.614.3523 1.327.5284 2.139.5284.529 0 1.006-.0738 1.432-.2216.432-.1534.804-.3806 1.117-.6818.312-.3068.554-.6875.724-1.142l1.943.5454c-.204.6591-.548 1.2387-1.031 1.7387-.483.4943-1.08.8806-1.79 1.1591-.71.2727-1.508.409-2.395.409z"/><path d="m741.513 67.7045v1.7045h-6.784v-1.7045zm-4.807-3.1364h2.012v12.4773c0 .5682.082.9943.247 1.2784.17.2784.386.4659.647.5625.268.0909.549.1364.844.1364.222 0 .404-.0114.546-.0341.142-.0284.255-.0512.341-.0682l.409 1.8068c-.137.0511-.327.1023-.571.1534-.245.0568-.554.0852-.929.0852-.568 0-1.125-.1221-1.671-.3664-.54-.2444-.988-.6165-1.346-1.1165-.353-.5-.529-1.1307-.529-1.8921z"/><path d="m730.125 80.7954v-13.0909h2.011v13.0909zm1.022-15.2727c-.392 0-.73-.1335-1.014-.4006-.278-.267-.418-.5881-.418-.9631s.14-.696.418-.963c.284-.2671.622-.4006 1.014-.4006s.728.1335 1.006.4006c.284.267.426.588.426.963s-.142.6961-.426.9631c-.278.2671-.614.4006-1.006.4006z"/><path d="m720.108 70.6363-1.807.5114c-.113-.3011-.281-.5938-.502-.8778-.216-.2898-.512-.5285-.887-.716s-.855-.2812-1.44-.2812c-.801 0-1.469.1847-2.003.554-.528.3636-.793.8267-.793 1.3892 0 .5.182.8949.546 1.1846.363.2898.932.5313 1.704.7245l1.944.4772c1.17.2841 2.042.7188 2.616 1.304.574.5796.861 1.3267.861 2.2415 0 .75-.216 1.4204-.648 2.0114-.426.5909-1.023 1.0568-1.79 1.3977s-1.659.5113-2.676.5113c-1.335 0-2.44-.2897-3.315-.8693-.875-.5795-1.429-1.4261-1.662-2.5397l1.909-.4773c.182.7045.526 1.2329 1.031 1.5852.512.3523 1.179.5284 2.003.5284.938 0 1.682-.1988 2.233-.5966.557-.4034.835-.8863.835-1.4488 0-.4546-.159-.8353-.477-1.1421-.318-.3125-.807-.5454-1.466-.6988l-2.182-.5114c-1.199-.2841-2.079-.7244-2.642-1.321-.557-.6023-.835-1.3551-.835-2.2586 0-.7386.207-1.392.622-1.9602.421-.5682.992-1.0142 1.713-1.338.728-.3239 1.551-.4858 2.472-.4858 1.295 0 2.312.284 3.051.8522.744.5682 1.273 1.3182 1.585 2.25z"/><path d="m702.355 81.0681c-1.261 0-2.349-.2784-3.264-.8352-.909-.5625-1.611-1.3466-2.105-2.3523-.489-1.0113-.733-2.1875-.733-3.5284s.244-2.5227.733-3.5454c.494-1.0284 1.182-1.8296 2.063-2.4034.886-.5796 1.92-.8693 3.102-.8693.682 0 1.355.1136 2.02.3409.665.2272 1.27.5966 1.815 1.1079.546.5057.98 1.1762 1.304 2.0114s.486 1.8636.486 3.0852v.8523h-10.091v-1.7387h8.045c0-.7386-.147-1.3977-.443-1.9772-.29-.5796-.704-1.037-1.244-1.3722-.534-.3352-1.165-.5028-1.892-.5028-.801 0-1.494.1988-2.08.5966-.579.392-1.025.9034-1.338 1.5341-.312.6306-.469 1.3068-.469 2.0284v1.1591c0 .9886.171 1.8267.512 2.5142.346.6818.827 1.2017 1.44 1.5596.614.3523 1.327.5284 2.139.5284.529 0 1.006-.0738 1.432-.2216.432-.1534.804-.3806 1.117-.6818.312-.3068.554-.6875.724-1.142l1.943.5454c-.204.6591-.548 1.2387-1.031 1.7387-.483.4943-1.079.8806-1.79 1.1591-.71.2727-1.508.409-2.395.409z"/><path d="m686.226 76.0226-.034-2.4886h.409l5.727-5.8295h2.489l-6.102 6.1704h-.171zm-1.875 4.7728v-17.4546h2.011v17.4546zm8.318 0-5.113-6.4773 1.431-1.3977 6.239 7.875z"/><path d="m674.68 81.1022c-.83 0-1.582-.1562-2.259-.4687-.676-.3182-1.213-.7756-1.61-1.3722-.398-.6022-.597-1.3295-.597-2.1818 0-.75.148-1.3579.443-1.8239.296-.4715.691-.8409 1.185-1.1079.494-.2671 1.04-.4659 1.636-.5966.603-.1364 1.208-.2443 1.816-.3239.795-.1022 1.44-.1789 1.934-.2301.5-.0568.864-.1505 1.091-.2812.233-.1307.35-.358.35-.6818v-.0682c0-.8409-.231-1.4943-.691-1.9603-.454-.4659-1.145-.6988-2.071-.6988-.96 0-1.713.2102-2.258.6307-.546.4204-.929.8693-1.151 1.3466l-1.909-.6819c.341-.7954.796-1.4147 1.364-1.8579.574-.4489 1.199-.7614 1.875-.9375.682-.1818 1.352-.2727 2.011-.2727.421 0 .903.0511 1.449.1534.551.0966 1.082.2983 1.594.6051.517.3068.946.7699 1.287 1.3892s.511 1.4488.511 2.4886v8.625h-2.011v-1.7727h-.103c-.136.2841-.363.5881-.681.9119-.319.3239-.742.5995-1.27.8267-.529.2273-1.174.3409-1.935.3409zm.307-1.8068c.795 0 1.466-.1562 2.011-.4687.551-.3125.966-.7159 1.244-1.2103.285-.4943.427-1.0142.427-1.5596v-1.8409c-.086.1022-.273.196-.563.2812-.284.0796-.614.1506-.989.2131-.369.0568-.73.1079-1.082.1534-.346.0398-.628.0739-.844.1023-.522.0682-1.011.179-1.466.3324-.448.1477-.812.3721-1.09.6733-.273.2954-.41.6988-.41 1.2102 0 .6988.259 1.2273.776 1.5852.523.3523 1.185.5284 1.986.5284z"/><path d="m649.968 80.7954v-13.0909h1.943v2.0455h.171c.273-.6989.713-1.2415 1.321-1.6279.608-.392 1.338-.588 2.19-.588.864 0 1.583.196 2.157.588.579.3864 1.031.929 1.355 1.6279h.136c.335-.6762.838-1.2131 1.509-1.6108.67-.4034 1.474-.6051 2.411-.6051 1.171 0 2.128.3664 2.873 1.0994.744.7273 1.116 1.8608 1.116 3.4006v8.7613h-2.011v-8.7613c0-.966-.264-1.6563-.793-2.0711-.528-.4147-1.15-.6221-1.866-.6221-.921 0-1.634.2784-2.14.8352-.505.5511-.758 1.25-.758 2.0966v8.5227h-2.046v-8.9659c0-.7443-.241-1.3437-.724-1.7983-.483-.4602-1.105-.6903-1.866-.6903-.523 0-1.012.1392-1.466.4176-.449.2784-.813.6648-1.091 1.1591-.273.4886-.409 1.054-.409 1.696v8.1818z"/><path d="m640.193 67.7045v1.7045h-6.784v-1.7045zm-4.807-3.1364h2.011v12.4773c0 .5682.083.9943.247 1.2784.171.2784.387.4659.648.5625.267.0909.548.1364.844.1364.222 0 .403-.0114.545-.0341.142-.0284.256-.0512.341-.0682l.409 1.8068c-.136.0511-.326.1023-.571.1534-.244.0568-.554.0852-.929.0852-.568 0-1.125-.1221-1.67-.3664-.54-.2444-.989-.6165-1.347-1.1165-.352-.5-.528-1.1307-.528-1.8921z"/><path d="m624.828 81.1022c-.829 0-1.582-.1562-2.258-.4687-.676-.3182-1.213-.7756-1.611-1.3722-.398-.6022-.597-1.3295-.597-2.1818 0-.75.148-1.3579.444-1.8239.295-.4715.69-.8409 1.184-1.1079.495-.2671 1.04-.4659 1.637-.5966.602-.1364 1.207-.2443 1.815-.3239.796-.1022 1.44-.1789 1.935-.2301.5-.0568.863-.1505 1.091-.2812.233-.1307.349-.358.349-.6818v-.0682c0-.8409-.23-1.4943-.69-1.9603-.455-.4659-1.145-.6988-2.071-.6988-.961 0-1.713.2102-2.259.6307-.545.4204-.929.8693-1.15 1.3466l-1.91-.6819c.341-.7954.796-1.4147 1.364-1.8579.574-.4489 1.199-.7614 1.875-.9375.682-.1818 1.352-.2727 2.011-.2727.421 0 .904.0511 1.449.1534.552.0966 1.083.2983 1.594.6051.517.3068.946.7699 1.287 1.3892s.511 1.4488.511 2.4886v8.625h-2.011v-1.7727h-.102c-.137.2841-.364.5881-.682.9119-.318.3239-.742.5995-1.27.8267-.528.2273-1.173.3409-1.935.3409zm.307-1.8068c.796 0 1.466-.1562 2.012-.4687.551-.3125.965-.7159 1.244-1.2103.284-.4943.426-1.0142.426-1.5596v-1.8409c-.085.1022-.273.196-.562.2812-.285.0796-.614.1506-.989.2131-.369.0568-.73.1079-1.082.1534-.347.0398-.628.0739-.844.1023-.523.0682-1.012.179-1.466.3324-.449.1477-.813.3721-1.091.6733-.273.2954-.409.6988-.409 1.2102 0 .6988.258 1.2273.775 1.5852.523.3523 1.185.5284 1.986.5284z"/><path d="m608.808 72.9204v7.875h-2.012v-17.4546h2.012v6.4091h.17c.307-.6761.767-1.2131 1.381-1.6108.619-.4034 1.443-.6051 2.472-.6051.892 0 1.673.179 2.343.5369.671.3523 1.191.8949 1.56 1.6279.375.7272.562 1.6534.562 2.7784v8.3182h-2.011v-8.1819c0-1.0397-.27-1.8437-.81-2.4119-.534-.5738-1.275-.8608-2.224-.8608-.659 0-1.25.1392-1.773.4176-.517.2784-.926.6847-1.227 1.2188-.295.5341-.443 1.1818-.443 1.9432z"/><path d="m603.49 67.7045v1.7045h-6.784v-1.7045zm-4.807-3.1364h2.011v12.4773c0 .5682.083.9943.247 1.2784.171.2784.387.4659.648.5625.267.0909.548.1364.844.1364.221 0 .403-.0114.545-.0341.142-.0284.256-.0512.341-.0682l.409 1.8068c-.136.0511-.326.1023-.571.1534-.244.0568-.554.0852-.929.0852-.568 0-1.125-.1221-1.67-.3664-.54-.2444-.989-.6165-1.347-1.1165-.352-.5-.528-1.1307-.528-1.8921z"/><path d="m587.362 63.3408v17.4546h-2.011v-17.4546z"/><path d="m576.349 81.0681c-1.182 0-2.219-.2812-3.111-.8437-.886-.5625-1.579-1.3494-2.079-2.3608-.495-1.0114-.742-2.1932-.742-3.5455 0-1.3636.247-2.5539.742-3.571.5-1.017 1.193-1.8068 2.079-2.3693.892-.5625 1.929-.8437 3.111-.8437s2.216.2812 3.102.8437c.892.5625 1.586 1.3523 2.08 2.3693.5 1.0171.75 2.2074.75 3.571 0 1.3523-.25 2.5341-.75 3.5455-.494 1.0114-1.188 1.7983-2.08 2.3608-.886.5625-1.92.8437-3.102.8437zm0-1.8068c.898 0 1.636-.2301 2.216-.6903.579-.4602 1.008-1.0654 1.287-1.8154.278-.75.417-1.5625.417-2.4375s-.139-1.6903-.417-2.446c-.279-.7557-.708-1.3665-1.287-1.8324-.58-.4659-1.318-.6988-2.216-.6988s-1.636.2329-2.216.6988c-.579.4659-1.008 1.0767-1.287 1.8324-.278.7557-.417 1.571-.417 2.446s.139 1.6875.417 2.4375c.279.75.708 1.3552 1.287 1.8154.58.4602 1.318.6903 2.216.6903z"/><path d="m562.029 81.0681c-1.182 0-2.219-.2812-3.111-.8437-.886-.5625-1.58-1.3494-2.08-2.3608-.494-1.0114-.741-2.1932-.741-3.5455 0-1.3636.247-2.5539.741-3.571.5-1.017 1.194-1.8068 2.08-2.3693.892-.5625 1.929-.8437 3.111-.8437s2.216.2812 3.102.8437c.892.5625 1.585 1.3523 2.08 2.3693.5 1.0171.75 2.2074.75 3.571 0 1.3523-.25 2.5341-.75 3.5455-.495 1.0114-1.188 1.7983-2.08 2.3608-.886.5625-1.92.8437-3.102.8437zm0-1.8068c.897 0 1.636-.2301 2.216-.6903.579-.4602 1.008-1.0654 1.287-1.8154.278-.75.417-1.5625.417-2.4375s-.139-1.6903-.417-2.446c-.279-.7557-.708-1.3665-1.287-1.8324-.58-.4659-1.319-.6988-2.216-.6988-.898 0-1.637.2329-2.216.6988-.58.4659-1.009 1.0767-1.287 1.8324-.279.7557-.418 1.571-.418 2.446s.139 1.6875.418 2.4375c.278.75.707 1.3552 1.287 1.8154.579.4602 1.318.6903 2.216.6903z"/><path d="m553.826 67.7045v1.7045h-6.785v-1.7045zm-4.807-3.1364h2.011v12.4773c0 .5682.083.9943.247 1.2784.171.2784.387.4659.648.5625.267.0909.548.1364.844.1364.221 0 .403-.0114.545-.0341.142-.0284.256-.0512.341-.0682l.409 1.8068c-.136.0511-.327.1023-.571.1534-.244.0568-.554.0852-.929.0852-.568 0-1.125-.1221-1.67-.3664-.54-.2444-.989-.6165-1.347-1.1165-.352-.5-.528-1.1307-.528-1.8921z"/><path d="m537.417 63.3408v17.4546h-2.113v-17.4546z"/><path d="m521.804 80.7954v-17.4546h2.113v15.5796h8.114v1.875z"/><path d="m518.388 68.7954h-2.114c-.125-.608-.343-1.1421-.656-1.6023-.307-.4602-.682-.8466-1.125-1.1591-.437-.3182-.923-.5568-1.457-.7159s-1.091-.2387-1.671-.2387c-1.056 0-2.014.2671-2.872.8012-.852.5341-1.531 1.321-2.037 2.3608-.5 1.0398-.75 2.3153-.75 3.8267 0 1.5113.25 2.7869.75 3.8267.506 1.0398 1.185 1.8267 2.037 2.3608.858.5341 1.816.8011 2.872.8011.58 0 1.137-.0795 1.671-.2386s1.02-.3949 1.457-.7074c.443-.3182.818-.7074 1.125-1.1676.313-.4659.531-1 .656-1.6023h2.114c-.159.8921-.449 1.6903-.869 2.3949-.421.7045-.943 1.304-1.568 1.7983-.625.4886-1.327.8608-2.106 1.1165-.772.2557-1.599.3835-2.48.3835-1.488 0-2.812-.3636-3.971-1.0909s-2.071-1.7614-2.736-3.1023-.997-2.9318-.997-4.7727.332-3.4318.997-4.7727c.665-1.341 1.577-2.375 2.736-3.1023s2.483-1.0909 3.971-1.0909c.881 0 1.708.1278 2.48.3835.779.2557 1.481.6307 2.106 1.125.625.4886 1.147 1.0852 1.568 1.7898.42.6988.71 1.4971.869 2.3949z"/><path d="m485.292 72.9204v7.875h-2.011v-13.0909h1.943v2.0455h.17c.307-.6648.773-1.1989 1.398-1.6023.625-.4091 1.432-.6136 2.421-.6136.886 0 1.662.1818 2.326.5454.665.358 1.182.9034 1.551 1.6364.37.7272.554 1.6477.554 2.7613v8.3182h-2.011v-8.1818c0-1.0284-.267-1.8295-.801-2.4034-.534-.5796-1.267-.8693-2.199-.8693-.642 0-1.216.1392-1.722.4176-.5.2784-.894.6846-1.184 1.2187s-.435 1.1819-.435 1.9432z"/><path d="m474.279 81.0681c-1.182 0-2.219-.2812-3.111-.8437-.886-.5625-1.58-1.3494-2.08-2.3608-.494-1.0114-.741-2.1932-.741-3.5455 0-1.3636.247-2.5539.741-3.571.5-1.017 1.194-1.8068 2.08-2.3693.892-.5625 1.929-.8437 3.111-.8437s2.216.2812 3.102.8437c.892.5625 1.585 1.3523 2.08 2.3693.5 1.0171.75 2.2074.75 3.571 0 1.3523-.25 2.5341-.75 3.5455-.495 1.0114-1.188 1.7983-2.08 2.3608-.886.5625-1.92.8437-3.102.8437zm0-1.8068c.897 0 1.636-.2301 2.216-.6903.579-.4602 1.008-1.0654 1.287-1.8154.278-.75.417-1.5625.417-2.4375s-.139-1.6903-.417-2.446c-.279-.7557-.708-1.3665-1.287-1.8324-.58-.4659-1.319-.6988-2.216-.6988-.898 0-1.637.2329-2.216.6988-.58.4659-1.009 1.0767-1.287 1.8324-.279.7557-.418 1.571-.418 2.446s.139 1.6875.418 2.4375c.278.75.707 1.3552 1.287 1.8154.579.4602 1.318.6903 2.216.6903z"/><path d="m463.265 80.7954v-13.0909h2.012v13.0909zm1.023-15.2727c-.392 0-.73-.1335-1.014-.4006-.279-.267-.418-.5881-.418-.9631s.139-.696.418-.963c.284-.2671.622-.4006 1.014-.4006s.727.1335 1.006.4006c.284.267.426.588.426.963s-.142.6961-.426.9631c-.279.2671-.614.4006-1.006.4006z"/><path d="m460.24 67.7045v1.7045h-6.784v-1.7045zm-4.807-3.1364h2.011v12.4773c0 .5682.083.9943.247 1.2784.171.2784.387.4659.648.5625.267.0909.548.1364.844.1364.221 0 .403-.0114.545-.0341.142-.0284.256-.0512.341-.0682l.409 1.8068c-.136.0511-.326.1023-.571.1534-.244.0568-.554.0852-.929.0852-.568 0-1.125-.1221-1.67-.3664-.54-.2444-.989-.6165-1.347-1.1165-.352-.5-.528-1.1307-.528-1.8921z"/><path d="m444.875 81.1022c-.829 0-1.582-.1562-2.258-.4687-.676-.3182-1.213-.7756-1.611-1.3722-.398-.6022-.597-1.3295-.597-2.1818 0-.75.148-1.3579.444-1.8239.295-.4715.69-.8409 1.184-1.1079.495-.2671 1.04-.4659 1.637-.5966.602-.1364 1.207-.2443 1.815-.3239.795-.1022 1.44-.1789 1.935-.2301.5-.0568.863-.1505 1.09-.2812.233-.1307.35-.358.35-.6818v-.0682c0-.8409-.23-1.4943-.69-1.9603-.455-.4659-1.145-.6988-2.071-.6988-.961 0-1.714.2102-2.259.6307-.545.4204-.929.8693-1.151 1.3466l-1.909-.6819c.341-.7954.796-1.4147 1.364-1.8579.574-.4489 1.199-.7614 1.875-.9375.682-.1818 1.352-.2727 2.011-.2727.421 0 .904.0511 1.449.1534.551.0966 1.083.2983 1.594.6051.517.3068.946.7699 1.287 1.3892s.511 1.4488.511 2.4886v8.625h-2.011v-1.7727h-.102c-.137.2841-.364.5881-.682.9119-.318.3239-.742.5995-1.27.8267-.528.2273-1.173.3409-1.935.3409zm.307-1.8068c.796 0 1.466-.1562 2.011-.4687.552-.3125.966-.7159 1.245-1.2103.284-.4943.426-1.0142.426-1.5596v-1.8409c-.085.1022-.273.196-.563.2812-.284.0796-.613.1506-.988.2131-.37.0568-.73.1079-1.083.1534-.346.0398-.627.0739-.843.1023-.523.0682-1.012.179-1.466.3324-.449.1477-.813.3721-1.091.6733-.273.2954-.409.6988-.409 1.2102 0 .6988.258 1.2273.775 1.5852.523.3523 1.185.5284 1.986.5284z"/><path d="m432.093 80.7955v-13.091h1.943v1.9773h.137c.239-.6477.67-1.1733 1.295-1.5767s1.33-.6051 2.114-.6051c.148 0 .332.0028.554.0085s.389.0142.503.0256v2.0454c-.068-.017-.225-.0426-.469-.0767-.239-.0397-.491-.0596-.759-.0596-.636 0-1.204.1335-1.704.4006-.494.2613-.886.625-1.176 1.0909-.284.4602-.426.9858-.426 1.5767v8.2841z"/><path d="m423.613 81.0681c-1.261 0-2.349-.2784-3.264-.8352-.909-.5625-1.611-1.3466-2.105-2.3523-.489-1.0113-.733-2.1875-.733-3.5284s.244-2.5227.733-3.5454c.494-1.0284 1.182-1.8296 2.062-2.4034.887-.5796 1.921-.8693 3.103-.8693.681 0 1.355.1136 2.02.3409.664.2272 1.269.5966 1.815 1.1079.545.5057.98 1.1762 1.304 2.0114s.486 1.8636.486 3.0852v.8523h-10.091v-1.7387h8.045c0-.7386-.148-1.3977-.443-1.9772-.29-.5796-.705-1.037-1.244-1.3722-.534-.3352-1.165-.5028-1.892-.5028-.801 0-1.495.1988-2.08.5966-.579.392-1.025.9034-1.338 1.5341-.312.6306-.469 1.3068-.469 2.0284v1.1591c0 .9886.171 1.8267.512 2.5142.346.6818.826 1.2017 1.44 1.5596.614.3523 1.327.5284 2.139.5284.529 0 1.006-.0738 1.432-.2216.432-.1534.804-.3806 1.116-.6818.313-.3068.554-.6875.725-1.142l1.943.5454c-.204.6591-.548 1.2387-1.031 1.7387-.483.4943-1.08.8806-1.79 1.1591-.71.2727-1.508.409-2.395.409z"/><path d="m406.097 72.9204v7.875h-2.011v-13.0909h1.943v2.0455h.17c.307-.6648.773-1.1989 1.398-1.6023.625-.4091 1.432-.6136 2.42-.6136.887 0 1.662.1818 2.327.5454.665.358 1.182.9034 1.551 1.6364.369.7272.554 1.6477.554 2.7613v8.3182h-2.011v-8.1818c0-1.0284-.267-1.8295-.801-2.4034-.534-.5796-1.267-.8693-2.199-.8693-.642 0-1.216.1392-1.722.4176-.5.2784-.895.6846-1.184 1.2187-.29.5341-.435 1.1819-.435 1.9432z"/><path d="m395.605 81.0681c-1.261 0-2.349-.2784-3.264-.8352-.909-.5625-1.611-1.3466-2.105-2.3523-.489-1.0113-.733-2.1875-.733-3.5284s.244-2.5227.733-3.5454c.494-1.0284 1.182-1.8296 2.063-2.4034.886-.5796 1.92-.8693 3.102-.8693.682 0 1.355.1136 2.02.3409.665.2272 1.27.5966 1.815 1.1079.546.5057.98 1.1762 1.304 2.0114s.486 1.8636.486 3.0852v.8523h-10.091v-1.7387h8.045c0-.7386-.147-1.3977-.443-1.9772-.29-.5796-.704-1.037-1.244-1.3722-.534-.3352-1.165-.5028-1.892-.5028-.801 0-1.494.1988-2.08.5966-.579.392-1.025.9034-1.338 1.5341-.312.6306-.469 1.3068-.469 2.0284v1.1591c0 .9886.171 1.8267.512 2.5142.346.6818.827 1.2017 1.44 1.5596.614.3523 1.327.5284 2.139.5284.529 0 1.006-.0738 1.432-.2216.432-.1534.804-.3806 1.117-.6818.312-.3068.554-.6875.724-1.142l1.943.5454c-.204.6591-.548 1.2387-1.031 1.7387-.483.4943-1.079.8806-1.79 1.1591-.71.2727-1.508.409-2.395.409z"/><path d="m380.776 85.9772c-.972 0-1.807-.125-2.506-.375-.699-.2443-1.281-.5681-1.747-.9716-.46-.3977-.827-.8238-1.099-1.2784l1.602-1.125c.182.2387.412.5114.69.8182.279.3125.659.5824 1.142.8097.489.2329 1.128.3494 1.918.3494 1.057 0 1.929-.2557 2.616-.767.688-.5114 1.032-1.3125 1.032-2.4034v-2.6591h-.171c-.148.2386-.358.5341-.631.8863-.267.3466-.653.6563-1.159.929-.5.2671-1.176.4006-2.028.4006-1.057 0-2.006-.25-2.847-.75-.835-.5-1.497-1.2273-1.985-2.1818-.483-.9546-.725-2.1137-.725-3.4773 0-1.3409.236-2.5085.708-3.5029.471-1 1.127-1.7727 1.968-2.3181.841-.5512 1.813-.8267 2.915-.8267.852 0 1.528.142 2.028.4261.506.2784.892.5966 1.16.9545.272.3523.482.6421.63.8694h.205v-2.0796h1.943v13.4659c0 1.125-.256 2.0398-.767 2.7443-.506.7103-1.188 1.2302-2.046 1.5597-.852.3352-1.801.5028-2.846.5028zm-.068-7.1931c.806 0 1.488-.1847 2.045-.554s.98-.9006 1.27-1.5938.435-1.5227.435-2.4886c0-.9432-.142-1.7756-.426-2.4972-.285-.7216-.705-1.2869-1.262-1.696s-1.244-.6136-2.062-.6136c-.853 0-1.563.2159-2.131.6477-.563.4318-.986 1.0114-1.27 1.7386-.278.7273-.418 1.5341-.418 2.4205 0 .9091.143 1.7131.427 2.4119.289.6932.716 1.2387 1.278 1.6364.568.392 1.273.5881 2.114.5881z"/><path d="m371.953 72.375v1.875h-7.637v-1.875z"/><path d="m361.896 67.7045v1.7045h-6.784v-1.7045zm-4.807-3.1364h2.011v12.4773c0 .5682.083.9943.248 1.2784.17.2784.386.4659.647.5625.267.0909.549.1364.844.1364.222 0 .403-.0114.546-.0341.142-.0284.255-.0512.34-.0682l.41 1.8068c-.137.0511-.327.1023-.572.1534-.244.0568-.553.0852-.928.0852-.569 0-1.125-.1221-1.671-.3664-.54-.2444-.989-.6165-1.347-1.1165-.352-.5-.528-1.1307-.528-1.8921z"/><path d="m344.742 67.7045 3.136 5.3522 3.136-5.3522h2.319l-4.228 6.5454 4.228 6.5455h-2.319l-3.136-5.0796-3.136 5.0796h-2.318l4.159-6.5455-4.159-6.5454z"/><path d="m335.113 81.0681c-1.261 0-2.349-.2784-3.264-.8352-.909-.5625-1.611-1.3466-2.105-2.3523-.489-1.0113-.733-2.1875-.733-3.5284s.244-2.5227.733-3.5454c.494-1.0284 1.182-1.8296 2.062-2.4034.887-.5796 1.921-.8693 3.103-.8693.681 0 1.355.1136 2.02.3409.664.2272 1.269.5966 1.815 1.1079.545.5057.98 1.1762 1.304 2.0114s.486 1.8636.486 3.0852v.8523h-10.091v-1.7387h8.045c0-.7386-.148-1.3977-.443-1.9772-.29-.5796-.705-1.037-1.244-1.3722-.534-.3352-1.165-.5028-1.892-.5028-.801 0-1.495.1988-2.08.5966-.579.392-1.025.9034-1.338 1.5341-.312.6306-.469 1.3068-.469 2.0284v1.1591c0 .9886.171 1.8267.512 2.5142.346.6818.826 1.2017 1.44 1.5596.614.3523 1.327.5284 2.139.5284.529 0 1.006-.0738 1.432-.2216.432-.1534.804-.3806 1.116-.6818.313-.3068.554-.6875.725-1.142l1.943.5454c-.204.6591-.548 1.2387-1.031 1.7387-.483.4943-1.08.8806-1.79 1.1591-.71.2727-1.508.409-2.395.409z"/><path d="m317.597 72.9204v7.875h-2.011v-13.0909h1.943v2.0455h.17c.307-.6648.773-1.1989 1.398-1.6023.625-.4091 1.432-.6136 2.42-.6136.887 0 1.662.1818 2.327.5454.665.358 1.182.9034 1.551 1.6364.369.7272.554 1.6477.554 2.7613v8.3182h-2.011v-8.1818c0-1.0284-.267-1.8295-.801-2.4034-.534-.5796-1.267-.8693-2.199-.8693-.642 0-1.216.1392-1.722.4176-.5.2784-.895.6846-1.184 1.2187-.29.5341-.435 1.1819-.435 1.9432z"/><path d="m293.605 80.7954h-2.216l6.41-17.4546h2.181l6.409 17.4546h-2.215l-5.216-14.6932h-.137zm.819-6.8182h8.931v1.875h-8.931z"/></g></svg>