<svg fill="none" height="140" viewBox="0 0 683 140" width="683" xmlns="http://www.w3.org/2000/svg" xmlns:xlink="http://www.w3.org/1999/xlink"><linearGradient id="a" gradientUnits="userSpaceOnUse" x1="93.6248" x2="56.8631" y1="117.284" y2="16.2823"><stop offset="0" stop-color="#ff4c0d"/><stop offset="1" stop-color="#fc9502"/></linearGradient><rect height="138" rx="25" stroke="#539bf5" stroke-width="2" width="680.561" x="1" y="1"/><path clip-rule="evenodd" d="m117.151 68.2357c6.405 20.1396-3.899 41.8203-23.6083 48.9943-20.2316 7.363-42.9081-3.91-50.1937-23.9268-.9738-2.6755-2.9672-8.0055-2.3066-18.4626.3954-6.2582.6414-10.1889.3484-13.5935-.1611-1.8711-.2537-4.9033 3.8971-1.4184 2.4474 2.0548 3.8671 5.7747 3.8671 5.7747s3.9975-6.3905 4.7363-16.0883c1.0831-14.2168-5.9812-19.9083-9.3344-24.4336-1.1603-1.5654-2.6357-4.6006 1.4295-4.5603 4.1424.0414 16.2744 3.3946 23.9427 8.7922 10.9442 7.7035 17.1004 16.6693 17.1004 16.6693s1.2441-3.7432.9536-7.0804c-.3279-3.7685-1.5518-7.1736 2.7426-4.5889 4.0841 2.4579 10.6493 7.4809 15.2683 12.8467 8.388 9.7445 11.157 21.0756 11.157 21.0756z" fill="url(#a)" fill-rule="evenodd"/><path clip-rule="evenodd" d="m93.5407 117.231c-13.9901 5.092-29.5293-2.315-34.7084-16.545-3.1251-8.5858-1.6206-15.0367 2.8863-24.6826 2.8856-6.1761 5.105-13.2795 5.5303-17.7212.0838-.8744-.5217-5.0518 4.2481-1.6387 2.502 1.7899 6.6071 5.0984 9.567 8.1199 5.1028 5.2095 7.9797 11.0111 7.9797 11.0111s2.1698-2.6732 2.5124-7.6477c.1107-1.6033-.5518-7.2795 4.8142-3.3162 3.9377 2.9086 9.9387 8.5306 13.1237 17.4362 5.179 14.2295-1.964 29.8922-15.9533 34.9842z" fill="#fc9502" fill-rule="evenodd"/><path clip-rule="evenodd" d="m83.6785 88.9432c3.6048-1.312 6.076 5.4776 13.9546 12.8768 5.2459 4.926 2.9609 12.838-3.7114 15.266-6.6722 2.429-12.1347-1.813-14.6047-8.6-2.4699-6.786.7567-18.2307 4.3615-19.5428z" fill="#fce202" fill-rule="evenodd"/><g fill="#539bf5"><path d="m607.005 69.8182c-2.523 0-4.699-.5568-6.528-1.6705-1.819-1.125-3.222-2.6932-4.211-4.7045-.977-2.0227-1.466-4.375-1.466-7.0568 0-2.6819.489-5.0455 1.466-7.0909.989-2.0569 2.364-3.6591 4.125-4.8069 1.773-1.1591 3.841-1.7386 6.205-1.7386 1.364 0 2.71.2273 4.04.6818 1.329.4546 2.539 1.1932 3.63 2.2159 1.091 1.0114 1.961 2.3523 2.608 4.0228.648 1.6704.972 3.7272.972 6.1704v1.7046h-20.182v-3.4773h16.091c0-1.4773-.295-2.7955-.886-3.9546-.58-1.1591-1.409-2.0738-2.489-2.7443-1.068-.6704-2.33-1.0057-3.784-1.0057-1.602 0-2.989.3978-4.159 1.1932-1.159.7841-2.051 1.8068-2.676 3.0682s-.938 2.6136-.938 4.0568v2.3182c0 1.9773.341 3.6534 1.023 5.0284.693 1.3636 1.653 2.4034 2.881 3.1193 1.227.7046 2.653 1.0568 4.278 1.0568 1.057 0 2.011-.1477 2.864-.4431.863-.3069 1.608-.7614 2.233-1.3637.625-.6136 1.108-1.375 1.448-2.2841l3.887 1.0909c-.409 1.3182-1.097 2.4773-2.063 3.4773-.966.9887-2.159 1.7614-3.579 2.3182-1.421.5455-3.017.8182-4.79.8182z"/><path d="m576.102 69.8181c-2.182 0-4.108-.5512-5.779-1.6534-1.67-1.1137-2.977-2.6819-3.92-4.7046-.943-2.0341-1.415-4.4375-1.415-7.2102 0-2.75.472-5.1364 1.415-7.1591s2.255-3.5852 3.937-4.6875 3.625-1.6534 5.83-1.6534c1.704 0 3.051.2841 4.04.8523 1 .5568 1.761 1.1931 2.284 1.9091.534.7045.949 1.284 1.244 1.7386h.341v-12.8864h4.023v34.9091h-3.887v-4.0227h-.477c-.295.4773-.716 1.0795-1.261 1.8068-.546.7159-1.324 1.358-2.336 1.9261-1.011.5569-2.358.8353-4.039.8353zm.545-3.6137c1.614 0 2.977-.4204 4.091-1.2613 1.114-.8523 1.96-2.0284 2.54-3.5284.579-1.5114.869-3.2557.869-5.233 0-1.9545-.284-3.6648-.852-5.1307-.568-1.4772-1.409-2.625-2.523-3.4432-1.114-.8295-2.489-1.2443-4.125-1.2443-1.704 0-3.125.4375-4.261 1.3125-1.125.8637-1.972 2.0398-2.54 3.5284-.557 1.4773-.835 3.1364-.835 4.9773 0 1.8636.284 3.5568.852 5.0796.58 1.5113 1.432 2.7159 2.557 3.6136 1.136.8864 2.545 1.3295 4.227 1.3295z"/><path d="m554.825 69.2727v-26.1818h4.022v26.1818zm2.045-30.5454c-.784 0-1.46-.2671-2.028-.8012-.557-.5341-.836-1.1761-.836-1.9261s.279-1.3921.836-1.9262c.568-.534 1.244-.8011 2.028-.8011s1.455.2671 2.011.8011c.569.5341.853 1.1762.853 1.9262s-.284 1.392-.853 1.9261c-.556.5341-1.227.8012-2.011.8012z"/><path d="m543.434 58.5681v-15.4773h4.023v26.1818h-4.023v-4.4318h-.273c-.613 1.3296-1.568 2.4603-2.863 3.3921-1.296.9204-2.932 1.3806-4.91 1.3806-1.636 0-3.09-.3579-4.363-1.0738-1.273-.7273-2.273-1.8182-3-3.2727-.727-1.466-1.091-3.3125-1.091-5.5398v-16.6364h4.023v16.3637c0 1.909.534 3.4318 1.602 4.5681 1.08 1.1364 2.455 1.7046 4.125 1.7046 1 0 2.017-.2557 3.051-.7671 1.046-.5113 1.921-1.2954 2.625-2.3522.716-1.0568 1.074-2.4034 1.074-4.0398z"/><path d="m508.252 79.6364c-1.943 0-3.613-.25-5.011-.75-1.398-.4887-2.563-1.1364-3.495-1.9432-.92-.7955-1.653-1.6477-2.198-2.5568l3.204-2.25c.364.4772.824 1.0227 1.381 1.6363.557.625 1.318 1.1648 2.284 1.6193.977.466 2.256.6989 3.835.6989 2.114 0 3.858-.5114 5.233-1.5341s2.063-2.625 2.063-4.8068v-5.3182h-.341c-.296.4773-.716 1.0682-1.262 1.7727-.534.6932-1.306 1.3125-2.318 1.858-1 .5341-2.352.8011-4.057.8011-2.113 0-4.011-.5-5.693-1.5-1.67-1-2.994-2.4545-3.971-4.3636-.966-1.9091-1.449-4.2273-1.449-6.9545 0-2.6819.471-5.0171 1.414-7.0057.944-2 2.256-3.5455 3.938-4.6364 1.682-1.1023 3.625-1.6534 5.83-1.6534 1.704 0 3.056.2841 4.056.8523 1.012.5568 1.784 1.1932 2.319 1.9091.545.7045.965 1.2841 1.261 1.7386h.409v-4.1591h3.886v26.9318c0 2.25-.511 4.0796-1.534 5.4887-1.011 1.4204-2.375 2.4602-4.091 3.1193-1.704.6704-3.602 1.0057-5.693 1.0057zm-.136-14.3864c1.613 0 2.977-.3693 4.091-1.108 1.113-.7386 1.96-1.8011 2.539-3.1875.58-1.3863.87-3.0454.87-4.9772 0-1.8864-.284-3.5512-.852-4.9943-.569-1.4432-1.41-2.5739-2.523-3.3921-1.114-.8182-2.489-1.2273-4.125-1.2273-1.705 0-3.125.4319-4.262 1.2955-1.125.8636-1.971 2.0227-2.539 3.4773-.557 1.4545-.836 3.0681-.836 4.8409 0 1.8182.285 3.4261.853 4.8238.579 1.3864 1.432 2.4773 2.557 3.2728 1.136.7841 2.545 1.1761 4.227 1.1761z"/><path d="m466.325 69.2728v-26.1818h3.886v3.9545h.273c.477-1.2954 1.341-2.3466 2.591-3.1534s2.659-1.2102 4.227-1.2102c.295 0 .665.0057 1.108.017.443.0114.778.0284 1.005.0512v4.0909c-.136-.0341-.448-.0852-.937-.1534-.477-.0796-.983-.1193-1.517-.1193-1.273 0-2.409.267-3.409.8011-.989.5227-1.773 1.25-2.352 2.1818-.569.9205-.853 1.9716-.853 3.1534v16.5682z"/><path d="m449.364 69.8182c-2.522 0-4.698-.5568-6.528-1.6705-1.818-1.125-3.222-2.6932-4.21-4.7045-.978-2.0227-1.466-4.375-1.466-7.0568 0-2.6819.488-5.0455 1.466-7.0909.988-2.0569 2.363-3.6591 4.125-4.8069 1.772-1.1591 3.841-1.7386 6.204-1.7386 1.364 0 2.711.2273 4.04.6818 1.33.4546 2.54 1.1932 3.631 2.2159 1.091 1.0114 1.96 2.3523 2.608 4.0228.647 1.6704.971 3.7272.971 6.1704v1.7046h-20.182v-3.4773h16.091c0-1.4773-.295-2.7955-.886-3.9546-.58-1.1591-1.409-2.0738-2.489-2.7443-1.068-.6704-2.329-1.0057-3.784-1.0057-1.602 0-2.988.3978-4.159 1.1932-1.159.7841-2.051 1.8068-2.676 3.0682s-.937 2.6136-.937 4.0568v2.3182c0 1.9773.34 3.6534 1.022 5.0284.693 1.3636 1.654 2.4034 2.881 3.1193 1.227.7046 2.653 1.0568 4.278 1.0568 1.057 0 2.012-.1477 2.864-.4431.864-.3069 1.608-.7614 2.233-1.3637.625-.6136 1.108-1.375 1.449-2.2841l3.886 1.0909c-.409 1.3182-1.096 2.4773-2.062 3.4773-.966.9887-2.159 1.7614-3.58 2.3182-1.42.5455-3.017.8182-4.79.8182z"/><path d="m431.854 48.9545-3.613 1.0228c-.227-.6023-.563-1.1875-1.006-1.7557-.432-.5796-1.023-1.0568-1.773-1.4318s-1.71-.5625-2.88-.5625c-1.603 0-2.938.3693-4.006 1.1079-1.057.7273-1.585 1.6534-1.585 2.7784 0 1 .363 1.7898 1.091 2.3694.727.5795 1.863 1.0625 3.409 1.4488l3.886.9546c2.341.5681 4.085 1.4375 5.233 2.6079 1.148 1.1591 1.722 2.6534 1.722 4.483 0 1.5-.432 2.8409-1.296 4.0227-.852 1.1818-2.045 2.1136-3.579 2.7955-1.534.6818-3.318 1.0227-5.353 1.0227-2.67 0-4.88-.5796-6.63-1.7387-1.75-1.159-2.858-2.8522-3.324-5.0795l3.818-.9545c.364 1.409 1.051 2.4659 2.063 3.1704 1.022.7046 2.358 1.0568 4.005 1.0568 1.875 0 3.364-.3977 4.466-1.1932 1.114-.8068 1.671-1.7727 1.671-2.8977 0-.9091-.319-1.6704-.955-2.2841-.636-.625-1.614-1.0909-2.932-1.3977l-4.363-1.0227c-2.398-.5682-4.159-1.4489-5.284-2.6421-1.114-1.2045-1.671-2.7102-1.671-4.517 0-1.4773.415-2.7841 1.244-3.9205.841-1.1363 1.983-2.0284 3.427-2.6761 1.454-.6477 3.102-.9716 4.943-.9716 2.591 0 4.625.5682 6.102 1.7045 1.489 1.1364 2.545 2.6364 3.17 4.5z"/><path d="m401.918 58.5681v-15.4773h4.023v26.1818h-4.023v-4.4318h-.272c-.614 1.3296-1.569 2.4603-2.864 3.3921-1.295.9204-2.932 1.3806-4.909 1.3806-1.636 0-3.091-.3579-4.364-1.0738-1.272-.7273-2.272-1.8182-3-3.2727-.727-1.466-1.091-3.3125-1.091-5.5398v-16.6364h4.023v16.3637c0 1.909.534 3.4318 1.602 4.5681 1.08 1.1364 2.455 1.7046 4.125 1.7046 1 0 2.017-.2557 3.052-.7671 1.045-.5113 1.92-1.2954 2.625-2.3522.715-1.0568 1.073-2.4034 1.073-4.0398z"/><path d="m354.958 69.8182c-2.523 0-4.699-.5568-6.528-1.6705-1.818-1.125-3.222-2.6932-4.21-4.7045-.978-2.0227-1.466-4.375-1.466-7.0568 0-2.6819.488-5.0455 1.466-7.0909.988-2.0569 2.363-3.6591 4.125-4.8069 1.772-1.1591 3.84-1.7386 6.204-1.7386 1.364 0 2.71.2273 4.04.6818 1.329.4546 2.54 1.1932 3.631 2.2159 1.09 1.0114 1.96 2.3523 2.607 4.0228.648 1.6704.972 3.7272.972 6.1704v1.7046h-20.182v-3.4773h16.091c0-1.4773-.295-2.7955-.886-3.9546-.58-1.1591-1.409-2.0738-2.489-2.7443-1.068-.6704-2.329-1.0057-3.784-1.0057-1.602 0-2.989.3978-4.159 1.1932-1.159.7841-2.051 1.8068-2.676 3.0682s-.938 2.6136-.938 4.0568v2.3182c0 1.9773.341 3.6534 1.023 5.0284.693 1.3636 1.653 2.4034 2.881 3.1193 1.227.7046 2.653 1.0568 4.278 1.0568 1.057 0 2.012-.1477 2.864-.4431.863-.3069 1.608-.7614 2.233-1.3637.625-.6136 1.108-1.375 1.449-2.2841l3.886 1.0909c-.409 1.3182-1.097 2.4773-2.063 3.4773-.965.9887-2.159 1.7614-3.579 2.3182-1.421.5455-3.017.8182-4.79.8182z"/><path d="m338.211 43.0908v3.4091h-13.568v-3.4091zm-9.614-6.2727h4.023v24.9546c0 1.1363.165 1.9886.494 2.5568.341.5568.773.9318 1.296 1.125.534.1818 1.096.2727 1.687.2727.444 0 .807-.0227 1.091-.0682.284-.0568.512-.1022.682-.1363l.818 3.6136c-.272.1023-.653.2045-1.142.3068-.488.1137-1.108.1705-1.858.1705-1.136 0-2.25-.2443-3.341-.733-1.079-.4886-1.977-1.2329-2.693-2.2329-.704-1-1.057-2.2614-1.057-3.7841z"/><path d="m309.864 69.8182c-2.522 0-4.698-.5568-6.528-1.6705-1.818-1.125-3.222-2.6932-4.21-4.7045-.978-2.0227-1.466-4.375-1.466-7.0568 0-2.6819.488-5.0455 1.466-7.0909.988-2.0569 2.363-3.6591 4.125-4.8069 1.772-1.1591 3.841-1.7386 6.204-1.7386 1.364 0 2.711.2273 4.04.6818 1.33.4546 2.54 1.1932 3.631 2.2159 1.091 1.0114 1.96 2.3523 2.608 4.0228.647 1.6704.971 3.7272.971 6.1704v1.7046h-20.182v-3.4773h16.091c0-1.4773-.295-2.7955-.886-3.9546-.58-1.1591-1.409-2.0738-2.489-2.7443-1.068-.6704-2.329-1.0057-3.784-1.0057-1.602 0-2.988.3978-4.159 1.1932-1.159.7841-2.051 1.8068-2.676 3.0682s-.937 2.6136-.937 4.0568v2.3182c0 1.9773.34 3.6534 1.022 5.0284.693 1.3636 1.654 2.4034 2.881 3.1193 1.227.7046 2.653 1.0568 4.278 1.0568 1.057 0 2.012-.1477 2.864-.4431.864-.3069 1.608-.7614 2.233-1.3637.625-.6136 1.108-1.375 1.449-2.2841l3.886 1.0909c-.409 1.3182-1.096 2.4773-2.062 3.4773-.966.9887-2.159 1.7614-3.58 2.3182-1.42.5455-3.017.8182-4.79.8182z"/><path d="m291.519 34.3635v34.9091h-4.022v-34.9091z"/><path d="m258.246 79.0909v-36h3.887v4.1591h.477c.296-.4545.705-1.0341 1.227-1.7386.534-.7159 1.296-1.3523 2.284-1.9091 1-.5682 2.353-.8523 4.057-.8523 2.205 0 4.148.5511 5.83 1.6534s2.994 2.6648 3.937 4.6875c.944 2.0227 1.415 4.4091 1.415 7.1591 0 2.7727-.471 5.1761-1.415 7.2102-.943 2.0228-2.25 3.5909-3.92 4.7046-1.671 1.1022-3.597 1.6534-5.779 1.6534-1.681 0-3.028-.2784-4.039-.8352-1.012-.5682-1.79-1.2103-2.336-1.9262-.545-.7273-.965-1.3295-1.261-1.8068h-.341v13.8409zm3.955-22.9091c0 1.9773.29 3.7216.869 5.233.58 1.5 1.426 2.6761 2.54 3.5284 1.114.8409 2.477 1.2613 4.091 1.2613 1.682 0 3.085-.4431 4.21-1.3295 1.137-.8977 1.989-2.1023 2.557-3.6136.58-1.5228.869-3.2159.869-5.0796 0-1.8409-.284-3.5-.852-4.9773-.557-1.4886-1.403-2.6647-2.54-3.5284-1.125-.875-2.539-1.3125-4.244-1.3125-1.636 0-3.011.4148-4.125 1.2444-1.114.8181-1.955 1.9659-2.523 3.4431-.568 1.4659-.852 3.1762-.852 5.1307z"/><path d="m216.528 69.2727v-26.1818h3.886v4.0909h.341c.545-1.3977 1.426-2.4829 2.642-3.2557 1.216-.7841 2.676-1.1761 4.381-1.1761 1.727 0 3.165.392 4.312 1.1761 1.159.7728 2.063 1.858 2.71 3.2557h.273c.671-1.3523 1.676-2.4261 3.017-3.2216 1.341-.8068 2.949-1.2102 4.824-1.2102 2.341 0 4.256.733 5.744 2.1989 1.489 1.4545 2.233 3.7216 2.233 6.8011v17.5227h-4.022v-17.5227c0-1.9318-.529-3.3125-1.586-4.142-1.056-.8296-2.301-1.2444-3.733-1.2444-1.84 0-3.267.5569-4.278 1.6705-1.011 1.1023-1.517 2.5-1.517 4.1932v17.0454h-4.091v-17.9318c0-1.4886-.483-2.6875-1.449-3.5966-.966-.9204-2.21-1.3807-3.733-1.3807-1.045 0-2.022.2784-2.932.8353-.897.5568-1.625 1.3295-2.181 2.3181-.546.9773-.819 2.108-.819 3.3921v16.3636z"/><path d="m198.523 69.8182c-2.363 0-4.437-.5625-6.221-1.6875-1.773-1.125-3.159-2.6989-4.159-4.7216-.989-2.0227-1.483-4.3864-1.483-7.0909 0-2.7273.494-5.108 1.483-7.1421 1-2.0341 2.386-3.6136 4.159-4.7386 1.784-1.125 3.858-1.6875 6.221-1.6875 2.364 0 4.432.5625 6.205 1.6875 1.784 1.125 3.17 2.7045 4.159 4.7386 1 2.0341 1.5 4.4148 1.5 7.1421 0 2.7045-.5 5.0682-1.5 7.0909-.989 2.0227-2.375 3.5966-4.159 4.7216-1.773 1.125-3.841 1.6875-6.205 1.6875zm0-3.6137c1.796 0 3.273-.4602 4.432-1.3806 1.159-.9205 2.017-2.1307 2.574-3.6307s.835-3.125.835-4.875-.278-3.3807-.835-4.8921c-.557-1.5113-1.415-2.7329-2.574-3.6647-1.159-.9319-2.636-1.3978-4.432-1.3978-1.795 0-3.272.4659-4.431 1.3978-1.159.9318-2.017 2.1534-2.574 3.6647-.557 1.5114-.835 3.1421-.835 4.8921s.278 3.375.835 4.875 1.415 2.7102 2.574 3.6307c1.159.9204 2.636 1.3806 4.431 1.3806z"/><path d="m181.602 45.2726h-4.228c-.25-1.2159-.687-2.2841-1.312-3.2046-.614-.9204-1.364-1.6931-2.25-2.3181-.875-.6364-1.847-1.1137-2.915-1.4319-1.068-.3181-2.182-.4772-3.341-.4772-2.113 0-4.028.5341-5.744 1.6022-1.705 1.0682-3.063 2.6421-4.074 4.7216-1 2.0796-1.5 4.6307-1.5 7.6535 0 3.0227.5 5.5738 1.5 7.6534 1.011 2.0795 2.369 3.6534 4.074 4.7216 1.716 1.0681 3.631 1.6022 5.744 1.6022 1.159 0 2.273-.1591 3.341-.4772 1.068-.3182 2.04-.7898 2.915-1.4148.886-.6364 1.636-1.4148 2.25-2.3352.625-.9319 1.062-2.0001 1.312-3.2046h4.228c-.319 1.7841-.898 3.3807-1.739 4.7898s-1.886 2.6079-3.136 3.5966c-1.25.9772-2.654 1.7216-4.211 2.2329-1.545.5114-3.198.7671-4.96.7671-2.977 0-5.625-.7273-7.943-2.1818-2.318-1.4546-4.142-3.5228-5.472-6.2046-1.329-2.6818-1.994-5.8636-1.994-9.5454 0-3.6819.665-6.8637 1.994-9.5455 1.33-2.6818 3.154-4.75 5.472-6.2046 2.318-1.4545 4.966-2.1818 7.943-2.1818 1.762 0 3.415.2557 4.96.7671 1.557.5113 2.961 1.2613 4.211 2.25 1.25.9772 2.295 2.1704 3.136 3.5795.841 1.3977 1.42 2.9943 1.739 4.7898z"/><path d="m642.561 88.0908v14.5452h-1.762v-14.5452z"/><path d="m629.549 102.636v-14.5452h1.762v12.9832h6.761v1.562z"/><path d="m626.703 92.6362h-1.761c-.104-.5067-.287-.9517-.547-1.3353-.256-.3835-.568-.7055-.938-.9659-.364-.2651-.769-.464-1.214-.5966-.445-.1325-.909-.1988-1.392-.1988-.881 0-1.679.2225-2.394.6676-.71.4451-1.276 1.1008-1.697 1.9673-.417.8665-.625 1.9295-.625 3.1889 0 1.2595.208 2.3225.625 3.189.421.8664.987 1.5226 1.697 1.9676.715.445 1.513.667 2.394.667.483 0 .947-.066 1.392-.199.445-.132.85-.329 1.214-.589.37-.265.682-.5895.938-.9731.26-.3882.443-.8333.547-1.3352h1.761c-.132.7434-.374 1.4086-.724 1.9953-.351.588-.786 1.087-1.307 1.499-.521.407-1.106.717-1.754.93-.644.213-1.333.32-2.067.32-1.241 0-2.344-.303-3.31-.909s-1.726-1.468-2.28-2.5853c-.554-1.1174-.831-2.4432-.831-3.9773s.277-2.8598.831-3.9772c.554-1.1175 1.314-1.9792 2.28-2.5853.966-.606 2.069-.9091 3.31-.9091.734 0 1.423.1066 2.067.3196.648.2131 1.233.5256 1.754.9375.521.4072.956.9044 1.307 1.4915.35.5824.592 1.2477.724 1.9958z"/><path d="m599.093 106.727c-.284 0-.537-.024-.76-.071-.222-.043-.376-.085-.462-.128l.427-1.477c.407.104.767.142 1.079.114.313-.029.59-.169.831-.419.246-.247.471-.647.675-1.201l.312-.852-4.034-10.9659h1.818l3.012 8.6929h.113l3.012-8.6929h1.818l-4.631 12.4999c-.208.563-.466 1.03-.774 1.399-.308.374-.665.651-1.072.831-.403.18-.857.27-1.364.27z"/><path d="m594.944 88.0908v14.5452h-1.677v-14.5452z"/><path d="m581.073 102.636v-14.5452h1.676v5.3693h.142c.123-.1894.294-.4308.511-.7244.223-.2983.54-.5634.952-.7954.417-.2368.98-.3552 1.69-.3552.919 0 1.729.2297 2.429.689.701.4592 1.248 1.1103 1.641 1.9531s.59 1.8371.59 2.9829c0 1.1553-.197 2.1568-.59 3.0039-.393.843-.937 1.497-1.633 1.961-.696.459-1.499.689-2.408.689-.701 0-1.262-.116-1.683-.348-.422-.237-.746-.505-.973-.803-.228-.303-.403-.554-.526-.753h-.199v1.676zm1.648-5.4543c0 .8239.12 1.5507.362 2.1804.241.625.594 1.1149 1.058 1.4699.464.351 1.032.526 1.705.526.7 0 1.285-.185 1.754-.554.473-.374.828-.8761 1.065-1.5058.242-.6345.362-1.34.362-2.1165 0-.767-.118-1.4583-.355-2.0738-.232-.6203-.584-1.1104-1.058-1.4702-.469-.3646-1.058-.5469-1.768-.5469-.682 0-1.255.1728-1.719.5185-.464.3409-.815.8191-1.051 1.4346-.237.6108-.355 1.3234-.355 2.1378z"/><path d="m573.779 102.864c-1.051 0-1.958-.232-2.72-.696-.758-.469-1.343-1.123-1.755-1.961-.407-.8424-.61-1.8226-.61-2.94s.203-2.1023.61-2.9545c.412-.857.985-1.5246 1.719-2.0029.739-.4829 1.601-.7244 2.585-.7244.569 0 1.13.0947 1.684.2841s1.058.4972 1.512.9233c.455.4214.817.9801 1.087 1.6761s.405 1.5531.405 2.5711v.7102h-8.409v-1.4489h6.704c0-.6155-.123-1.1648-.369-1.6477-.241-.483-.587-.8641-1.037-1.1435-.445-.2793-.971-.419-1.577-.419-.667 0-1.245.1657-1.733.4971-.483.3267-.854.7529-1.115 1.2785-.26.5255-.39 1.089-.39 1.6903v.9659c0 .8239.142 1.5223.426 2.0952.289.5681.689 1.0011 1.2 1.3001.512.293 1.106.44 1.783.44.44 0 .838-.062 1.193-.185.36-.128.67-.317.93-.568.261-.256.462-.573.604-.9516l1.619.4546c-.17.549-.456 1.032-.859 1.449-.402.412-.9.734-1.491.966-.592.227-1.258.341-1.996.341z"/><path d="m555.798 102.636-3.324-10.9089h1.761l2.358 8.3519h.114l2.329-8.3519h1.79l2.301 8.3239h.114l2.358-8.3239h1.761l-3.324 10.9089h-1.647l-2.387-8.3805h-.17l-2.387 8.3805z"/><path d="m546.195 102.864c-.984 0-1.849-.235-2.592-.704-.739-.468-1.316-1.124-1.733-1.967-.412-.8426-.618-1.8275-.618-2.9544 0-1.1364.206-2.1283.618-2.9758.417-.8476.994-1.5057 1.733-1.9745.743-.4687 1.608-.7031 2.592-.7031.985 0 1.847.2344 2.586.7031.743.4688 1.321 1.1269 1.733 1.9745.416.8475.625 1.8394.625 2.9758 0 1.1269-.209 2.1118-.625 2.9544-.412.843-.99 1.499-1.733 1.967-.739.469-1.601.704-2.586.704zm0-1.506c.748 0 1.364-.192 1.847-.575.483-.384.84-.8881 1.072-1.5131s.348-1.3021.348-2.0313-.116-1.4086-.348-2.0383c-.232-.6298-.589-1.1388-1.072-1.527-.483-.3883-1.099-.5824-1.847-.5824s-1.363.1941-1.846.5824c-.483.3882-.841.8972-1.073 1.527-.232.6297-.348 1.3091-.348 2.0383s.116 1.4063.348 2.0313.59 1.1291 1.073 1.5131c.483.383 1.098.575 1.846.575z"/><path d="m537.071 92.6362c-.157-.4783-.363-.9068-.618-1.2855-.251-.3836-.552-.7103-.902-.9802-.346-.2698-.739-.4758-1.179-.6179-.441-.142-.923-.213-1.449-.213-.862 0-1.645.2225-2.351.6676-.705.4451-1.266 1.1008-1.683 1.9673s-.625 1.9295-.625 3.1889c0 1.2595.211 2.3225.632 3.189.421.8664.992 1.5226 1.712 1.9676.719.445 1.529.667 2.429.667.833 0 1.567-.177 2.201-.532.64-.36 1.137-.8668 1.492-1.5203.36-.6581.54-1.4322.54-2.3224l.539.1136h-4.375v-1.5625h5.54v1.5625c0 1.198-.256 2.2396-.767 3.1251-.507.885-1.207 1.572-2.102 2.06-.89.483-1.913.724-3.068.724-1.288 0-2.42-.303-3.395-.909-.971-.606-1.729-1.468-2.273-2.5853-.54-1.1174-.81-2.4432-.81-3.9773 0-1.1505.154-2.1851.462-3.1037.312-.9233.753-1.7092 1.321-2.3579s1.241-1.1458 2.017-1.4915c.777-.3456 1.631-.5185 2.564-.5185.767 0 1.482.116 2.145.3481.667.2272 1.262.5516 1.783.973.525.4166.963.9162 1.313 1.4985.351.5777.592 1.2193.725 1.9248z"/><path d="m514.208 102.864c-1.051 0-1.957-.232-2.72-.696-.757-.469-1.342-1.123-1.754-1.961-.407-.8424-.611-1.8226-.611-2.94s.204-2.1023.611-2.9545c.412-.857.985-1.5246 1.719-2.0029.738-.4829 1.6-.7244 2.585-.7244.568 0 1.129.0947 1.683.2841s1.059.4972 1.513.9233c.455.4214.817.9801 1.087 1.6761s.405 1.5531.405 2.5711v.7102h-8.41v-1.4489h6.705c0-.6155-.123-1.1648-.369-1.6477-.242-.483-.587-.8641-1.037-1.1435-.445-.2793-.971-.419-1.577-.419-.668 0-1.245.1657-1.733.4971-.483.3267-.855.7529-1.115 1.2785-.26.5255-.391 1.089-.391 1.6903v.9659c0 .8239.142 1.5223.427 2.0952.288.5681.688 1.0011 1.2 1.3001.511.293 1.105.44 1.782.44.441 0 .839-.062 1.194-.185.36-.128.67-.317.93-.568.261-.256.462-.573.604-.9516l1.619.4546c-.17.549-.457 1.032-.859 1.449-.403.412-.9.734-1.492.966-.592.227-1.257.341-1.996.341z"/><path d="m499.494 96.0738v6.5622h-1.676v-14.5452h1.676v5.3409h.142c.256-.5634.64-1.0109 1.151-1.3423.516-.3362 1.203-.5043 2.06-.5043.743 0 1.394.1492 1.953.4475.558.2935.992.7457 1.299 1.3565.313.6061.469 1.3779.469 2.3154v6.9315h-1.676v-6.8179c0-.8665-.225-1.5365-.675-2.0099-.445-.4783-1.063-.7174-1.853-.7174-.55 0-1.042.116-1.478.348-.43.232-.771.5706-1.022 1.0157-.247.445-.37.9848-.37 1.6193z"/><path d="m495.063 91.7272v1.4204h-5.654v-1.4204zm-4.006-2.6137h1.676v10.3978c0 .4734.069.8287.206 1.0657.142.232.322.388.54.468.222.076.457.114.703.114.185 0 .336-.009.454-.028.119-.024.214-.043.285-.057l.34 1.505c-.113.043-.272.086-.475.128-.204.048-.462.071-.775.071-.473 0-.937-.102-1.392-.305-.449-.204-.823-.514-1.122-.93-.293-.417-.44-.943-.44-1.5772z"/><path d="m477.626 102.864c-1.051 0-1.957-.232-2.72-.696-.757-.469-1.342-1.123-1.754-1.961-.407-.8424-.611-1.8226-.611-2.94s.204-2.1023.611-2.9545c.412-.857.985-1.5246 1.719-2.0029.738-.4829 1.6-.7244 2.585-.7244.568 0 1.129.0947 1.683.2841s1.058.4972 1.513.9233c.455.4214.817.9801 1.087 1.6761s.405 1.5531.405 2.5711v.7102h-8.41v-1.4489h6.705c0-.6155-.123-1.1648-.369-1.6477-.242-.483-.587-.8641-1.037-1.1435-.445-.2793-.971-.419-1.577-.419-.668 0-1.245.1657-1.733.4971-.483.3267-.855.7529-1.115 1.2785-.26.5255-.391 1.089-.391 1.6903v.9659c0 .8239.142 1.5223.427 2.0952.288.5681.688 1.0011 1.2 1.3001.511.293 1.105.44 1.782.44.441 0 .839-.062 1.194-.185.36-.128.67-.317.93-.568.26-.256.462-.573.604-.9516l1.619.4546c-.17.549-.457 1.032-.859 1.449-.403.412-.9.734-1.492.966-.592.227-1.257.341-1.996.341z"/><path d="m470.331 94.1704-1.506.4262c-.095-.251-.234-.4948-.419-.7316-.18-.2414-.426-.4403-.739-.5966-.312-.1562-.712-.2343-1.2-.2343-.668 0-1.224.1539-1.669.4616-.44.303-.66.6889-.66 1.1577 0 .4167.151.7457.454.9872s.777.4427 1.421.6037l1.619.3977c.975.2368 1.702.599 2.18 1.0867.478.4829.718 1.1056.718 1.8679 0 .6254-.18 1.1834-.54 1.6764-.355.492-.852.88-1.492 1.164-.639.285-1.382.427-2.23.427-1.113 0-2.033-.242-2.763-.725-.729-.483-1.19-1.188-1.385-2.116l1.591-.398c.152.587.438 1.027.86 1.321.426.294.982.44 1.669.44.781 0 1.401-.165 1.861-.497.464-.336.696-.738.696-1.2072 0-.3788-.133-.696-.398-.9517-.265-.2604-.672-.4546-1.222-.5824l-1.818-.4261c-.999-.2368-1.733-.6037-2.202-1.1009-.464-.5019-.696-1.1292-.696-1.8821 0-.6155.173-1.16.519-1.6335.35-.4735.826-.8452 1.427-1.1151.606-.2699 1.293-.4048 2.06-.4048 1.08 0 1.927.2367 2.543.7102.62.4735 1.06 1.0985 1.321 1.875z"/><path d="m457.857 98.1759v-6.4488h1.676v10.9089h-1.676v-1.846h-.113c-.256.554-.654 1.025-1.194 1.413-.539.383-1.221.575-2.045.575-.682 0-1.288-.149-1.818-.447-.53-.303-.947-.758-1.25-1.364-.303-.611-.455-1.3801-.455-2.3081v-6.9318h1.676v6.8181c0 .7955.223 1.43.668 1.9038.45.473 1.023.71 1.719.71.416 0 .84-.107 1.271-.32.436-.213.8-.54 1.094-.9798.298-.4404.447-1.0015.447-1.6833z"/><path d="m437.856 102.864c-.985 0-1.849-.235-2.593-.704-.738-.468-1.316-1.124-1.733-1.967-.412-.8426-.618-1.8275-.618-2.9544 0-1.1364.206-2.1283.618-2.9758.417-.8476.995-1.5057 1.733-1.9745.744-.4687 1.608-.7031 2.593-.7031.984 0 1.846.2344 2.585.7031.743.4688 1.321 1.1269 1.733 1.9745.416.8475.625 1.8394.625 2.9758 0 1.1269-.209 2.1118-.625 2.9544-.412.843-.99 1.499-1.733 1.967-.739.469-1.601.704-2.585.704zm0-1.506c.748 0 1.363-.192 1.846-.575.483-.384.841-.8881 1.073-1.5131s.348-1.3021.348-2.0313-.116-1.4086-.348-2.0383c-.232-.6298-.59-1.1388-1.073-1.527-.483-.3883-1.098-.5824-1.846-.5824-.749 0-1.364.1941-1.847.5824-.483.3882-.84.8972-1.073 1.527-.232.6297-.348 1.3091-.348 2.0383s.116 1.4063.348 2.0313c.233.625.59 1.1291 1.073 1.5131.483.383 1.098.575 1.847.575z"/><path d="m431.02 91.7272v1.4204h-5.654v-1.4204zm-4.006-2.6137h1.676v10.3978c0 .4734.069.8287.206 1.0657.142.232.322.388.54.468.222.076.457.114.703.114.185 0 .336-.009.454-.028.119-.024.214-.043.285-.057l.34 1.505c-.113.043-.272.086-.475.128-.204.048-.462.071-.775.071-.473 0-.937-.102-1.392-.305-.449-.204-.823-.514-1.122-.93-.293-.417-.44-.943-.44-1.5772z"/><path d="m406.872 102.636-3.324-10.9089h1.761l2.358 8.3519h.114l2.329-8.3519h1.79l2.301 8.3239h.114l2.358-8.3239h1.761l-3.324 10.9089h-1.647l-2.387-8.3805h-.17l-2.386 8.3805z"/><path d="m397.27 102.864c-.985 0-1.849-.235-2.593-.704-.738-.468-1.316-1.124-1.733-1.967-.412-.8426-.618-1.8275-.618-2.9544 0-1.1364.206-2.1283.618-2.9758.417-.8476.995-1.5057 1.733-1.9745.744-.4687 1.608-.7031 2.593-.7031.984 0 1.846.2344 2.585.7031.743.4688 1.321 1.1269 1.733 1.9745.416.8475.625 1.8394.625 2.9758 0 1.1269-.209 2.1118-.625 2.9544-.412.843-.99 1.499-1.733 1.967-.739.469-1.601.704-2.585.704zm0-1.506c.748 0 1.363-.192 1.846-.575.483-.384.841-.8881 1.073-1.5131s.348-1.3021.348-2.0313-.116-1.4086-.348-2.0383c-.232-.6298-.59-1.1388-1.073-1.527-.483-.3883-1.098-.5824-1.846-.5824s-1.364.1941-1.847.5824c-.483.3882-.84.8972-1.072 1.527-.232.6297-.348 1.3091-.348 2.0383s.116 1.4063.348 2.0313.589 1.1291 1.072 1.5131c.483.383 1.099.575 1.847.575z"/><path d="m382.697 96.0738v6.5622h-1.676v-14.5452h1.676v5.3409h.143c.255-.5634.639-1.0109 1.15-1.3423.516-.3362 1.203-.5043 2.06-.5043.743 0 1.394.1492 1.953.4475.559.2935.992.7457 1.3 1.3565.312.6061.468 1.3779.468 2.3154v6.9315h-1.676v-6.8179c0-.8665-.225-1.5365-.674-2.0099-.446-.4783-1.063-.7174-1.854-.7174-.549 0-1.042.116-1.477.348-.431.232-.772.5706-1.023 1.0157-.246.445-.37.9848-.37 1.6193z"/><path d="m365.373 96.0738v6.5622h-1.676v-10.9087h1.619v1.7045h.143c.255-.554.643-.9991 1.164-1.3352.521-.3409 1.193-.5114 2.017-.5114.739 0 1.385.1515 1.939.4546.554.2982.985.7528 1.293 1.3636.308.606.462 1.3731.462 2.3011v6.9315h-1.677v-6.8178c0-.857-.222-1.5247-.667-2.0029-.445-.4829-1.056-.7244-1.833-.7244-.535 0-1.013.116-1.434.348-.417.232-.746.5705-.987 1.0156-.242.4451-.363.9849-.363 1.6193z"/><path d="m356.195 102.864c-.984 0-1.849-.235-2.592-.704-.739-.468-1.316-1.124-1.733-1.967-.412-.8426-.618-1.8275-.618-2.9544 0-1.1364.206-2.1283.618-2.9758.417-.8476.994-1.5057 1.733-1.9745.743-.4687 1.608-.7031 2.592-.7031.985 0 1.847.2344 2.586.7031.743.4688 1.321 1.1269 1.733 1.9745.416.8475.625 1.8394.625 2.9758 0 1.1269-.209 2.1118-.625 2.9544-.412.843-.99 1.499-1.733 1.967-.739.469-1.601.704-2.586.704zm0-1.506c.748 0 1.364-.192 1.847-.575.483-.384.84-.8881 1.072-1.5131s.348-1.3021.348-2.0313-.116-1.4086-.348-2.0383c-.232-.6298-.589-1.1388-1.072-1.527-.483-.3883-1.099-.5824-1.847-.5824s-1.363.1941-1.846.5824c-.483.3882-.841.8972-1.073 1.527-.232.6297-.348 1.3091-.348 2.0383s.116 1.4063.348 2.0313.59 1.1291 1.073 1.5131c.483.383 1.098.575 1.846.575z"/><path d="m343.417 94.1704-1.506.4262c-.095-.251-.234-.4948-.419-.7316-.18-.2414-.426-.4403-.739-.5966-.312-.1562-.712-.2343-1.2-.2343-.668 0-1.224.1539-1.669.4616-.44.303-.661.6889-.661 1.1577 0 .4167.152.7457.455.9872s.776.4427 1.42.6037l1.62.3977c.975.2368 1.702.599 2.18 1.0867.478.4829.717 1.1056.717 1.8679 0 .6254-.179 1.1834-.539 1.6764-.355.492-.853.88-1.492 1.164-.639.285-1.382.427-2.23.427-1.113 0-2.034-.242-2.763-.725s-1.191-1.188-1.385-2.116l1.591-.398c.152.587.438 1.027.86 1.321.426.294.982.44 1.669.44.781 0 1.401-.165 1.86-.497.464-.336.697-.738.697-1.2072 0-.3788-.133-.696-.398-.9517-.265-.2604-.673-.4546-1.222-.5824l-1.818-.4261c-.999-.2368-1.733-.6037-2.202-1.1009-.464-.5019-.696-1.1292-.696-1.8821 0-.6155.173-1.16.519-1.6335.35-.4735.826-.8452 1.427-1.1151.606-.2699 1.293-.4048 2.06-.4048 1.079 0 1.927.2367 2.543.7102.62.4735 1.06 1.0985 1.321 1.875z"/><path d="m325.666 96.0738v6.5622h-1.676v-10.9087h1.619v1.7045h.142c.256-.554.644-.9991 1.165-1.3352.521-.3409 1.193-.5114 2.017-.5114.739 0 1.385.1515 1.939.4546.554.2982.985.7528 1.293 1.3636.308.606.461 1.3731.461 2.3011v6.9315h-1.676v-6.8178c0-.857-.222-1.5247-.667-2.0029-.445-.4829-1.056-.7244-1.833-.7244-.535 0-1.013.116-1.434.348-.417.232-.746.5705-.988 1.0156-.241.4451-.362.9849-.362 1.6193z"/><path d="m316.488 102.864c-.984 0-1.849-.235-2.592-.704-.739-.468-1.316-1.124-1.733-1.967-.412-.8426-.618-1.8275-.618-2.9544 0-1.1364.206-2.1283.618-2.9758.417-.8476.994-1.5057 1.733-1.9745.743-.4687 1.608-.7031 2.592-.7031.985 0 1.847.2344 2.586.7031.743.4688 1.321 1.1269 1.733 1.9745.416.8475.625 1.8394.625 2.9758 0 1.1269-.209 2.1118-.625 2.9544-.412.843-.99 1.499-1.733 1.967-.739.469-1.601.704-2.586.704zm0-1.506c.748 0 1.364-.192 1.847-.575.483-.384.84-.8881 1.072-1.5131s.348-1.3021.348-2.0313-.116-1.4086-.348-2.0383c-.232-.6298-.589-1.1388-1.072-1.527-.483-.3883-1.099-.5824-1.847-.5824s-1.363.1941-1.846.5824c-.483.3882-.841.8972-1.073 1.527-.232.6297-.348 1.3091-.348 2.0383s.116 1.4063.348 2.0313.59 1.1291 1.073 1.5131c.483.383 1.098.575 1.846.575z"/><path d="m307.31 102.636v-10.9089h1.677v10.9089zm.853-12.727c-.327 0-.609-.1113-.845-.3338-.233-.2226-.349-.4901-.349-.8026s.116-.58.349-.8026c.236-.2225.518-.3338.845-.3338.326 0 .606.1113.838.3338.236.2226.355.4901.355.8026s-.119.58-.355.8026c-.232.2225-.512.3338-.838.3338z"/><path d="m304.789 91.7272v1.4204h-5.653v-1.4204zm-4.006-2.6137h1.677v10.3978c0 .4734.068.8287.206 1.0657.142.232.321.388.539.468.223.076.457.114.703.114.185 0 .337-.009.455-.028.118-.024.213-.043.284-.057l.341 1.505c-.114.043-.272.086-.476.128-.203.048-.462.071-.774.071-.474 0-.938-.102-1.392-.305-.45-.204-.824-.514-1.122-.93-.294-.417-.441-.943-.441-1.5772z"/><path d="m293.305 102.864c-1.023 0-1.904-.242-2.642-.725-.739-.483-1.307-1.148-1.705-1.996-.398-.8471-.596-1.8154-.596-2.9044 0-1.1079.203-2.0857.61-2.9332.412-.8523.985-1.5175 1.719-1.9958.739-.4829 1.601-.7244 2.585-.7244.767 0 1.459.1421 2.074.4261.616.2841 1.12.6819 1.513 1.1932.393.5114.637 1.108.732 1.7898h-1.677c-.127-.4972-.412-.9375-.852-1.321-.435-.3883-1.023-.5824-1.761-.5824-.654 0-1.227.1704-1.719.5114-.488.3361-.869.812-1.143 1.4275-.27.6108-.405 1.3281-.405 2.152 0 .8428.132 1.5767.397 2.2017.27.6255.649 1.1105 1.137 1.4555.492.346 1.07.519 1.733.519.435 0 .831-.076 1.186-.227.355-.152.656-.37.902-.654s.421-.6247.525-1.0225h1.677c-.095.6435-.33 1.2235-.704 1.7405-.369.511-.859.918-1.47 1.221-.606.298-1.311.448-2.116.448z"/><path d="m284.127 98.1759v-6.4488h1.676v10.9089h-1.676v-1.846h-.114c-.255.554-.653 1.025-1.193 1.413-.54.383-1.222.575-2.045.575-.682 0-1.288-.149-1.819-.447-.53-.303-.947-.758-1.25-1.364-.303-.611-.454-1.3801-.454-2.3081v-6.9318h1.676v6.8181c0 .7955.223 1.43.668 1.9038.449.473 1.022.71 1.718.71.417 0 .841-.107 1.272-.32.435-.213.8-.54 1.093-.9798.299-.4404.448-1.0015.448-1.6833z"/><path d="m269.81 102.636v-10.9089h1.62v1.6477h.113c.199-.5397.559-.9777 1.08-1.3139s1.108-.5043 1.761-.5043c.123 0 .277.0024.462.0071.185.0048.324.0119.419.0214v1.7045c-.057-.0142-.187-.0355-.391-.0639-.199-.0332-.409-.0497-.632-.0497-.53 0-1.004.1112-1.42.3338-.412.2178-.739.5208-.98.9091-.237.3835-.355.8215-.355 1.3139v6.9032z"/><path d="m267.289 91.7272v1.4204h-5.653v-1.4204zm-4.006-2.6137h1.677v10.3978c0 .4734.068.8287.206 1.0657.142.232.321.388.539.468.223.076.457.114.703.114.185 0 .337-.009.455-.028.118-.024.213-.043.284-.057l.341 1.505c-.114.043-.272.086-.476.128-.203.048-.462.071-.774.071-.474 0-.938-.102-1.392-.305-.45-.204-.824-.514-1.122-.93-.294-.417-.441-.943-.441-1.5772z"/><path d="m259.823 94.1704-1.506.4262c-.095-.251-.234-.4948-.419-.7316-.18-.2414-.426-.4403-.739-.5966-.312-.1562-.712-.2343-1.2-.2343-.667 0-1.224.1539-1.669.4616-.44.303-.66.6889-.66 1.1577 0 .4167.151.7457.454.9872s.777.4427 1.421.6037l1.619.3977c.975.2368 1.702.599 2.18 1.0867.479.4829.718 1.1056.718 1.8679 0 .6254-.18 1.1834-.54 1.6764-.355.492-.852.88-1.492 1.164-.639.285-1.382.427-2.23.427-1.112 0-2.033-.242-2.762-.725-.73-.483-1.191-1.188-1.385-2.116l1.591-.398c.151.587.437 1.027.859 1.321.426.294.982.44 1.669.44.781 0 1.401-.165 1.861-.497.464-.336.696-.738.696-1.2072 0-.3788-.133-.696-.398-.9517-.265-.2604-.672-.4546-1.222-.5824l-1.818-.4261c-.999-.2368-1.733-.6037-2.201-1.1009-.464-.5019-.696-1.1292-.696-1.8821 0-.6155.172-1.16.518-1.6335.35-.4735.826-.8452 1.428-1.1151.606-.2699 1.292-.4048 2.059-.4048 1.08 0 1.927.2367 2.543.7102.62.4735 1.06 1.0985 1.321 1.875z"/><path d="m242.073 96.0738v6.5622h-1.677v-10.9087h1.62v1.7045h.142c.255-.554.644-.9991 1.165-1.3352.52-.3409 1.193-.5114 2.017-.5114.738 0 1.384.1515 1.938.4546.554.2982.985.7528 1.293 1.3636.308.606.462 1.3731.462 2.3011v6.9315h-1.676v-6.8178c0-.857-.223-1.5247-.668-2.0029-.445-.4829-1.056-.7244-1.832-.7244-.535 0-1.014.116-1.435.348-.417.232-.746.5705-.987 1.0156-.242.4451-.362.9849-.362 1.6193z"/><path d="m235.65 102.636v-10.9089h1.676v10.9089zm.853-12.727c-.327 0-.609-.1113-.846-.3338-.232-.2226-.348-.4901-.348-.8026s.116-.58.348-.8026c.237-.2225.519-.3338.846-.3338.326 0 .606.1113.838.3338.236.2226.355.4901.355.8026s-.119.58-.355.8026c-.232.2225-.512.3338-.838.3338z"/><path d="m221.723 102.864c-.909 0-1.712-.23-2.408-.689-.696-.464-1.24-1.118-1.633-1.961-.393-.8471-.59-1.8486-.59-3.0039 0-1.1458.197-2.1401.59-2.9829s.939-1.4939 1.64-1.9531c.701-.4593 1.511-.689 2.429-.689.71 0 1.271.1184 1.683.3552.417.232.734.4971.952.7954.223.2936.395.535.519.7244h.142v-5.3693h1.676v14.5452h-1.62v-1.676h-.198c-.124.199-.299.45-.526.753-.227.298-.552.566-.973.803-.421.232-.983.348-1.683.348zm.227-1.506c.672 0 1.241-.175 1.705-.526.464-.355.816-.8449 1.058-1.4699.241-.6297.362-1.3565.362-2.1804 0-.8144-.118-1.527-.355-2.1378-.237-.6155-.587-1.0937-1.051-1.4346-.464-.3457-1.037-.5185-1.719-.5185-.71 0-1.302.1823-1.776.5469-.468.3598-.821.8499-1.058 1.4702-.232.6155-.348 1.3068-.348 2.0738 0 .7765.119 1.482.355 2.1165.242.6297.597 1.1318 1.066 1.5058.473.369 1.06.554 1.761.554z"/><path d="m210.537 102.864c-1.052 0-1.958-.232-2.721-.696-.757-.469-1.342-1.123-1.754-1.961-.407-.8424-.611-1.8226-.611-2.94s.204-2.1023.611-2.9545c.412-.857.985-1.5246 1.719-2.0029.739-.4829 1.6-.7244 2.585-.7244.568 0 1.129.0947 1.683.2841s1.059.4972 1.513.9233c.455.4214.817.9801 1.087 1.6761s.405 1.5531.405 2.5711v.7102h-8.409v-1.4489h6.704c0-.6155-.123-1.1648-.369-1.6477-.242-.483-.587-.8641-1.037-1.1435-.445-.2793-.971-.419-1.577-.419-.667 0-1.245.1657-1.733.4971-.483.3267-.854.7529-1.115 1.2785-.26.5255-.39 1.089-.39 1.6903v.9659c0 .8239.142 1.5223.426 2.0952.288.5681.689 1.0011 1.2 1.3001.511.293 1.106.44 1.783.44.44 0 .838-.062 1.193-.185.36-.128.67-.317.93-.568.261-.256.462-.573.604-.9516l1.619.4546c-.17.549-.457 1.032-.859 1.449-.403.412-.9.734-1.492.966-.592.227-1.257.341-1.995.341z"/><path d="m202.893 88.0908v14.5452h-1.676v-14.5452z"/><path d="m196.471 102.636v-10.9089h1.676v10.9089zm.852-12.727c-.327 0-.609-.1113-.845-.3338-.232-.2226-.348-.4901-.348-.8026s.116-.58.348-.8026c.236-.2225.518-.3338.845-.3338s.606.1113.838.3338c.237.2226.355.4901.355.8026s-.118.58-.355.8026c-.232.2225-.511.3338-.838.3338z"/><path d="m188.411 102.892c-.691 0-1.318-.13-1.882-.391-.563-.265-1.011-.646-1.342-1.143-.332-.502-.497-1.108-.497-1.8182 0-.625.123-1.1317.369-1.5199.246-.393.575-.7008.987-.9233.412-.2226.867-.3883 1.364-.4972.502-.1136 1.006-.2036 1.513-.2699.662-.0852 1.2-.1491 1.612-.1917.417-.0474.72-.1255.909-.2344.194-.1089.291-.2983.291-.5682v-.0568c0-.7008-.192-1.2453-.575-1.6335-.379-.3883-.954-.5824-1.726-.5824-.8 0-1.428.1752-1.882.5255-.455.3504-.774.7245-.959 1.1222l-1.591-.5682c.284-.6629.663-1.179 1.137-1.5483.478-.374.999-.6344 1.562-.7812.568-.1515 1.127-.2273 1.676-.2273.351 0 .753.0426 1.208.1278.459.0805.902.2486 1.328.5043.431.2557.788.6416 1.072 1.1577s.426 1.2074.426 2.0738v7.1872h-1.676v-1.477h-.085c-.114.237-.303.49-.568.76s-.618.5-1.059.689c-.44.189-.977.284-1.612.284zm.256-1.506c.663 0 1.222-.13 1.676-.39.459-.261.805-.597 1.037-1.0088.237-.4119.355-.8452.355-1.2997v-1.5341c-.071.0852-.227.1633-.469.2344-.236.0662-.511.1254-.823.1775-.308.0474-.609.09-.902.1279-.289.0331-.524.0615-.704.0852-.435.0568-.842.1491-1.221.277-.374.1231-.677.3101-.909.5611-.228.2462-.341.5823-.341 1.0085 0 .582.215 1.023.646 1.321.436.294.987.44 1.655.44z"/><path d="m182.68 91.7272v1.4204h-5.654v-1.4204zm-4.006-2.6137h1.676v10.3978c0 .4734.069.8287.206 1.0657.142.232.322.388.54.468.222.076.457.114.703.114.185 0 .336-.009.455-.028.118-.024.213-.043.284-.057l.341 1.505c-.114.043-.273.086-.476.128-.204.048-.462.071-.774.071-.474 0-.938-.102-1.392-.305-.45-.204-.824-.514-1.123-.93-.293-.417-.44-.943-.44-1.5772z"/><path d="m170.869 102.864c-1.051 0-1.958-.232-2.721-.696-.757-.469-1.342-1.123-1.754-1.961-.407-.8424-.611-1.8226-.611-2.94s.204-2.1023.611-2.9545c.412-.857.985-1.5246 1.719-2.0029.739-.4829 1.6-.7244 2.585-.7244.568 0 1.129.0947 1.683.2841s1.059.4972 1.513.9233c.455.4214.817.9801 1.087 1.6761s.405 1.5531.405 2.5711v.7102h-8.409v-1.4489h6.704c0-.6155-.123-1.1648-.369-1.6477-.242-.483-.587-.8641-1.037-1.1435-.445-.2793-.971-.419-1.577-.419-.667 0-1.245.1657-1.733.4971-.483.3267-.854.7529-1.115 1.2785-.26.5255-.39 1.089-.39 1.6903v.9659c0 .8239.142 1.5223.426 2.0952.289.5681.689 1.0011 1.2 1.3001.511.293 1.106.44 1.783.44.44 0 .838-.062 1.193-.185.36-.128.67-.317.93-.568.261-.256.462-.573.604-.9516l1.619.4546c-.17.549-.457 1.032-.859 1.449-.403.412-.9.734-1.492.966-.591.227-1.257.341-1.995.341z"/><path d="m156.636 102.636h-4.489v-14.5452h4.688c1.411 0 2.618.2912 3.622.8736 1.004.5777 1.773 1.4086 2.308 2.4929.535 1.0795.803 2.3722.803 3.8778 0 1.5152-.27 2.8196-.81 3.9134-.54 1.0895-1.326 1.9275-2.358 2.5145-1.032.582-2.287.873-3.764.873zm-2.728-1.562h2.614c1.203 0 2.199-.232 2.99-.696.791-.4643 1.38-1.1248 1.769-1.9818.388-.857.582-1.8773.582-3.0611 0-1.1742-.192-2.1851-.575-3.0326-.384-.8523-.957-1.5057-1.719-1.9603-.762-.4592-1.712-.6889-2.848-.6889h-2.813z"/></g></svg>