<svg fill="none" height="216" viewBox="0 0 821 216" width="821" xmlns="http://www.w3.org/2000/svg" xmlns:xlink="http://www.w3.org/1999/xlink"><linearGradient id="a" gradientUnits="userSpaceOnUse" x1="141" x2="83.1731" y1="182.338" y2="23.4604"><stop offset="0" stop-color="#ff4c0d"/><stop offset="1" stop-color="#fc9502"/></linearGradient><clipPath id="b"><path d="m58 30h123.142v156h-123.142z"/></clipPath><rect height="214" rx="25" stroke="#539bf5" stroke-width="2" width="818.012" x="1" y="1"/><g clip-path="url(#b)" clip-rule="evenodd" fill-rule="evenodd"><path d="m178.007 105.184c10.075 31.68-6.134 65.784-37.136 77.068-31.825 11.583-67.4953-6.149-78.9557-37.637-1.5319-4.208-4.6674-12.592-3.6282-29.042.6218-9.844 1.0088-16.0269.5479-21.3823-.2534-2.9433-.399-7.713 6.1302-2.2312 3.8498 3.2322 6.083 9.0835 6.083 9.0835s6.2881-10.0522 7.4503-25.3069c1.7038-22.3633-9.4085-31.3161-14.6832-38.4344-1.8251-2.4624-4.146-7.2368 2.2487-7.1734 6.516.0651 25.5997 5.3398 37.662 13.8302 17.215 12.1177 26.899 26.221 26.899 26.221s1.957-5.8881 1.5-11.1376c-.515-5.9279-2.441-11.2841 4.315-7.2184 6.424 3.8663 16.751 11.7676 24.017 20.2082 13.194 15.3282 17.55 33.1523 17.55 33.1523z" fill="url(#a)"/><path d="m140.867 182.254c-22.006 8.01-46.4495-3.642-54.5963-26.025-4.9157-13.506-2.5492-23.653 4.5402-38.826 4.5391-9.716 8.0302-20.8893 8.6993-27.8762.1318-1.3754-.8207-7.9465 6.6818-2.5776 3.936 2.8155 10.393 8.0199 15.049 12.7727 8.027 8.1951 12.553 17.3211 12.553 17.3211s3.413-4.206 3.952-12.03c.174-2.523-.868-11.4511 7.572-5.2168 6.194 4.5748 15.634 13.4188 20.644 27.4268 8.147 22.384-3.089 47.022-25.095 55.031z" fill="#fc9502"/><path d="m125.354 137.757c5.671-2.064 9.558 8.616 21.951 20.255 8.252 7.75 4.657 20.194-5.838 24.014s-19.088-2.852-22.973-13.528c-3.886-10.674 1.19-28.677 6.86-30.741z" fill="#fce202"/></g><g fill="#539bf5"><path clip-rule="evenodd" d="m257.848 47.8598c.512.2061.775.7939.586 1.3128l-43.095 118.4014c-.189.519-.757.773-1.269.566-.513-.206-.775-.793-.586-1.312l43.094-118.4016c.189-.519.758-.7727 1.27-.5666z" fill-rule="evenodd"/><path d="m690.198 140.045-1.807.512c-.114-.301-.281-.594-.503-.878-.216-.29-.511-.529-.886-.716-.375-.188-.855-.281-1.441-.281-.801 0-1.468.184-2.002.554-.529.363-.793.826-.793 1.389 0 .5.182.895.545 1.185.364.289.932.531 1.705.724l1.943.477c1.171.284 2.043.719 2.617 1.304.573.58.86 1.327.86 2.242 0 .75-.216 1.42-.647 2.011-.426.591-1.023 1.057-1.79 1.398s-1.659.511-2.676.511c-1.335 0-2.441-.29-3.316-.869-.875-.58-1.429-1.426-1.662-2.54l1.91-.477c.181.704.525 1.233 1.031 1.585.511.352 1.179.528 2.003.528.937 0 1.681-.198 2.233-.596.556-.404.835-.886.835-1.449 0-.455-.159-.835-.477-1.142-.319-.313-.807-.545-1.466-.699l-2.182-.511c-1.199-.284-2.08-.725-2.642-1.321-.557-.603-.835-1.355-.835-2.259 0-.738.207-1.392.622-1.96.42-.568.991-1.014 1.713-1.338.727-.324 1.551-.486 2.471-.486 1.296 0 2.313.284 3.052.852.744.569 1.272 1.319 1.585 2.25z"/><path d="m668.897 142.329v7.875h-2.011v-13.09h1.943v2.045h.171c.306-.665.772-1.199 1.397-1.602.625-.409 1.432-.614 2.421-.614.886 0 1.662.182 2.327.546.664.358 1.181.903 1.551 1.636.369.727.554 1.648.554 2.761v8.318h-2.012v-8.181c0-1.029-.267-1.83-.801-2.404-.534-.579-1.267-.869-2.199-.869-.642 0-1.216.139-1.721.418-.5.278-.895.684-1.185 1.218s-.435 1.182-.435 1.943z"/><path d="m657.884 150.477c-1.182 0-2.219-.281-3.111-.844-.886-.562-1.579-1.349-2.079-2.36-.495-1.012-.742-2.194-.742-3.546 0-1.363.247-2.554.742-3.571.5-1.017 1.193-1.807 2.079-2.369.892-.563 1.929-.844 3.111-.844s2.216.281 3.102.844c.892.562 1.585 1.352 2.08 2.369.5 1.017.75 2.208.75 3.571 0 1.352-.25 2.534-.75 3.546-.495 1.011-1.188 1.798-2.08 2.36-.886.563-1.92.844-3.102.844zm0-1.807c.898 0 1.636-.23 2.216-.69.579-.46 1.008-1.065 1.287-1.815.278-.75.417-1.563.417-2.438s-.139-1.69-.417-2.446c-.279-.756-.708-1.366-1.287-1.832-.58-.466-1.318-.699-2.216-.699s-1.637.233-2.216.699c-.58.466-1.009 1.076-1.287 1.832s-.418 1.571-.418 2.446.14 1.688.418 2.438.707 1.355 1.287 1.815c.579.46 1.318.69 2.216.69z"/><path d="m646.87 150.204v-13.091h2.012v13.091zm1.023-15.272c-.392 0-.73-.134-1.014-.401-.279-.267-.418-.588-.418-.963s.139-.696.418-.963c.284-.267.622-.401 1.014-.401s.727.134 1.006.401c.284.267.426.588.426.963s-.142.696-.426.963c-.279.267-.614.401-1.006.401z"/><path d="m643.845 137.113v1.705h-6.784v-1.705zm-4.807-3.136h2.011v12.477c0 .569.083.995.247 1.279.171.278.387.466.648.562.267.091.548.137.844.137.222 0 .403-.012.545-.034.142-.029.256-.052.341-.069l.409 1.807c-.136.051-.326.102-.571.154-.244.056-.554.085-.929.085-.568 0-1.125-.122-1.67-.367-.54-.244-.989-.616-1.347-1.116-.352-.5-.528-1.131-.528-1.892z"/><path d="m628.48 150.511c-.829 0-1.582-.156-2.258-.468-.676-.319-1.213-.776-1.611-1.373-.398-.602-.596-1.329-.596-2.181 0-.75.147-1.358.443-1.824.295-.472.69-.841 1.184-1.108.495-.267 1.04-.466 1.637-.597.602-.136 1.207-.244 1.815-.324.796-.102 1.44-.179 1.935-.23.5-.057.863-.15 1.091-.281.233-.131.349-.358.349-.682v-.068c0-.841-.23-1.494-.69-1.96-.455-.466-1.145-.699-2.071-.699-.961 0-1.713.21-2.259.631-.545.42-.929.869-1.15 1.346l-1.909-.682c.34-.795.795-1.414 1.363-1.858.574-.449 1.199-.761 1.875-.937.682-.182 1.352-.273 2.012-.273.42 0 .903.051 1.448.154.552.096 1.083.298 1.594.605.517.306.946.77 1.287 1.389s.511 1.449.511 2.488v8.625h-2.011v-1.772h-.102c-.137.284-.364.588-.682.912s-.741.599-1.27.826c-.528.228-1.173.341-1.935.341zm.307-1.807c.796 0 1.466-.156 2.012-.468.551-.313.966-.716 1.244-1.211.284-.494.426-1.014.426-1.559v-1.841c-.085.102-.273.196-.562.281-.285.08-.614.151-.989.213-.369.057-.73.108-1.082.154-.347.039-.628.074-.844.102-.523.068-1.012.179-1.466.332-.449.148-.813.372-1.091.674-.273.295-.409.698-.409 1.21 0 .699.258 1.227.775 1.585.523.352 1.185.528 1.986.528z"/><path d="m616.54 150.477c-1.227 0-2.284-.29-3.17-.869-.887-.58-1.569-1.378-2.046-2.395s-.716-2.179-.716-3.486c0-1.329.245-2.503.733-3.52.495-1.022 1.182-1.821 2.063-2.395.886-.579 1.92-.869 3.102-.869.92 0 1.75.171 2.489.511.738.341 1.343.819 1.815 1.432.472.614.764 1.33.878 2.148h-2.012c-.153-.597-.494-1.125-1.022-1.585-.523-.466-1.228-.699-2.114-.699-.784 0-1.471.204-2.062.614-.586.403-1.043.974-1.373 1.713-.323.733-.485 1.593-.485 2.582 0 1.011.159 1.892.477 2.642.324.75.778 1.332 1.364 1.747.59.415 1.284.622 2.079.622.523 0 .997-.091 1.423-.272.427-.182.787-.444 1.083-.784.295-.341.505-.75.63-1.228h2.012c-.114.773-.395 1.469-.844 2.088-.443.614-1.031 1.103-1.764 1.466-.727.358-1.574.537-2.54.537z"/><path d="m605.527 150.204v-13.091h2.011v13.091zm1.022-15.272c-.392 0-.73-.134-1.014-.401-.278-.267-.418-.588-.418-.963s.14-.696.418-.963c.284-.267.622-.401 1.014-.401s.728.134 1.006.401c.284.267.426.588.426.963s-.142.696-.426.963c-.278.267-.614.401-1.006.401z"/><path d="m601.843 132.75v17.455h-2.012v-17.455z"/><path d="m585.206 155.114v-18h1.943v2.079h.239c.148-.227.352-.517.614-.869.267-.358.647-.676 1.142-.955.5-.284 1.176-.426 2.028-.426 1.102 0 2.074.276 2.915.827s1.497 1.332 1.969 2.344c.471 1.011.707 2.204.707 3.579 0 1.386-.236 2.588-.707 3.605-.472 1.012-1.125 1.796-1.961 2.352-.835.552-1.798.827-2.889.827-.841 0-1.514-.139-2.02-.417-.505-.285-.894-.606-1.167-.963-.273-.364-.483-.665-.631-.904h-.17v6.921zm1.978-11.455c0 .989.144 1.861.434 2.616.29.75.713 1.339 1.27 1.765.557.42 1.239.63 2.046.63.84 0 1.542-.221 2.105-.664.568-.449.994-1.052 1.278-1.807.29-.762.435-1.608.435-2.54 0-.92-.142-1.75-.426-2.489-.279-.744-.702-1.332-1.27-1.764-.563-.437-1.27-.656-2.122-.656-.819 0-1.506.207-2.063.622-.557.409-.977.983-1.261 1.722-.284.733-.426 1.588-.426 2.565z"/><path d="m570.581 155.114v-18h1.943v2.079h.239c.148-.227.352-.517.614-.869.267-.358.647-.676 1.142-.955.5-.284 1.176-.426 2.028-.426 1.102 0 2.074.276 2.915.827s1.497 1.332 1.969 2.344c.471 1.011.707 2.204.707 3.579 0 1.386-.236 2.588-.707 3.605-.472 1.012-1.125 1.796-1.961 2.352-.835.552-1.798.827-2.889.827-.841 0-1.514-.139-2.02-.417-.505-.285-.894-.606-1.167-.963-.273-.364-.483-.665-.631-.904h-.17v6.921zm1.978-11.455c0 .989.144 1.861.434 2.616.29.75.713 1.339 1.27 1.765.557.42 1.239.63 2.046.63.84 0 1.542-.221 2.105-.664.568-.449.994-1.052 1.278-1.807.29-.762.435-1.608.435-2.54 0-.92-.142-1.75-.426-2.489-.279-.744-.702-1.332-1.27-1.764-.563-.437-1.27-.656-2.122-.656-.819 0-1.506.207-2.063.622-.557.409-.977.983-1.261 1.722-.284.733-.426 1.588-.426 2.565z"/><path d="m560.91 150.511c-.829 0-1.582-.156-2.258-.468-.677-.319-1.213-.776-1.611-1.373-.398-.602-.597-1.329-.597-2.181 0-.75.148-1.358.443-1.824.296-.472.691-.841 1.185-1.108s1.04-.466 1.636-.597c.603-.136 1.208-.244 1.816-.324.795-.102 1.44-.179 1.934-.23.5-.057.864-.15 1.091-.281.233-.131.35-.358.35-.682v-.068c0-.841-.23-1.494-.691-1.96-.454-.466-1.144-.699-2.071-.699-.96 0-1.713.21-2.258.631-.546.42-.929.869-1.151 1.346l-1.909-.682c.341-.795.796-1.414 1.364-1.858.574-.449 1.199-.761 1.875-.937.682-.182 1.352-.273 2.011-.273.421 0 .904.051 1.449.154.551.096 1.082.298 1.594.605.517.306.946.77 1.287 1.389s.511 1.449.511 2.488v8.625h-2.011v-1.772h-.102c-.137.284-.364.588-.682.912s-.742.599-1.27.826c-.529.228-1.174.341-1.935.341zm.307-1.807c.795 0 1.466-.156 2.011-.468.551-.313.966-.716 1.245-1.211.284-.494.426-1.014.426-1.559v-1.841c-.085.102-.273.196-.563.281-.284.08-.613.151-.988.213-.37.057-.73.108-1.083.154-.346.039-.628.074-.843.102-.523.068-1.012.179-1.466.332-.449.148-.813.372-1.091.674-.273.295-.409.698-.409 1.21 0 .699.258 1.227.775 1.585.523.352 1.185.528 1.986.528z"/><path d="m535.674 150.205v-17.455h2.012v6.443h.17c.148-.227.352-.517.614-.869.267-.358.647-.676 1.142-.955.5-.284 1.176-.426 2.028-.426 1.103 0 2.074.276 2.915.827s1.497 1.332 1.969 2.344c.471 1.011.707 2.204.707 3.579 0 1.387-.236 2.588-.707 3.605-.472 1.012-1.125 1.796-1.96 2.353-.836.551-1.799.826-2.89.826-.841 0-1.514-.139-2.02-.417-.505-.284-.894-.605-1.167-.963-.273-.364-.483-.665-.631-.904h-.238v2.012zm1.978-6.546c0 .989.144 1.861.434 2.617.29.75.713 1.338 1.27 1.764.557.42 1.239.63 2.046.63.841 0 1.542-.221 2.105-.664.568-.449.994-1.051 1.278-1.807.29-.762.435-1.608.435-2.54 0-.92-.142-1.75-.426-2.489-.279-.744-.702-1.332-1.27-1.764-.563-.437-1.27-.656-2.122-.656-.819 0-1.506.207-2.063.622-.557.409-.977.983-1.261 1.722-.284.733-.426 1.588-.426 2.565z"/><path d="m526.921 150.477c-1.261 0-2.349-.278-3.264-.835-.909-.563-1.611-1.347-2.105-2.352-.488-1.012-.733-2.188-.733-3.529s.245-2.522.733-3.545c.494-1.029 1.182-1.83 2.063-2.404.886-.579 1.92-.869 3.102-.869.682 0 1.355.114 2.02.341s1.27.597 1.815 1.108c.546.506.98 1.176 1.304 2.011.324.836.486 1.864.486 3.086v.852h-10.091v-1.739h8.045c0-.738-.147-1.398-.443-1.977-.289-.58-.704-1.037-1.244-1.372-.534-.335-1.165-.503-1.892-.503-.801 0-1.494.199-2.08.597-.579.392-1.025.903-1.338 1.534-.312.63-.468 1.306-.468 2.028v1.159c0 .989.17 1.827.511 2.514.347.682.827 1.202 1.44 1.56.614.352 1.327.528 2.139.528.529 0 1.006-.073 1.432-.221.432-.154.804-.381 1.117-.682.312-.307.554-.688.724-1.142l1.943.545c-.204.659-.548 1.239-1.031 1.739-.483.494-1.079.881-1.79 1.159-.71.273-1.508.409-2.395.409z"/><path d="m505.344 150.204-3.989-13.09h2.114l2.83 10.022h.136l2.795-10.022h2.148l2.762 9.988h.136l2.829-9.988h2.114l-3.989 13.09h-1.977l-2.863-10.056h-.205l-2.864 10.056z"/><path d="m486.287 155.386c-.971 0-1.807-.125-2.505-.375-.699-.244-1.282-.568-1.748-.971-.46-.398-.826-.824-1.099-1.279l1.602-1.125c.182.239.412.512.691.818.278.313.659.583 1.142.81.488.233 1.127.35 1.917.35 1.057 0 1.929-.256 2.617-.767.687-.512 1.031-1.313 1.031-2.404v-2.659h-.17c-.148.239-.358.534-.631.886-.267.347-.654.657-1.159.929-.5.267-1.176.401-2.029.401-1.056 0-2.005-.25-2.846-.75-.835-.5-1.497-1.227-1.986-2.182-.483-.954-.724-2.114-.724-3.477 0-1.341.235-2.509.707-3.503.471-1 1.128-1.773 1.969-2.318.841-.551 1.812-.827 2.914-.827.853 0 1.529.142 2.029.426.506.279.892.597 1.159.955.273.352.483.642.631.869h.204v-2.079h1.943v13.465c0 1.125-.255 2.04-.767 2.745-.505.71-1.187 1.23-2.045 1.559-.852.336-1.801.503-2.847.503zm-.068-7.193c.807 0 1.489-.185 2.046-.554.556-.369.98-.9 1.269-1.594.29-.693.435-1.522.435-2.488 0-.943-.142-1.776-.426-2.497-.284-.722-.705-1.287-1.261-1.696-.557-.41-1.245-.614-2.063-.614-.852 0-1.562.216-2.131.648-.562.431-.985 1.011-1.27 1.738-.278.728-.417 1.534-.417 2.421 0 .909.142 1.713.426 2.412.29.693.716 1.238 1.278 1.636.569.392 1.273.588 2.114.588z"/><path d="m468.975 142.329v7.875h-2.011v-13.09h1.943v2.045h.171c.307-.665.772-1.199 1.397-1.602.625-.409 1.432-.614 2.421-.614.886 0 1.662.182 2.327.546.664.358 1.181.903 1.551 1.636.369.727.554 1.648.554 2.761v8.318h-2.012v-8.181c0-1.029-.267-1.83-.801-2.404-.534-.579-1.267-.869-2.199-.869-.642 0-1.216.139-1.721.418-.5.278-.895.684-1.185 1.218s-.435 1.182-.435 1.943z"/><path d="m461.269 150.204v-13.091h2.011v13.091zm1.022-15.272c-.392 0-.73-.134-1.014-.401-.278-.267-.417-.588-.417-.963s.139-.696.417-.963c.284-.267.622-.401 1.014-.401.393 0 .728.134 1.006.401.284.267.426.588.426.963s-.142.696-.426.963c-.278.267-.613.401-1.006.401z"/><path d="m447.909 150.204v-1.534l7.432-9.545v-.136h-7.193v-1.875h9.784v1.602l-7.227 9.477v.136h7.466v1.875z"/><path d="m438.613 150.511c-.829 0-1.582-.156-2.258-.468-.676-.319-1.213-.776-1.611-1.373-.398-.602-.597-1.329-.597-2.181 0-.75.148-1.358.444-1.824.295-.472.69-.841 1.184-1.108s1.04-.466 1.637-.597c.602-.136 1.207-.244 1.815-.324.795-.102 1.44-.179 1.935-.23.5-.057.863-.15 1.09-.281.233-.131.35-.358.35-.682v-.068c0-.841-.23-1.494-.69-1.96-.455-.466-1.145-.699-2.071-.699-.961 0-1.714.21-2.259.631-.545.42-.929.869-1.151 1.346l-1.909-.682c.341-.795.796-1.414 1.364-1.858.574-.449 1.199-.761 1.875-.937.682-.182 1.352-.273 2.011-.273.421 0 .904.051 1.449.154.551.096 1.083.298 1.594.605.517.306.946.77 1.287 1.389s.511 1.449.511 2.488v8.625h-2.011v-1.772h-.102c-.137.284-.364.588-.682.912s-.742.599-1.27.826c-.529.228-1.173.341-1.935.341zm.307-1.807c.796 0 1.466-.156 2.011-.468.552-.313.966-.716 1.245-1.211.284-.494.426-1.014.426-1.559v-1.841c-.085.102-.273.196-.563.281-.284.08-.613.151-.988.213-.37.057-.73.108-1.083.154-.346.039-.627.074-.843.102-.523.068-1.012.179-1.466.332-.449.148-.813.372-1.091.674-.273.295-.409.698-.409 1.21 0 .699.258 1.227.775 1.585.523.352 1.185.528 1.986.528z"/><path d="m413.902 150.204v-13.09h1.943v2.045h.17c.273-.699.713-1.241 1.321-1.628.608-.392 1.338-.588 2.191-.588.863 0 1.582.196 2.156.588.579.387 1.031.929 1.355 1.628h.136c.336-.676.838-1.213 1.509-1.611.67-.403 1.474-.605 2.412-.605 1.17 0 2.128.367 2.872 1.1.744.727 1.116 1.86 1.116 3.4v8.761h-2.011v-8.761c0-.966-.264-1.656-.793-2.071-.528-.415-1.15-.622-1.866-.622-.92 0-1.634.278-2.139.835-.506.551-.759 1.25-.759 2.097v8.522h-2.045v-8.965c0-.745-.242-1.344-.725-1.799-.483-.46-1.105-.69-1.866-.69-.523 0-1.011.139-1.466.418-.449.278-.813.664-1.091 1.159-.273.488-.409 1.054-.409 1.696v8.181z"/><path d="m404.23 150.511c-.829 0-1.582-.156-2.258-.468-.676-.319-1.213-.776-1.611-1.373-.398-.602-.596-1.329-.596-2.181 0-.75.147-1.358.443-1.824.295-.472.69-.841 1.184-1.108.495-.267 1.04-.466 1.637-.597.602-.136 1.207-.244 1.815-.324.796-.102 1.44-.179 1.935-.23.5-.057.863-.15 1.091-.281.233-.131.349-.358.349-.682v-.068c0-.841-.23-1.494-.69-1.96-.455-.466-1.145-.699-2.071-.699-.961 0-1.713.21-2.259.631-.545.42-.929.869-1.15 1.346l-1.909-.682c.34-.795.795-1.414 1.363-1.858.574-.449 1.199-.761 1.875-.937.682-.182 1.352-.273 2.012-.273.42 0 .903.051 1.448.154.552.096 1.083.298 1.594.605.517.306.946.77 1.287 1.389s.511 1.449.511 2.488v8.625h-2.011v-1.772h-.102c-.137.284-.364.588-.682.912s-.741.599-1.27.826c-.528.228-1.173.341-1.935.341zm.307-1.807c.796 0 1.466-.156 2.012-.468.551-.313.966-.716 1.244-1.211.284-.494.426-1.014.426-1.559v-1.841c-.085.102-.273.196-.562.281-.285.08-.614.151-.989.213-.369.057-.73.108-1.082.154-.347.039-.628.074-.844.102-.523.068-1.012.179-1.466.332-.449.148-.813.372-1.091.674-.273.295-.409.698-.409 1.21 0 .699.258 1.227.775 1.585.523.352 1.185.528 1.986.528z"/><path d="m385.148 150.477c-1.261 0-2.349-.278-3.264-.835-.909-.563-1.611-1.347-2.105-2.352-.489-1.012-.733-2.188-.733-3.529s.244-2.522.733-3.545c.494-1.029 1.182-1.83 2.062-2.404.887-.579 1.921-.869 3.103-.869.681 0 1.355.114 2.019.341.665.227 1.27.597 1.816 1.108.545.506.98 1.176 1.304 2.011.324.836.486 1.864.486 3.086v.852h-10.091v-1.739h8.045c0-.738-.148-1.398-.443-1.977-.29-.58-.705-1.037-1.244-1.372-.535-.335-1.165-.503-1.892-.503-.802 0-1.495.199-2.08.597-.58.392-1.026.903-1.338 1.534-.313.63-.469 1.306-.469 2.028v1.159c0 .989.171 1.827.512 2.514.346.682.826 1.202 1.44 1.56.613.352 1.327.528 2.139.528.528 0 1.006-.073 1.432-.221.432-.154.804-.381 1.116-.682.313-.307.554-.688.725-1.142l1.943.545c-.205.659-.548 1.239-1.031 1.739-.483.494-1.08.881-1.79 1.159-.71.273-1.509.409-2.395.409z"/><path d="m376.774 137.113v1.705h-6.784v-1.705zm-4.806-3.136h2.011v12.477c0 .569.082.995.247 1.279.171.278.387.466.648.562.267.091.548.137.844.137.221 0 .403-.012.545-.034.142-.029.256-.052.341-.069l.409 1.807c-.136.051-.327.102-.571.154-.244.056-.554.085-.929.085-.568 0-1.125-.122-1.67-.367-.54-.244-.989-.616-1.347-1.116-.352-.5-.528-1.131-.528-1.892z"/><path d="m361.41 150.511c-.829 0-1.582-.156-2.258-.468-.677-.319-1.213-.776-1.611-1.373-.398-.602-.597-1.329-.597-2.181 0-.75.148-1.358.443-1.824.296-.472.691-.841 1.185-1.108s1.04-.466 1.636-.597c.603-.136 1.208-.244 1.816-.324.795-.102 1.44-.179 1.934-.23.5-.057.864-.15 1.091-.281.233-.131.35-.358.35-.682v-.068c0-.841-.23-1.494-.691-1.96-.454-.466-1.144-.699-2.071-.699-.96 0-1.713.21-2.258.631-.546.42-.929.869-1.151 1.346l-1.909-.682c.341-.795.796-1.414 1.364-1.858.574-.449 1.199-.761 1.875-.937.682-.182 1.352-.273 2.011-.273.421 0 .904.051 1.449.154.551.096 1.082.298 1.594.605.517.306.946.77 1.287 1.389s.511 1.449.511 2.488v8.625h-2.011v-1.772h-.103c-.136.284-.363.588-.681.912-.319.324-.742.599-1.27.826-.529.228-1.174.341-1.935.341zm.307-1.807c.795 0 1.466-.156 2.011-.468.551-.313.966-.716 1.245-1.211.284-.494.426-1.014.426-1.559v-1.841c-.085.102-.273.196-.563.281-.284.08-.613.151-.988.213-.37.057-.73.108-1.083.154-.346.039-.628.074-.844.102-.522.068-1.011.179-1.465.332-.449.148-.813.372-1.091.674-.273.295-.409.698-.409 1.21 0 .699.258 1.227.775 1.585.523.352 1.185.528 1.986.528z"/><path d="m349.078 150.477c-1.262 0-2.35-.278-3.264-.835-.91-.563-1.611-1.347-2.106-2.352-.488-1.012-.733-2.188-.733-3.529s.245-2.522.733-3.545c.495-1.029 1.182-1.83 2.063-2.404.886-.579 1.92-.869 3.102-.869.682 0 1.355.114 2.02.341s1.27.597 1.815 1.108c.546.506.981 1.176 1.304 2.011.324.836.486 1.864.486 3.086v.852h-10.091v-1.739h8.046c0-.738-.148-1.398-.443-1.977-.29-.58-.705-1.037-1.245-1.372-.534-.335-1.165-.503-1.892-.503-.801 0-1.494.199-2.079.597-.58.392-1.026.903-1.338 1.534-.313.63-.469 1.306-.469 2.028v1.159c0 .989.17 1.827.511 2.514.347.682.827 1.202 1.441 1.56.613.352 1.326.528 2.139.528.528 0 1.005-.073 1.432-.221.431-.154.804-.381 1.116-.682.313-.307.554-.688.724-1.142l1.944.545c-.205.659-.549 1.239-1.032 1.739-.483.494-1.079.881-1.789 1.159-.711.273-1.509.409-2.395.409z"/><path d="m335.058 150.204v-13.091h1.943v1.978h.136c.239-.648.671-1.174 1.296-1.577s1.329-.605 2.113-.605c.148 0 .333.003.554.008.222.006.39.015.503.026v2.045c-.068-.017-.224-.042-.468-.076-.239-.04-.492-.06-.759-.06-.636 0-1.205.134-1.705.401-.494.261-.886.625-1.176 1.091-.284.46-.426.985-.426 1.576v8.284z"/><path d="m326.97 150.477c-1.227 0-2.284-.29-3.171-.869-.886-.58-1.568-1.378-2.045-2.395s-.716-2.179-.716-3.486c0-1.329.244-2.503.733-3.52.494-1.022 1.182-1.821 2.062-2.395.887-.579 1.921-.869 3.103-.869.92 0 1.75.171 2.488.511.739.341 1.344.819 1.816 1.432.471.614.764 1.33.878 2.148h-2.012c-.153-.597-.494-1.125-1.023-1.585-.522-.466-1.227-.699-2.113-.699-.784 0-1.472.204-2.063.614-.585.403-1.042.974-1.372 1.713-.324.733-.486 1.593-.486 2.582 0 1.011.159 1.892.478 2.642.323.75.778 1.332 1.363 1.747.591.415 1.284.622 2.08.622.523 0 .997-.091 1.423-.272.426-.182.787-.444 1.082-.784.296-.341.506-.75.631-1.228h2.012c-.114.773-.395 1.469-.844 2.088-.443.614-1.031 1.103-1.764 1.466-.728.358-1.574.537-2.54.537z"/><path d="m305.899 150.477c-1.181 0-2.218-.281-3.11-.844-.887-.562-1.58-1.349-2.08-2.36-.494-1.012-.741-2.194-.741-3.546 0-1.363.247-2.554.741-3.571.5-1.017 1.193-1.807 2.08-2.369.892-.563 1.929-.844 3.11-.844 1.182 0 2.216.281 3.103.844.892.562 1.585 1.352 2.079 2.369.5 1.017.75 2.208.75 3.571 0 1.352-.25 2.534-.75 3.546-.494 1.011-1.187 1.798-2.079 2.36-.887.563-1.921.844-3.103.844zm0-1.807c.898 0 1.637-.23 2.216-.69.58-.46 1.009-1.065 1.287-1.815.279-.75.418-1.563.418-2.438s-.139-1.69-.418-2.446c-.278-.756-.707-1.366-1.287-1.832-.579-.466-1.318-.699-2.216-.699-.897 0-1.636.233-2.215.699-.58.466-1.009 1.076-1.287 1.832-.279.756-.418 1.571-.418 2.446s.139 1.688.418 2.438c.278.75.707 1.355 1.287 1.815.579.46 1.318.69 2.215.69z"/><path d="m297.696 137.113v1.705h-6.784v-1.705zm-4.806-3.136h2.011v12.477c0 .569.082.995.247 1.279.17.278.386.466.648.562.267.091.548.137.844.137.221 0 .403-.012.545-.034.142-.029.256-.052.341-.069l.409 1.807c-.136.051-.327.102-.571.154-.244.056-.554.085-.929.085-.568 0-1.125-.122-1.67-.367-.54-.244-.989-.616-1.347-1.116-.352-.5-.528-1.131-.528-1.892z"/><path d="m747.939 122.114c-.341 0-.645-.029-.912-.086-.267-.051-.451-.102-.554-.153l.512-1.773c.488.125.92.171 1.295.137.375-.035.708-.202.997-.503.296-.296.566-.776.81-1.441l.375-1.022-4.841-13.159h2.182l3.614 10.431h.136l3.614-10.431h2.181l-5.556 15c-.25.676-.56 1.235-.929 1.678-.37.449-.799.782-1.287.998-.483.216-1.029.324-1.637.324z"/><path d="m743.377 107.045-1.806.512c-.114-.301-.282-.594-.503-.878-.216-.29-.512-.528-.887-.716-.375-.187-.855-.281-1.44-.281-.801 0-1.469.184-2.003.554-.528.363-.792.826-.792 1.389 0 .5.181.895.545 1.185.364.289.932.531 1.705.724l1.943.477c1.17.284 2.042.719 2.616 1.304.574.58.861 1.327.861 2.242 0 .75-.216 1.42-.648 2.011-.426.591-1.022 1.057-1.789 1.398s-1.66.511-2.677.511c-1.335 0-2.44-.29-3.315-.869-.875-.58-1.429-1.426-1.662-2.54l1.909-.477c.182.704.526 1.233 1.031 1.585.512.352 1.179.528 2.003.528.938 0 1.682-.198 2.233-.596.557-.404.836-.886.836-1.449 0-.455-.16-.835-.478-1.142-.318-.313-.807-.545-1.466-.699l-2.181-.511c-1.199-.284-2.08-.725-2.643-1.321-.556-.603-.835-1.355-.835-2.259 0-.738.208-1.392.622-1.96.421-.568.992-1.014 1.713-1.338.728-.324 1.552-.486 2.472-.486 1.296 0 2.313.284 3.051.852.745.569 1.273 1.319 1.585 2.25z"/><path d="m724.434 117.511c-.83 0-1.583-.156-2.259-.468-.676-.319-1.213-.776-1.611-1.373-.398-.602-.596-1.329-.596-2.181 0-.75.147-1.358.443-1.824.295-.472.69-.841 1.184-1.108.495-.267 1.04-.466 1.637-.597.602-.136 1.207-.244 1.815-.324.796-.102 1.441-.179 1.935-.23.5-.057.863-.15 1.091-.281.233-.131.349-.358.349-.682v-.068c0-.841-.23-1.494-.69-1.96-.455-.466-1.145-.699-2.071-.699-.96 0-1.713.21-2.259.631-.545.42-.929.869-1.15 1.346l-1.909-.682c.341-.795.795-1.414 1.363-1.858.574-.449 1.199-.761 1.875-.937.682-.182 1.353-.273 2.012-.273.42 0 .903.051 1.449.154.551.096 1.082.298 1.593.605.517.306.946.77 1.287 1.389s.512 1.449.512 2.488v8.625h-2.012v-1.772h-.102c-.136.284-.364.588-.682.912s-.741.599-1.27.826c-.528.228-1.173.341-1.934.341zm.306-1.807c.796 0 1.466-.156 2.012-.468.551-.313.966-.716 1.244-1.21.284-.495.426-1.015.426-1.56v-1.841c-.085.102-.273.196-.562.281-.284.08-.614.151-.989.213-.369.057-.73.108-1.082.154-.347.039-.628.074-.844.102-.523.068-1.011.179-1.466.332-.449.148-.812.372-1.091.674-.273.295-.409.698-.409 1.21 0 .699.259 1.227.776 1.585.522.352 1.184.528 1.985.528z"/><path d="m712.101 117.477c-1.261 0-2.349-.278-3.264-.835-.909-.563-1.611-1.347-2.105-2.352-.489-1.012-.733-2.188-.733-3.529s.244-2.522.733-3.545c.494-1.029 1.182-1.83 2.062-2.404.887-.579 1.921-.869 3.103-.869.681 0 1.355.114 2.02.341.664.227 1.269.597 1.815 1.108.545.506.98 1.176 1.304 2.011.324.836.486 1.864.486 3.086v.852h-10.091v-1.739h8.045c0-.738-.148-1.398-.443-1.977-.29-.58-.705-1.037-1.244-1.372-.534-.335-1.165-.503-1.892-.503-.802 0-1.495.199-2.08.597-.579.392-1.025.903-1.338 1.534-.312.63-.469 1.306-.469 2.028v1.159c0 .989.171 1.827.512 2.514.346.682.826 1.202 1.44 1.56.614.352 1.327.528 2.139.528.529 0 1.006-.073 1.432-.221.432-.154.804-.381 1.116-.682.313-.307.554-.688.725-1.142l1.943.545c-.204.659-.548 1.239-1.031 1.739-.483.494-1.08.881-1.79 1.159-.71.273-1.508.409-2.395.409z"/><path d="m696.837 104.113v1.705h-6.784v-1.705zm-4.807-3.136h2.012v12.477c0 .569.082.995.247 1.279.17.278.386.466.647.562.267.091.549.137.844.137.222 0 .404-.012.546-.034.142-.029.255-.052.341-.069l.409 1.807c-.137.051-.327.102-.571.154-.245.056-.554.085-.929.085-.569 0-1.125-.122-1.671-.367-.54-.244-.989-.616-1.346-1.116-.353-.5-.529-1.131-.529-1.892z"/><path d="m685.448 117.204v-13.091h2.012v13.091zm1.023-15.272c-.392 0-.73-.134-1.014-.401-.278-.267-.418-.588-.418-.963s.14-.696.418-.9631c.284-.267.622-.4006 1.014-.4006s.727.1336 1.006.4006c.284.2671.426.5881.426.9631s-.142.696-.426.963c-.279.267-.614.401-1.006.401z"/><path d="m675.432 107.045-1.807.512c-.113-.301-.281-.594-.503-.878-.215-.29-.511-.528-.886-.716-.375-.187-.855-.281-1.44-.281-.801 0-1.469.184-2.003.554-.529.363-.793.826-.793 1.389 0 .5.182.895.546 1.185.363.289.932.531 1.704.724l1.943.477c1.171.284 2.043.719 2.617 1.304.574.58.861 1.327.861 2.242 0 .75-.216 1.42-.648 2.011-.426.591-1.023 1.057-1.79 1.398s-1.659.511-2.676.511c-1.335 0-2.44-.29-3.315-.869-.875-.58-1.429-1.426-1.662-2.54l1.909-.477c.182.704.525 1.233 1.031 1.585.512.352 1.179.528 2.003.528.938 0 1.682-.198 2.233-.596.557-.404.835-.886.835-1.449 0-.455-.159-.835-.477-1.142-.318-.313-.807-.545-1.466-.699l-2.182-.511c-1.199-.284-2.079-.725-2.642-1.321-.557-.603-.835-1.355-.835-2.259 0-.738.207-1.392.622-1.96.421-.568.992-1.014 1.713-1.338.727-.324 1.551-.486 2.472-.486 1.295 0 2.312.284 3.051.852.744.569 1.273 1.319 1.585 2.25z"/><path d="m657.679 117.477c-1.261 0-2.349-.278-3.264-.835-.909-.563-1.611-1.347-2.105-2.352-.489-1.012-.733-2.188-.733-3.529s.244-2.522.733-3.545c.494-1.029 1.182-1.83 2.062-2.404.887-.579 1.921-.869 3.103-.869.682 0 1.355.114 2.02.341.664.227 1.27.597 1.815 1.108.545.506.98 1.176 1.304 2.011.324.836.486 1.864.486 3.086v.852h-10.091v-1.739h8.045c0-.738-.147-1.398-.443-1.977-.29-.58-.704-1.037-1.244-1.372-.534-.335-1.165-.503-1.892-.503-.801 0-1.495.199-2.08.597-.579.392-1.025.903-1.338 1.534-.312.63-.469 1.306-.469 2.028v1.159c0 .989.171 1.827.512 2.514.346.682.826 1.202 1.44 1.56.614.352 1.327.528 2.139.528.529 0 1.006-.073 1.432-.221.432-.154.804-.381 1.117-.682.312-.307.554-.688.724-1.142l1.943.545c-.204.659-.548 1.239-1.031 1.739-.483.494-1.08.881-1.79 1.159-.71.273-1.508.409-2.395.409z"/><path d="m641.55 112.432-.034-2.489h.409l5.727-5.829h2.489l-6.102 6.17h-.171zm-1.875 4.773v-17.455h2.011v17.455zm8.318 0-5.113-6.478 1.431-1.397 6.239 7.875z"/><path d="m630.004 117.511c-.83 0-1.583-.156-2.259-.468-.676-.319-1.213-.776-1.61-1.373-.398-.602-.597-1.329-.597-2.181 0-.75.148-1.358.443-1.824.296-.472.69-.841 1.185-1.108.494-.267 1.04-.466 1.636-.597.602-.136 1.208-.244 1.816-.324.795-.102 1.44-.179 1.934-.23.5-.057.864-.15 1.091-.281.233-.131.35-.358.35-.682v-.068c0-.841-.231-1.494-.691-1.96-.454-.466-1.145-.699-2.071-.699-.96 0-1.713.21-2.258.631-.546.42-.929.869-1.151 1.346l-1.909-.682c.341-.795.795-1.414 1.364-1.858.573-.449 1.198-.761 1.875-.937.681-.182 1.352-.273 2.011-.273.42 0 .903.051 1.449.154.551.096 1.082.298 1.594.605.517.306.946.77 1.287 1.389.34.619.511 1.449.511 2.488v8.625h-2.011v-1.772h-.103c-.136.284-.363.588-.682.912-.318.324-.741.599-1.269.826-.529.228-1.174.341-1.935.341zm.307-1.807c.795 0 1.466-.156 2.011-.468.551-.313.966-.716 1.244-1.21.284-.495.427-1.015.427-1.56v-1.841c-.086.102-.273.196-.563.281-.284.08-.614.151-.989.213-.369.057-.73.108-1.082.154-.347.039-.628.074-.844.102-.522.068-1.011.179-1.466.332-.449.148-.812.372-1.091.674-.272.295-.409.698-.409 1.21 0 .699.259 1.227.776 1.585.523.352 1.185.528 1.986.528z"/><path d="m605.292 117.204v-13.09h1.943v2.045h.171c.273-.699.713-1.241 1.321-1.628.608-.392 1.338-.588 2.19-.588.864 0 1.583.196 2.156.588.58.387 1.032.929 1.356 1.628h.136c.335-.676.838-1.213 1.508-1.611.671-.403 1.475-.605 2.412-.605 1.171 0 2.128.367 2.873 1.1.744.727 1.116 1.86 1.116 3.4v8.761h-2.011v-8.761c0-.966-.265-1.656-.793-2.071s-1.151-.622-1.866-.622c-.921 0-1.634.278-2.14.835-.505.551-.758 1.25-.758 2.097v8.522h-2.046v-8.965c0-.745-.241-1.344-.724-1.799-.483-.46-1.105-.69-1.866-.69-.523 0-1.012.139-1.466.418-.449.278-.813.664-1.091 1.159-.273.488-.409 1.054-.409 1.696v8.181z"/><path d="m595.517 104.113v1.705h-6.784v-1.705zm-4.807-3.136h2.011v12.477c0 .569.083.995.247 1.279.171.278.387.466.648.562.267.091.548.137.844.137.221 0 .403-.012.545-.034.142-.029.256-.052.341-.069l.409 1.807c-.136.051-.326.102-.571.154-.244.056-.554.085-.929.085-.568 0-1.125-.122-1.67-.367-.54-.244-.989-.616-1.347-1.116-.352-.5-.528-1.131-.528-1.892z"/><path d="m580.152 117.511c-.829 0-1.582-.156-2.258-.468-.676-.319-1.213-.776-1.611-1.373-.398-.602-.597-1.329-.597-2.181 0-.75.148-1.358.444-1.824.295-.472.69-.841 1.184-1.108.495-.267 1.04-.466 1.637-.597.602-.136 1.207-.244 1.815-.324.795-.102 1.44-.179 1.935-.23.5-.057.863-.15 1.091-.281.232-.131.349-.358.349-.682v-.068c0-.841-.23-1.494-.69-1.96-.455-.466-1.145-.699-2.071-.699-.961 0-1.713.21-2.259.631-.545.42-.929.869-1.151 1.346l-1.909-.682c.341-.795.796-1.414 1.364-1.858.574-.449 1.199-.761 1.875-.937.682-.182 1.352-.273 2.011-.273.421 0 .904.051 1.449.154.551.096 1.083.298 1.594.605.517.306.946.77 1.287 1.389s.511 1.449.511 2.488v8.625h-2.011v-1.772h-.102c-.137.284-.364.588-.682.912s-.742.599-1.27.826c-.528.228-1.173.341-1.935.341zm.307-1.807c.796 0 1.466-.156 2.011-.468.552-.313.966-.716 1.245-1.21.284-.495.426-1.015.426-1.56v-1.841c-.085.102-.273.196-.563.281-.284.08-.613.151-.988.213-.37.057-.73.108-1.083.154-.346.039-.627.074-.843.102-.523.068-1.012.179-1.466.332-.449.148-.813.372-1.091.674-.273.295-.409.698-.409 1.21 0 .699.258 1.227.775 1.585.523.352 1.185.528 1.986.528z"/><path d="m564.132 109.33v7.875h-2.012v-17.455h2.012v6.409h.17c.307-.676.767-1.213 1.381-1.611.619-.403 1.443-.605 2.471-.605.892 0 1.674.179 2.344.537.671.352 1.191.895 1.56 1.628.375.727.562 1.653.562 2.778v8.319h-2.011v-8.182c0-1.04-.27-1.844-.81-2.412-.534-.574-1.275-.861-2.224-.861-.659 0-1.25.139-1.773.418-.517.278-.926.684-1.227 1.218-.296.534-.443 1.182-.443 1.944z"/><path d="m558.814 104.113v1.705h-6.785v-1.705zm-4.807-3.136h2.011v12.477c0 .569.082.995.247 1.279.171.278.387.466.648.562.267.091.548.137.844.137.221 0 .403-.012.545-.034.142-.029.256-.052.341-.069l.409 1.807c-.136.051-.327.102-.571.154-.244.056-.554.085-.929.085-.568 0-1.125-.122-1.67-.367-.54-.244-.989-.616-1.347-1.116-.352-.5-.528-1.131-.528-1.892z"/><path d="m542.686 99.75v17.455h-2.011v-17.455z"/><path d="m531.673 117.477c-1.182 0-2.219-.281-3.111-.844-.886-.562-1.579-1.349-2.079-2.36-.495-1.012-.742-2.194-.742-3.546 0-1.363.247-2.554.742-3.571.5-1.017 1.193-1.807 2.079-2.369.892-.563 1.929-.844 3.111-.844s2.216.281 3.102.844c.892.562 1.585 1.352 2.08 2.369.5 1.017.75 2.208.75 3.571 0 1.352-.25 2.534-.75 3.546-.495 1.011-1.188 1.798-2.08 2.36-.886.563-1.92.844-3.102.844zm0-1.807c.898 0 1.636-.23 2.216-.69.579-.46 1.008-1.065 1.287-1.815.278-.75.417-1.563.417-2.438s-.139-1.69-.417-2.446c-.279-.755-.708-1.366-1.287-1.832-.58-.466-1.318-.699-2.216-.699s-1.636.233-2.216.699-1.009 1.077-1.287 1.832c-.278.756-.418 1.571-.418 2.446s.14 1.688.418 2.438.707 1.355 1.287 1.815 1.318.69 2.216.69z"/><path d="m517.353 117.477c-1.182 0-2.219-.281-3.111-.844-.887-.562-1.58-1.349-2.08-2.36-.494-1.012-.741-2.194-.741-3.546 0-1.363.247-2.554.741-3.571.5-1.017 1.193-1.807 2.08-2.369.892-.563 1.929-.844 3.111-.844 1.181 0 2.216.281 3.102.844.892.562 1.585 1.352 2.079 2.369.5 1.017.75 2.208.75 3.571 0 1.352-.25 2.534-.75 3.546-.494 1.011-1.187 1.798-2.079 2.36-.886.563-1.921.844-3.102.844zm0-1.807c.897 0 1.636-.23 2.215-.69.58-.46 1.009-1.065 1.287-1.815.279-.75.418-1.563.418-2.438s-.139-1.69-.418-2.446c-.278-.755-.707-1.366-1.287-1.832-.579-.466-1.318-.699-2.215-.699-.898 0-1.637.233-2.216.699-.58.466-1.009 1.077-1.287 1.832-.279.756-.418 1.571-.418 2.446s.139 1.688.418 2.438c.278.75.707 1.355 1.287 1.815.579.46 1.318.69 2.216.69z"/><path d="m509.149 104.113v1.705h-6.784v-1.705zm-4.806-3.136h2.011v12.477c0 .569.082.995.247 1.279.171.278.387.466.648.562.267.091.548.137.844.137.221 0 .403-.012.545-.034.142-.029.256-.052.341-.069l.409 1.807c-.136.051-.327.102-.571.154-.244.056-.554.085-.929.085-.568 0-1.125-.122-1.67-.367-.54-.244-.989-.616-1.347-1.116-.352-.5-.528-1.131-.528-1.892z"/><path d="m484.679 109.329v7.875h-2.012v-13.09h1.943v2.045h.171c.307-.665.773-1.199 1.398-1.602.625-.409 1.431-.614 2.42-.614.886 0 1.662.182 2.327.546.665.358 1.182.903 1.551 1.636.369.727.554 1.648.554 2.761v8.318h-2.011v-8.181c0-1.029-.268-1.83-.802-2.404-.534-.579-1.267-.869-2.198-.869-.643 0-1.216.139-1.722.418-.5.278-.895.684-1.185 1.218s-.434 1.182-.434 1.943z"/><path d="m473.665 117.477c-1.182 0-2.219-.281-3.111-.844-.886-.562-1.579-1.349-2.079-2.36-.495-1.012-.742-2.194-.742-3.546 0-1.363.247-2.554.742-3.571.5-1.017 1.193-1.807 2.079-2.369.892-.563 1.929-.844 3.111-.844s2.216.281 3.102.844c.892.562 1.586 1.352 2.08 2.369.5 1.017.75 2.208.75 3.571 0 1.352-.25 2.534-.75 3.546-.494 1.011-1.188 1.798-2.08 2.36-.886.563-1.92.844-3.102.844zm0-1.807c.898 0 1.636-.23 2.216-.69s1.009-1.065 1.287-1.815.418-1.563.418-2.438-.14-1.69-.418-2.446c-.278-.755-.707-1.366-1.287-1.832s-1.318-.699-2.216-.699-1.636.233-2.216.699c-.579.466-1.008 1.077-1.287 1.832-.278.756-.417 1.571-.417 2.446s.139 1.688.417 2.438c.279.75.708 1.355 1.287 1.815.58.46 1.318.69 2.216.69z"/><path d="m462.652 117.204v-13.091h2.011v13.091zm1.022-15.272c-.392 0-.73-.134-1.014-.401-.278-.267-.418-.588-.418-.963s.14-.696.418-.9631c.284-.267.622-.4006 1.014-.4006s.728.1336 1.006.4006c.284.2671.426.5881.426.9631s-.142.696-.426.963c-.278.267-.614.401-1.006.401z"/><path d="m459.626 104.113v1.705h-6.784v-1.705zm-4.807-3.136h2.012v12.477c0 .569.082.995.247 1.279.17.278.386.466.647.562.267.091.549.137.844.137.222 0 .404-.012.546-.034.142-.029.255-.052.341-.069l.409 1.807c-.137.051-.327.102-.571.154-.245.056-.554.085-.929.085-.569 0-1.125-.122-1.671-.367-.54-.244-.988-.616-1.346-1.116-.353-.5-.529-1.131-.529-1.892z"/><path d="m444.262 117.511c-.83 0-1.583-.156-2.259-.468-.676-.319-1.213-.776-1.611-1.373-.397-.602-.596-1.329-.596-2.181 0-.75.147-1.358.443-1.824.295-.472.69-.841 1.185-1.108.494-.267 1.039-.466 1.636-.597.602-.136 1.207-.244 1.815-.324.796-.102 1.441-.179 1.935-.23.5-.057.864-.15 1.091-.281.233-.131.349-.358.349-.682v-.068c0-.841-.23-1.494-.69-1.96-.455-.466-1.145-.699-2.071-.699-.96 0-1.713.21-2.259.631-.545.42-.929.869-1.15 1.346l-1.909-.682c.341-.795.795-1.414 1.363-1.858.574-.449 1.199-.761 1.875-.937.682-.182 1.353-.273 2.012-.273.42 0 .903.051 1.449.154.551.096 1.082.298 1.593.605.517.306.946.77 1.287 1.389s.512 1.449.512 2.488v8.625h-2.012v-1.772h-.102c-.136.284-.364.588-.682.912s-.741.599-1.27.826c-.528.228-1.173.341-1.934.341zm.306-1.807c.796 0 1.466-.156 2.012-.468.551-.313.966-.716 1.244-1.21.284-.495.426-1.015.426-1.56v-1.841c-.085.102-.272.196-.562.281-.284.08-.614.151-.989.213-.369.057-.73.108-1.082.154-.347.039-.628.074-.844.102-.523.068-1.011.179-1.466.332-.449.148-.812.372-1.091.674-.273.295-.409.698-.409 1.21 0 .699.259 1.227.776 1.585.522.352 1.184.528 1.985.528z"/><path d="m431.48 117.204v-13.091h1.943v1.978h.136c.239-.648.671-1.174 1.296-1.577s1.329-.605 2.113-.605c.148 0 .333.003.554.008.222.006.39.015.503.026v2.045c-.068-.017-.224-.042-.469-.076-.238-.04-.491-.06-.758-.06-.636 0-1.205.134-1.705.401-.494.261-.886.625-1.176 1.091-.284.46-.426.985-.426 1.576v8.284z"/><path d="m423 117.477c-1.262 0-2.35-.278-3.265-.835-.909-.563-1.61-1.347-2.105-2.352-.488-1.012-.733-2.188-.733-3.529s.245-2.522.733-3.545c.495-1.029 1.182-1.83 2.063-2.404.886-.579 1.92-.869 3.102-.869.682 0 1.355.114 2.02.341s1.27.597 1.815 1.108c.546.506.98 1.176 1.304 2.011.324.836.486 1.864.486 3.086v.852h-10.091v-1.739h8.046c0-.738-.148-1.398-.444-1.977-.289-.58-.704-1.037-1.244-1.372-.534-.335-1.165-.503-1.892-.503-.801 0-1.494.199-2.079.597-.58.392-1.026.903-1.339 1.534-.312.63-.468 1.306-.468 2.028v1.159c0 .989.17 1.827.511 2.514.347.682.827 1.202 1.44 1.56.614.352 1.327.528 2.14.528.528 0 1.005-.073 1.431-.221.432-.154.804-.381 1.117-.682.312-.307.554-.688.724-1.142l1.944.545c-.205.659-.549 1.239-1.032 1.739-.483.494-1.079.881-1.79 1.159-.71.273-1.508.409-2.394.409z"/><path d="m405.483 109.329v7.875h-2.011v-13.09h1.943v2.045h.171c.306-.665.772-1.199 1.397-1.602.625-.409 1.432-.614 2.421-.614.886 0 1.662.182 2.326.546.665.358 1.182.903 1.552 1.636.369.727.554 1.648.554 2.761v8.318h-2.012v-8.181c0-1.029-.267-1.83-.801-2.404-.534-.579-1.267-.869-2.199-.869-.642 0-1.216.139-1.721.418-.5.278-.895.684-1.185 1.218s-.435 1.182-.435 1.943z"/><path d="m394.992 117.477c-1.262 0-2.35-.278-3.264-.835-.909-.563-1.611-1.347-2.106-2.352-.488-1.012-.732-2.188-.732-3.529s.244-2.522.732-3.545c.495-1.029 1.182-1.83 2.063-2.404.886-.579 1.92-.869 3.102-.869.682 0 1.355.114 2.02.341s1.27.597 1.815 1.108c.546.506.981 1.176 1.304 2.011.324.836.486 1.864.486 3.086v.852h-10.091v-1.739h8.046c0-.738-.148-1.398-.443-1.977-.29-.58-.705-1.037-1.245-1.372-.534-.335-1.164-.503-1.892-.503-.801 0-1.494.199-2.079.597-.58.392-1.026.903-1.338 1.534-.313.63-.469 1.306-.469 2.028v1.159c0 .989.17 1.827.511 2.514.347.682.827 1.202 1.441 1.56.613.352 1.326.528 2.139.528.528 0 1.005-.073 1.432-.221.431-.154.804-.381 1.116-.682.313-.307.554-.688.725-1.142l1.943.545c-.205.659-.549 1.239-1.032 1.739-.482.494-1.079.881-1.789 1.159-.711.273-1.509.409-2.395.409z"/><path d="m380.162 122.386c-.971 0-1.807-.125-2.505-.375-.699-.244-1.282-.568-1.748-.971-.46-.398-.826-.824-1.099-1.279l1.602-1.125c.182.239.412.512.691.818.278.313.659.583 1.142.81.488.233 1.127.35 1.917.35 1.057 0 1.929-.256 2.617-.767.687-.512 1.031-1.313 1.031-2.404v-2.659h-.17c-.148.239-.358.534-.631.886-.267.347-.654.657-1.159.929-.5.267-1.176.401-2.029.401-1.056 0-2.005-.25-2.846-.75-.835-.5-1.497-1.227-1.986-2.182-.483-.954-.724-2.114-.724-3.477 0-1.341.235-2.509.707-3.503.472-1 1.128-1.773 1.969-2.318.841-.551 1.812-.827 2.914-.827.853 0 1.529.142 2.029.426.506.279.892.597 1.159.955.273.352.483.642.631.869h.204v-2.079h1.943v13.465c0 1.125-.255 2.04-.767 2.745-.505.71-1.187 1.23-2.045 1.559-.852.336-1.801.503-2.847.503zm-.068-7.193c.807 0 1.489-.185 2.046-.554.556-.369.98-.9 1.269-1.594.29-.693.435-1.522.435-2.488 0-.943-.142-1.776-.426-2.497-.284-.722-.705-1.287-1.261-1.696-.557-.41-1.245-.614-2.063-.614-.852 0-1.562.216-2.131.648-.562.431-.985 1.011-1.269 1.738-.279.728-.418 1.534-.418 2.421 0 .909.142 1.713.426 2.412.29.693.716 1.238 1.278 1.636.569.392 1.273.588 2.114.588z"/><path d="m371.339 108.784v1.875h-7.636v-1.875z"/><path d="m361.282 104.113v1.705h-6.784v-1.705zm-4.807-3.136h2.012v12.477c0 .569.082.995.247 1.279.17.278.386.466.648.562.267.091.548.137.843.137.222 0 .404-.012.546-.034.142-.029.256-.052.341-.069l.409 1.807c-.136.051-.327.102-.571.154-.244.056-.554.085-.929.085-.568 0-1.125-.122-1.671-.367-.539-.244-.988-.616-1.346-1.116-.352-.5-.529-1.131-.529-1.892z"/><path d="m344.128 104.114 3.137 5.352 3.136-5.352h2.318l-4.227 6.545 4.227 6.545h-2.318l-3.136-5.079-3.137 5.079h-2.318l4.159-6.545-4.159-6.545z"/><path d="m334.5 117.477c-1.262 0-2.35-.278-3.265-.835-.909-.563-1.61-1.347-2.105-2.352-.488-1.012-.733-2.188-.733-3.529s.245-2.522.733-3.545c.495-1.029 1.182-1.83 2.063-2.404.886-.579 1.92-.869 3.102-.869.682 0 1.355.114 2.02.341s1.27.597 1.815 1.108c.546.506.98 1.176 1.304 2.011.324.836.486 1.864.486 3.086v.852h-10.091v-1.739h8.046c0-.738-.148-1.398-.444-1.977-.289-.58-.704-1.037-1.244-1.372-.534-.335-1.165-.503-1.892-.503-.801 0-1.494.199-2.079.597-.58.392-1.026.903-1.339 1.534-.312.63-.468 1.306-.468 2.028v1.159c0 .989.17 1.827.511 2.514.347.682.827 1.202 1.44 1.56.614.352 1.327.528 2.14.528.528 0 1.005-.073 1.431-.221.432-.154.804-.381 1.117-.682.312-.307.554-.688.724-1.142l1.944.545c-.205.659-.549 1.239-1.032 1.739-.483.494-1.079.881-1.79 1.159-.71.273-1.508.409-2.394.409z"/><path d="m316.983 109.329v7.875h-2.011v-13.09h1.943v2.045h.171c.306-.665.772-1.199 1.397-1.602.625-.409 1.432-.614 2.421-.614.886 0 1.662.182 2.326.546.665.358 1.182.903 1.552 1.636.369.727.554 1.648.554 2.761v8.318h-2.012v-8.181c0-1.029-.267-1.83-.801-2.404-.534-.579-1.267-.869-2.199-.869-.642 0-1.216.139-1.721.418-.5.278-.895.684-1.185 1.218s-.435 1.182-.435 1.943z"/><path d="m292.992 117.205h-2.216l6.409-17.455h2.182l6.409 17.455h-2.216l-5.216-14.694h-.136zm.818-6.819h8.932v1.875h-8.932z"/><path d="m762.012 60.9316v23.2728h-4.921v-23.2728z"/><path d="m738.935 84.2044v-23.2728h4.92v19.216h9.978v4.0568z"/><path d="m735.407 69.0794h-4.978c-.091-.6439-.276-1.2159-.557-1.7159-.28-.5076-.64-.9394-1.079-1.2954-.439-.3561-.947-.6288-1.523-.8182-.568-.1894-1.185-.2841-1.852-.2841-1.205 0-2.254.2992-3.148.8977-.894.5909-1.587 1.4546-2.079 2.5909-.493 1.1288-.739 2.5-.739 4.1137 0 1.6591.246 3.053.739 4.1818.5 1.1288 1.197 1.981 2.091 2.5568.893.5758 1.928.8636 3.102.8636.659 0 1.269-.0871 1.829-.2613.569-.1743 1.072-.428 1.512-.7614.439-.3409.803-.7538 1.091-1.2386.295-.4849.5-1.0379.613-1.6591l4.978.0227c-.129 1.0682-.451 2.0985-.966 3.0909-.508.9849-1.194 1.8675-2.057 2.6478-.856.7727-1.879 1.3863-3.068 1.8409-1.182.4469-2.519.6704-4.012.6704-2.075 0-3.932-.4697-5.568-1.4091-1.629-.9394-2.917-2.2992-3.864-4.0795-.939-1.7803-1.409-3.9356-1.409-6.4659 0-2.5379.478-4.697 1.432-6.4773.955-1.7803 2.25-3.1364 3.887-4.0682 1.636-.9394 3.477-1.4091 5.522-1.4091 1.349 0 2.599.1894 3.75.5682 1.159.3788 2.186.9318 3.08 1.6591.894.7197 1.621 1.6023 2.182 2.6477.568 1.0455.931 2.2424 1.091 3.5909z"/><path d="m691.614 90.75c-.614 0-1.189-.0492-1.727-.1477-.531-.0909-.97-.2084-1.319-.3523l1.091-3.6136c.569.1742 1.08.2689 1.534.2841.463.0151.86-.091 1.194-.3182.341-.2273.617-.6137.829-1.1591l.284-.7387-6.261-17.9545h5.091l3.613 12.8182h.182l3.648-12.8182h5.125l-6.784 19.3409c-.326.9394-.769 1.7576-1.33 2.4546-.553.7045-1.253 1.2462-2.102 1.625-.848.3863-1.871.5795-3.068.5795z"/><path d="m684.747 60.9316v23.2728h-4.84v-23.2728z"/><path d="m659.654 84.2044v-23.2728h4.841v8.75h.147c.212-.4697.519-.9469.921-1.4318.409-.4924.939-.9015 1.591-1.2272.659-.3334 1.477-.5 2.454-.5 1.273 0 2.447.3333 3.523 1 1.076.659 1.936 1.6553 2.58 2.9886.643 1.3257.965 2.9886.965 4.9886 0 1.947-.314 3.5909-.943 4.9318-.621 1.3334-1.469 2.3447-2.545 3.0341-1.068.6819-2.265 1.0228-3.591 1.0228-.94 0-1.739-.1553-2.398-.4659-.651-.3107-1.185-.7008-1.602-1.1705-.417-.4773-.735-.9583-.955-1.4432h-.216v2.7955zm4.738-8.7273c0 1.0379.144 1.9432.432 2.7159s.705 1.375 1.25 1.8068c.546.4243 1.208.6364 1.989.6364.788 0 1.454-.2159 2-.6477.545-.4394.958-1.0455 1.238-1.8182.288-.7803.432-1.6781.432-2.6932 0-1.0076-.14-1.8939-.42-2.6591-.281-.7651-.693-1.3636-1.239-1.7955-.545-.4318-1.216-.6477-2.011-.6477-.788 0-1.455.2084-2 .625-.538.4167-.951 1.0076-1.239 1.7727-.288.7652-.432 1.6667-.432 2.7046z"/><path d="m648.392 84.5454c-1.795 0-3.341-.3636-4.636-1.0909-1.288-.7348-2.28-1.7727-2.977-3.1136-.697-1.3485-1.046-2.9432-1.046-4.7841 0-1.7955.349-3.3712 1.046-4.7273.697-1.356 1.678-2.4129 2.943-3.1704 1.273-.7576 2.765-1.1364 4.477-1.1364 1.152 0 2.224.1856 3.216.5568 1 .3637 1.871.9129 2.614 1.6478.75.7348 1.333 1.659 1.75 2.7727.416 1.106.625 2.4015.625 3.8863v1.3296h-14.739v-3h10.182c0-.697-.152-1.3144-.455-1.8523s-.723-.9583-1.261-1.2613c-.53-.3107-1.148-.466-1.852-.466-.735 0-1.387.1705-1.955.5114-.56.3333-1 .7841-1.318 1.3523-.318.5606-.481 1.1856-.489 1.875v2.8523c0 .8636.159 1.6098.478 2.2386.325.6288.784 1.1136 1.375 1.4545s1.291.5114 2.102.5114c.538 0 1.03-.0758 1.477-.2273s.83-.3788 1.148-.6818.561-.6742.727-1.1136l4.477.2954c-.227 1.0758-.693 2.0152-1.397 2.8182-.697.7955-1.599 1.4167-2.705 1.8636-1.098.4394-2.367.6591-3.807.6591z"/><path d="m617.1 84.2045-4.75-17.4545h4.897l2.705 11.7273h.159l2.818-11.7273h4.807l2.864 11.6591h.147l2.66-11.6591h4.886l-4.739 17.4545h-5.125l-3-10.9772h-.216l-3 10.9772z"/><path d="m602.355 84.5454c-1.765 0-3.291-.375-4.579-1.125-1.28-.7575-2.269-1.8106-2.966-3.1591-.697-1.356-1.045-2.928-1.045-4.7159 0-1.803.348-3.3788 1.045-4.7272.697-1.3561 1.686-2.4091 2.966-3.1591 1.288-.7576 2.814-1.1364 4.579-1.1364 1.766 0 3.288.3788 4.569 1.1364 1.287.75 2.28 1.803 2.977 3.1591.697 1.3484 1.045 2.9242 1.045 4.7272 0 1.7879-.348 3.3599-1.045 4.7159-.697 1.3485-1.69 2.4016-2.977 3.1591-1.281.75-2.803 1.125-4.569 1.125zm.023-3.75c.803 0 1.474-.2272 2.012-.6818.537-.4621.943-1.0909 1.215-1.8863.281-.7955.421-1.7008.421-2.716 0-1.0151-.14-1.9204-.421-2.7159-.272-.7954-.678-1.4242-1.215-1.8863-.538-.4622-1.209-.6932-2.012-.6932-.81 0-1.492.231-2.045.6932-.546.4621-.959 1.0909-1.239 1.8863-.273.7955-.409 1.7008-.409 2.7159 0 1.0152.136 1.9205.409 2.716.28.7954.693 1.4242 1.239 1.8863.553.4546 1.235.6818 2.045.6818z"/><path d="m585.648 68.4544c-.159-.553-.383-1.0416-.67-1.4659-.288-.4318-.641-.7954-1.057-1.0909-.409-.303-.879-.5341-1.409-.6932-.523-.1591-1.103-.2386-1.739-.2386-1.189 0-2.235.2955-3.136.8864-.894.5909-1.591 1.4507-2.091 2.5795-.5 1.1212-.75 2.4924-.75 4.1136 0 1.6213.246 3 .738 4.1364.493 1.1364 1.19 2.0038 2.091 2.6023.902.5909 1.966.8863 3.193.8863 1.114 0 2.065-.1969 2.853-.5909.795-.4015 1.401-.9659 1.818-1.6931.424-.7273.636-1.5872.636-2.5796l1 .1477h-6v-3.7045h9.739v2.9318c0 2.0455-.432 3.803-1.296 5.2727-.863 1.4622-2.053 2.5909-3.568 3.3864-1.515.7879-3.25 1.1818-5.204 1.1818-2.182 0-4.099-.481-5.75-1.4432-1.652-.9697-2.94-2.3447-3.864-4.125-.917-1.7878-1.375-3.9091-1.375-6.3636 0-1.8864.273-3.5682.818-5.0455.553-1.4848 1.326-2.7424 2.318-3.7727.993-1.0303 2.148-1.8144 3.466-2.3523 1.319-.5378 2.747-.8068 4.284-.8068 1.319 0 2.546.1932 3.682.5796 1.137.3788 2.144.9166 3.023 1.6136.886.697 1.61 1.5265 2.17 2.4886.561.9546.921 2.0076 1.08 3.1591z"/><path d="m551.549 84.5454c-1.796 0-3.341-.3636-4.637-1.0909-1.288-.7348-2.28-1.7727-2.977-3.1136-.697-1.3485-1.045-2.9432-1.045-4.7841 0-1.7955.348-3.3712 1.045-4.7273.697-1.356 1.678-2.4129 2.943-3.1704 1.273-.7576 2.765-1.1364 4.477-1.1364 1.152 0 2.224.1856 3.216.5568 1 .3637 1.872.9129 2.614 1.6478.75.7348 1.333 1.659 1.75 2.7727.417 1.106.625 2.4015.625 3.8863v1.3296h-14.739v-3h10.182c0-.697-.151-1.3144-.454-1.8523s-.724-.9583-1.262-1.2613c-.53-.3107-1.147-.466-1.852-.466-.735 0-1.386.1705-1.955.5114-.56.3333-1 .7841-1.318 1.3523-.318.5606-.481 1.1856-.488 1.875v2.8523c0 .8636.159 1.6098.477 2.2386.326.6288.784 1.1136 1.375 1.4545s1.292.5114 2.102.5114c.538 0 1.03-.0758 1.477-.2273s.83-.3788 1.148-.6818.561-.6742.727-1.1136l4.478.2954c-.228 1.0758-.693 2.0152-1.398 2.8182-.697.7955-1.599 1.4167-2.705 1.8636-1.098.4394-2.367.6591-3.806.6591z"/><path d="m528.466 74.1135v10.0909h-4.841v-23.2728h4.705v8.8978h.204c.394-1.0303 1.031-1.8372 1.909-2.4205.879-.5909 1.982-.8863 3.307-.8863 1.212 0 2.269.2651 3.171.7954.909.5227 1.613 1.2765 2.113 2.2614.508.9772.758 2.1477.75 3.5113v11.1137h-4.841v-10.25c.008-1.0758-.265-1.9129-.818-2.5114-.545-.5985-1.31-.8977-2.295-.8977-.659 0-1.243.1401-1.75.4204-.5.2803-.894.6894-1.182 1.2273-.28.5303-.424 1.1705-.432 1.9205z"/><path d="m520.097 66.7499v3.6364h-10.511v-3.6364zm-8.125-4.1818h4.841v16.2727c0 .447.068.7955.204 1.0455.137.2424.326.4129.569.5114.25.0984.537.1477.863.1477.227 0 .455-.019.682-.0568.227-.0455.402-.0796.523-.1023l.761 3.6023c-.242.0757-.583.1628-1.023.2613-.439.1061-.973.1705-1.602.1932-1.167.0455-2.189-.1098-3.068-.4659-.871-.3561-1.549-.9091-2.034-1.6591s-.724-1.697-.716-2.8409z"/><path d="m487.645 90.75c-.613 0-1.189-.0492-1.727-.1477-.53-.0909-.97-.2084-1.318-.3523l1.091-3.6136c.568.1742 1.079.2689 1.534.2841.462.0151.86-.091 1.193-.3182.341-.2273.617-.6137.829-1.1591l.285-.7387-6.262-17.9545h5.091l3.614 12.8182h.182l3.647-12.8182h5.125l-6.784 19.3409c-.326.9394-.769 1.7576-1.329 2.4546-.553.7045-1.254 1.2462-2.103 1.625-.848.3863-1.871.5795-3.068.5795z"/><path d="m464.966 84.2044v-23.2728h4.841v8.75h.148c.212-.4697.519-.9469.92-1.4318.409-.4924.94-.9015 1.591-1.2272.659-.3334 1.477-.5 2.455-.5 1.272 0 2.447.3333 3.522 1 1.076.659 1.936 1.6553 2.58 2.9886.644 1.3257.966 2.9886.966 4.9886 0 1.947-.314 3.5909-.943 4.9318-.621 1.3334-1.47 2.3447-2.546 3.0341-1.068.6819-2.265 1.0228-3.591 1.0228-.939 0-1.738-.1553-2.397-.4659-.652-.3107-1.186-.7008-1.603-1.1705-.416-.4773-.734-.9583-.954-1.4432h-.216v2.7955zm4.739-8.7273c0 1.0379.144 1.9432.432 2.7159s.704 1.375 1.25 1.8068c.545.4243 1.208.6364 1.988.6364.788 0 1.455-.2159 2-.6477.546-.4394.959-1.0455 1.239-1.8182.288-.7803.432-1.6781.432-2.6932 0-1.0076-.14-1.8939-.421-2.6591-.28-.7651-.693-1.3636-1.238-1.7955-.546-.4318-1.216-.6477-2.012-.6477-.788 0-1.454.2084-2 .625-.538.4167-.95 1.0076-1.238 1.7727-.288.7652-.432 1.6667-.432 2.7046z"/><path d="m443.557 84.4885c-1.326 0-2.526-.3409-3.602-1.0228-1.068-.6894-1.917-1.7007-2.546-3.0341-.621-1.3409-.931-2.9848-.931-4.9318 0-2 .322-3.6629.966-4.9886.643-1.3333 1.5-2.3296 2.568-2.9886 1.075-.6667 2.253-1 3.534-1 .977 0 1.791.1666 2.443.5.659.3257 1.189.7348 1.591 1.2272.409.4849.72.9621.932 1.4318h.147v-8.75h4.83v23.2728h-4.773v-2.7955h-.204c-.228.4849-.55.9659-.966 1.4432-.409.4697-.943.8598-1.602 1.1705-.652.3106-1.447.4659-2.387.4659zm1.534-3.8523c.781 0 1.44-.2121 1.978-.6364.545-.4318.962-1.0341 1.25-1.8068.295-.7727.443-1.678.443-2.7159s-.144-1.9394-.432-2.7046c-.288-.7651-.705-1.356-1.25-1.7727-.546-.4166-1.208-.625-1.989-.625-.795 0-1.466.2159-2.011.6477-.546.4319-.958 1.0304-1.239 1.7955-.28.7652-.42 1.6515-.42 2.6591 0 1.0151.14 1.9129.42 2.6932.288.7727.701 1.3788 1.239 1.8182.545.4318 1.216.6477 2.011.6477z"/><path d="m425.955 84.5454c-1.796 0-3.341-.3636-4.636-1.0909-1.288-.7348-2.281-1.7727-2.978-3.1136-.697-1.3485-1.045-2.9432-1.045-4.7841 0-1.7955.348-3.3712 1.045-4.7273.697-1.356 1.678-2.4129 2.943-3.1704 1.273-.7576 2.766-1.1364 4.478-1.1364 1.151 0 2.223.1856 3.216.5568 1 .3637 1.871.9129 2.613 1.6478.75.7348 1.334 1.659 1.75 2.7727.417 1.106.625 2.4015.625 3.8863v1.3296h-14.738v-3h10.181c0-.697-.151-1.3144-.454-1.8523s-.724-.9583-1.261-1.2613c-.531-.3107-1.148-.466-1.853-.466-.735 0-1.386.1705-1.954.5114-.561.3333-1 .7841-1.318 1.3523-.319.5606-.482 1.1856-.489 1.875v2.8523c0 .8636.159 1.6098.477 2.2386.326.6288.784 1.1136 1.375 1.4545s1.292.5114 2.102.5114c.538 0 1.031-.0758 1.478-.2273s.829-.3788 1.147-.6818c.319-.303.561-.6742.728-1.1136l4.477.2954c-.227 1.0758-.693 2.0152-1.398 2.8182-.697.7955-1.598 1.4167-2.704 1.8636-1.099.4394-2.368.6591-3.807.6591z"/><path d="m415.034 66.7499v3.6364h-10.511v-3.6364zm-8.125-4.1818h4.841v16.2727c0 .447.068.7955.205 1.0455.136.2424.326.4129.568.5114.25.0984.538.1477.864.1477.227 0 .454-.019.681-.0568.228-.0455.402-.0796.523-.1023l.762 3.6023c-.243.0757-.584.1628-1.023.2613-.44.1061-.974.1705-1.602.1932-1.167.0455-2.19-.1098-3.069-.4659-.871-.3561-1.549-.9091-2.034-1.6591s-.723-1.697-.716-2.8409z"/><path d="m392.165 84.5341c-1.114 0-2.106-.1932-2.977-.5796-.871-.3939-1.561-.9735-2.068-1.7386-.5-.7727-.75-1.7349-.75-2.8864 0-.9697.178-1.7841.534-2.4432.356-.659.841-1.1894 1.454-1.5909.614-.4015 1.311-.7045 2.091-.9091.788-.2045 1.614-.3484 2.477-.4318 1.016-.106 1.834-.2045 2.455-.2954.621-.0985 1.072-.2425 1.352-.4318.281-.1894.421-.4697.421-.841v-.0681c0-.7197-.228-1.2766-.682-1.6705-.447-.3939-1.083-.5909-1.909-.5909-.871 0-1.565.1932-2.08.5795-.515.3788-.856.8561-1.022 1.4319l-4.478-.3637c.228-1.0606.675-1.9773 1.341-2.75.667-.7803 1.527-1.3788 2.58-1.7954 1.06-.4243 2.288-.6364 3.682-.6364.969 0 1.897.1136 2.784.3409.894.2273 1.685.5796 2.375 1.0568.697.4773 1.246 1.0909 1.647 1.8409.402.7425.603 1.6326.603 2.6705v11.7727h-4.591v-2.4204h-.137c-.28.5454-.655 1.0265-1.125 1.4432-.469.409-1.034.731-1.693.9659-.659.2272-1.42.3409-2.284.3409zm1.386-3.3409c.713 0 1.341-.1402 1.887-.4205.545-.2879.973-.6742 1.284-1.1591.311-.4848.466-1.0341.466-1.6477v-1.8523c-.152.0985-.36.1894-.625.2727-.258.0758-.549.1478-.875.216-.326.0606-.652.1174-.977.1704-.326.0455-.622.0871-.887.125-.568.0833-1.064.2159-1.488.3977-.425.1818-.754.4281-.989.7387-.235.303-.352.6818-.352 1.1363 0 .6591.238 1.1629.716 1.5114.484.3409 1.098.5114 1.84.5114z"/><path d="m374.594 84.2045v-17.4545h4.693v3.0455h.182c.318-1.0834.852-1.9016 1.602-2.4546.75-.5606 1.614-.8409 2.591-.8409.243 0 .504.0152.784.0455.281.0303.527.0719.739.125v4.2954c-.227-.0682-.542-.1288-.943-.1818-.402-.053-.769-.0796-1.102-.0796-.713 0-1.349.1553-1.91.466-.553.303-.992.7272-1.318 1.2727-.318.5454-.477 1.1742-.477 1.8863v9.875z"/><path d="m363.424 84.5454c-1.796 0-3.341-.3636-4.637-1.0909-1.288-.7348-2.28-1.7727-2.977-3.1136-.697-1.3485-1.045-2.9432-1.045-4.7841 0-1.7955.348-3.3712 1.045-4.7273.697-1.356 1.678-2.4129 2.943-3.1704 1.273-.7576 2.765-1.1364 4.477-1.1364 1.152 0 2.224.1856 3.216.5568 1 .3637 1.872.9129 2.614 1.6478.75.7348 1.333 1.659 1.75 2.7727.417 1.106.625 2.4015.625 3.8863v1.3296h-14.739v-3h10.182c0-.697-.151-1.3144-.454-1.8523s-.724-.9583-1.262-1.2613c-.53-.3107-1.147-.466-1.852-.466-.735 0-1.386.1705-1.955.5114-.56.3333-1 .7841-1.318 1.3523-.318.5606-.481 1.1856-.488 1.875v2.8523c0 .8636.159 1.6098.477 2.2386.326.6288.784 1.1136 1.375 1.4545s1.292.5114 2.102.5114c.538 0 1.03-.0758 1.477-.2273s.83-.3788 1.148-.6818.561-.6742.727-1.1136l4.478.2954c-.228 1.0758-.693 2.0152-1.398 2.8182-.697.7955-1.599 1.4167-2.705 1.8636-1.098.4394-2.367.6591-3.806.6591z"/><path d="m340.404 74.1136v10.0909h-4.841v-17.4545h4.613v3.0795h.205c.386-1.0151 1.034-1.8182 1.943-2.4091.909-.5985 2.012-.8977 3.307-.8977 1.212 0 2.269.2652 3.17.7955.902.5303 1.603 1.2878 2.103 2.2727.5.9773.75 2.1439.75 3.5v11.1136h-4.841v-10.25c.007-1.0682-.265-1.9015-.818-2.5-.553-.606-1.315-.9091-2.284-.9091-.652 0-1.228.1402-1.728.4205-.492.2803-.879.6894-1.159 1.2273-.273.5303-.413 1.1704-.42 1.9204z"/><path d="m324.392 84.5454c-1.795 0-3.341-.3636-4.636-1.0909-1.288-.7348-2.28-1.7727-2.977-3.1136-.697-1.3485-1.046-2.9432-1.046-4.7841 0-1.7955.349-3.3712 1.046-4.7273.697-1.356 1.678-2.4129 2.943-3.1704 1.273-.7576 2.765-1.1364 4.477-1.1364 1.152 0 2.224.1856 3.216.5568 1 .3637 1.871.9129 2.614 1.6478.75.7348 1.333 1.659 1.75 2.7727.416 1.106.625 2.4015.625 3.8863v1.3296h-14.739v-3h10.182c0-.697-.152-1.3144-.455-1.8523s-.723-.9583-1.261-1.2613c-.53-.3107-1.148-.466-1.852-.466-.735 0-1.387.1705-1.955.5114-.56.3333-1 .7841-1.318 1.3523-.318.5606-.481 1.1856-.489 1.875v2.8523c0 .8636.159 1.6098.478 2.2386.325.6288.784 1.1136 1.375 1.4545s1.291.5114 2.102.5114c.538 0 1.03-.0758 1.477-.2273s.83-.3788 1.148-.6818.561-.6742.727-1.1136l4.477.2954c-.227 1.0758-.693 2.0152-1.397 2.8182-.697.7955-1.599 1.4167-2.705 1.8636-1.098.4394-2.367.6591-3.807.6591z"/><path d="m307.617 68.4544c-.159-.553-.383-1.0416-.671-1.4659-.288-.4318-.64-.7954-1.056-1.0909-.41-.303-.879-.5341-1.41-.6932-.522-.1591-1.102-.2386-1.738-.2386-1.19 0-2.235.2955-3.137.8864-.894.5909-1.59 1.4507-2.09 2.5795-.5 1.1212-.75 2.4924-.75 4.1136 0 1.6213.246 3 .738 4.1364.493 1.1364 1.19 2.0038 2.091 2.6023.902.5909 1.966.8863 3.193.8863 1.114 0 2.065-.1969 2.853-.5909.795-.4015 1.401-.9659 1.818-1.6931.424-.7273.636-1.5872.636-2.5796l1 .1477h-6v-3.7045h9.739v2.9318c0 2.0455-.432 3.803-1.296 5.2727-.863 1.4622-2.053 2.5909-3.568 3.3864-1.515.7879-3.25 1.1818-5.204 1.1818-2.182 0-4.099-.481-5.75-1.4432-1.652-.9697-2.94-2.3447-3.864-4.125-.917-1.7878-1.375-3.9091-1.375-6.3636 0-1.8864.273-3.5682.818-5.0455.553-1.4848 1.326-2.7424 2.318-3.7727.993-1.0303 2.148-1.8144 3.466-2.3523 1.318-.5378 2.746-.8068 4.284-.8068 1.318 0 2.546.1932 3.682.5796 1.136.3788 2.144.9166 3.023 1.6136.886.697 1.61 1.5265 2.17 2.4886.561.9546.921 2.0076 1.08 3.1591z"/></g></svg>