<svg fill="none" height="168" viewBox="0 0 635 168" width="635" xmlns="http://www.w3.org/2000/svg" xmlns:xlink="http://www.w3.org/1999/xlink"><linearGradient id="a" gradientUnits="userSpaceOnUse" x1="108.64" x2="61.5847" y1="144.524" y2="15.2413"><stop offset="0" stop-color="#ff4c0d"/><stop offset="1" stop-color="#fc9502"/></linearGradient><rect height="166" rx="25" stroke="#539bf5" stroke-width="2" width="632.581" x="1" y="1"/><path clip-rule="evenodd" d="m138.753 81.7417c8.199 25.7783-4.991 53.5303-30.218 62.7123-25.8968 9.425-54.9227-5.004-64.2483-30.626-1.2465-3.425-3.798-10.247-2.9524-23.6321.5061-8.0105.8209-13.0418.4459-17.3996-.2062-2.395-.3247-6.2763 4.9883-1.8156 3.1327 2.6302 4.9499 7.3916 4.9499 7.3916s5.1168-8.1798 6.0625-20.593c1.3864-18.1976-7.6559-25.4826-11.9481-31.275-1.4851-2.0037-3.3737-5.8888 1.8298-5.8372 5.3023.053 20.8312 4.3451 30.6466 11.254 14.0086 9.8604 21.8888 21.3367 21.8888 21.3367s1.592-4.7913 1.22-9.0629c-.419-4.8237-1.9859-9.1822 3.511-5.8738 5.228 3.1461 13.631 9.5755 19.543 16.4438 10.737 12.473 14.281 26.9768 14.281 26.9768z" fill="url(#a)" fill-rule="evenodd"/><path clip-rule="evenodd" d="m108.532 144.456c-17.9072 6.517-37.7974-2.964-44.4267-21.178-4-10.99-2.0743-19.247 3.6945-31.5935 3.6936-7.9055 6.5344-16.9979 7.0789-22.6833.1072-1.1192-.6679-6.4662 5.4375-2.0974 3.2025 2.291 8.457 6.5259 12.2457 10.3934 6.5317 6.6682 10.2141 14.0943 10.2141 14.0943s2.777-3.4218 3.216-9.7892c.142-2.0522-.706-9.3176 6.162-4.2446 5.04 3.7229 12.721 10.919 16.798 22.3182 6.63 18.2141-2.513 38.2621-20.42 44.7801z" fill="#fc9502" fill-rule="evenodd"/><path clip-rule="evenodd" d="m95.9085 108.248c4.6145-1.68 7.7775 7.011 17.8615 16.481 6.715 6.307 3.79 16.433-4.75 19.541-8.541 3.109-15.5326-2.321-18.6943-11.007-3.1614-8.686.9687-23.336 5.5828-25.015z" fill="#fce202" fill-rule="evenodd"/><g fill="#539bf5"><path clip-rule="evenodd" d="m224.01 40.2921c.474.2842.64.9059.372 1.3887l-47.593 85.6672c-.268.483-.87.644-1.343.36-.474-.284-.64-.906-.372-1.389l47.593-85.6672c.268-.4828.869-.6438 1.343-.3597z" fill-rule="evenodd"/><path d="m577.876 73.3155v15.75h-4.023v-26.1819h3.887v4.0909h.341c.613-1.3295 1.545-2.3977 2.795-3.2045 1.25-.8182 2.864-1.2273 4.841-1.2273 1.773 0 3.324.3637 4.653 1.0909 1.33.7159 2.364 1.8069 3.103 3.2728.738 1.4545 1.108 3.2954 1.108 5.5227v16.6364h-4.023v-16.3637c0-2.0568-.534-3.6591-1.602-4.8068-1.069-1.1591-2.535-1.7386-4.398-1.7386-1.284 0-2.432.2784-3.443.8352-1 .5568-1.79 1.3693-2.37 2.4375-.579 1.0682-.869 2.3636-.869 3.8864z"/><path d="m555.849 89.6109c-2.364 0-4.437-.5625-6.222-1.6875-1.772-1.125-3.159-2.6989-4.159-4.7216-.988-2.0227-1.483-4.3863-1.483-7.0909 0-2.7273.495-5.1079 1.483-7.142 1-2.0341 2.387-3.6137 4.159-4.7387 1.785-1.125 3.858-1.6875 6.222-1.6875s4.432.5625 6.205 1.6875c1.784 1.125 3.17 2.7046 4.159 4.7387 1 2.0341 1.5 4.4147 1.5 7.142 0 2.7046-.5 5.0682-1.5 7.0909-.989 2.0227-2.375 3.5966-4.159 4.7216-1.773 1.125-3.841 1.6875-6.205 1.6875zm0-3.6136c1.795 0 3.273-.4603 4.432-1.3807 1.159-.9205 2.017-2.1307 2.574-3.6307s.835-3.125.835-4.875-.278-3.3807-.835-4.892c-.557-1.5114-1.415-2.733-2.574-3.6648s-2.637-1.3977-4.432-1.3977-3.273.4659-4.432 1.3977-2.017 2.1534-2.574 3.6648c-.556 1.5113-.835 3.142-.835 4.892s.279 3.375.835 4.875c.557 1.5 1.415 2.7102 2.574 3.6307 1.159.9204 2.637 1.3807 4.432 1.3807z"/><path d="m533.822 89.0654v-26.1818h4.023v26.1818zm2.046-30.5454c-.785 0-1.461-.2671-2.029-.8012-.557-.5341-.835-1.1761-.835-1.9261s.278-1.392.835-1.9261c.568-.5341 1.244-.8012 2.029-.8012.784 0 1.454.2671 2.011.8012.568.5341.852 1.1761.852 1.9261s-.284 1.392-.852 1.9261c-.557.5341-1.227.8012-2.011.8012z"/><path d="m527.771 62.8836v3.4091h-13.568v-3.4091zm-9.614-6.2728h4.023v24.9546c0 1.1363.165 1.9886.494 2.5568.341.5568.773.9318 1.296 1.125.534.1818 1.096.2727 1.687.2727.444 0 .807-.0227 1.091-.0682.284-.0568.512-.1022.682-.1363l.818 3.6136c-.273.1023-.653.2046-1.142.3068-.488.1137-1.108.1705-1.858.1705-1.136 0-2.25-.2443-3.341-.733-1.079-.4886-1.977-1.2329-2.693-2.2329-.704-1-1.057-2.2614-1.057-3.7841z"/><path d="m497.042 89.6791c-1.659 0-3.165-.3125-4.517-.9375-1.352-.6364-2.426-1.5511-3.221-2.7443-.796-1.2046-1.194-2.6591-1.194-4.3637 0-1.5.296-2.7159.887-3.6477.591-.9432 1.38-1.6818 2.369-2.2159s2.08-.9318 3.273-1.1932c1.204-.2727 2.415-.4886 3.63-.6477 1.591-.2046 2.881-.358 3.87-.4602 1-.1137 1.727-.3012 2.182-.5625.465-.2614.698-.7159.698-1.3637v-.1363c0-1.6819-.46-2.9887-1.38-3.9205-.909-.9318-2.29-1.3977-4.142-1.3977-1.921 0-3.426.4204-4.517 1.2613-1.091.841-1.858 1.7387-2.301 2.6932l-3.819-1.3636c.682-1.5909 1.591-2.8296 2.728-3.7159 1.147-.8977 2.397-1.5227 3.75-1.875 1.363-.3637 2.704-.5455 4.022-.5455.841 0 1.807.1023 2.898.3068 1.102.1932 2.165.5966 3.188 1.2103 1.034.6136 1.892 1.5397 2.573 2.7784.682 1.2386 1.023 2.8977 1.023 4.9773v17.25h-4.023v-3.5455h-.204c-.273.5682-.727 1.1761-1.364 1.8239-.636.6477-1.483 1.1988-2.54 1.6534-1.056.4545-2.346.6818-3.869.6818zm.614-3.6136c1.591 0 2.932-.3125 4.023-.9375 1.102-.625 1.931-1.4319 2.488-2.4205.568-.9886.852-2.0284.852-3.1193v-3.6818c-.17.2045-.545.392-1.125.5625-.568.1591-1.227.3011-1.977.4261-.738.1136-1.46.2159-2.165.3068-.693.0796-1.255.1477-1.687.2046-1.046.1363-2.023.3579-2.932.6647-.898.2955-1.625.7444-2.182 1.3466-.545.5909-.818 1.3978-.818 2.4205 0 1.3977.517 2.4545 1.551 3.1704 1.046.7046 2.37 1.0569 3.972 1.0569z"/><path d="m483.286 62.8836v3.4091h-13.568v-3.4091zm-9.613-6.2728h4.023v24.9546c0 1.1363.164 1.9886.494 2.5568.341.5568.773.9318 1.295 1.125.534.1818 1.097.2727 1.688.2727.443 0 .807-.0227 1.091-.0682.284-.0568.511-.1022.682-.1363l.818 3.6136c-.273.1023-.654.2046-1.142.3068-.489.1137-1.108.1705-1.858.1705-1.137 0-2.25-.2443-3.341-.733-1.08-.4886-1.977-1.2329-2.693-2.2329-.705-1-1.057-2.2614-1.057-3.7841z"/><path d="m447.845 73.3155v15.75h-4.023v-26.1819h3.886v4.0909h.341c.614-1.3295 1.546-2.3977 2.796-3.2045 1.25-.8182 2.863-1.2273 4.841-1.2273 1.772 0 3.324.3637 4.653 1.0909 1.33.7159 2.364 1.8069 3.102 3.2728.739 1.4545 1.108 3.2954 1.108 5.5227v16.6364h-4.022v-16.3637c0-2.0568-.535-3.6591-1.603-4.8068-1.068-1.1591-2.534-1.7386-4.397-1.7386-1.285 0-2.432.2784-3.444.8352-1 .5568-1.789 1.3693-2.369 2.4375-.579 1.0682-.869 2.3636-.869 3.8864z"/><path d="m426.862 89.6109c-2.523 0-4.699-.5568-6.529-1.6704-1.818-1.125-3.221-2.6932-4.21-4.7046-.977-2.0227-1.466-4.375-1.466-7.0568s.489-5.0455 1.466-7.0909c.989-2.0568 2.364-3.6591 4.125-4.8068 1.773-1.1591 3.841-1.7387 6.205-1.7387 1.363 0 2.71.2273 4.039.6818 1.33.4546 2.54 1.1932 3.631 2.216 1.091 1.0113 1.96 2.3522 2.608 4.0227.648 1.6704.972 3.7273.972 6.1704v1.7046h-20.182v-3.4773h16.091c0-1.4773-.296-2.7954-.887-3.9545-.579-1.1591-1.409-2.0739-2.488-2.7444-1.068-.6704-2.33-1.0056-3.784-1.0056-1.603 0-2.989.3977-4.159 1.1931-1.159.7841-2.052 1.8069-2.677 3.0682-.625 1.2614-.937 2.6137-.937 4.0568v2.3182c0 1.9773.341 3.6534 1.023 5.0284.693 1.3637 1.653 2.4034 2.88 3.1194 1.228.7045 2.654 1.0568 4.279 1.0568 1.057 0 2.011-.1478 2.863-.4432.864-.3068 1.608-.7614 2.233-1.3636.625-.6137 1.108-1.375 1.449-2.2841l3.887 1.0909c-.409 1.3182-1.097 2.4772-2.063 3.4772-.966.9887-2.159 1.7614-3.579 2.3182-1.421.5455-3.018.8182-4.79.8182z"/><path d="m374.166 89.0655v-26.1819h3.886v4.0909h.341c.545-1.3977 1.426-2.4829 2.642-3.2556 1.216-.7841 2.676-1.1762 4.381-1.1762 1.727 0 3.165.3921 4.312 1.1762 1.159.7727 2.063 1.8579 2.71 3.2556h.273c.671-1.3522 1.676-2.4261 3.017-3.2215 1.341-.8069 2.949-1.2103 4.824-1.2103 2.341 0 4.256.733 5.744 2.1989 1.489 1.4545 2.233 3.7216 2.233 6.8011v17.5228h-4.022v-17.5228c0-1.9318-.529-3.3125-1.586-4.142-1.056-.8296-2.301-1.2443-3.733-1.2443-1.84 0-3.267.5568-4.278 1.6704-1.011 1.1023-1.517 2.5-1.517 4.1932v17.0455h-4.091v-17.9319c0-1.4886-.483-2.6875-1.449-3.5966-.966-.9204-2.21-1.3806-3.733-1.3806-1.045 0-2.022.2784-2.932.8352-.897.5568-1.624 1.3295-2.181 2.3182-.546.9772-.819 2.1079-.819 3.392v16.3637z"/><path d="m362.775 78.3608v-15.4773h4.023v26.1819h-4.023v-4.4319h-.273c-.613 1.3296-1.568 2.4603-2.863 3.3921-1.296.9204-2.932 1.3807-4.909 1.3807-1.637 0-3.091-.358-4.364-1.0739-1.273-.7273-2.273-1.8182-3-3.2727-.727-1.4659-1.091-3.3125-1.091-5.5398v-16.6364h4.023v16.3637c0 1.9091.534 3.4318 1.602 4.5682 1.08 1.1363 2.455 1.7045 4.125 1.7045 1 0 2.017-.2557 3.051-.767 1.046-.5114 1.921-1.2955 2.625-2.3523.716-1.0568 1.074-2.4034 1.074-4.0398z"/><path d="m330.099 89.6109c-2.454 0-4.568-.5795-6.341-1.7386s-3.136-2.7557-4.091-4.7898c-.954-2.0341-1.432-4.358-1.432-6.9716 0-2.6591.489-5.0057 1.466-7.0398.989-2.0454 2.364-3.642 4.125-4.7897 1.773-1.1591 3.841-1.7387 6.205-1.7387 1.841 0 3.5.3409 4.977 1.0228 1.477.6818 2.688 1.6363 3.631 2.8636s1.528 2.6591 1.756 4.2954h-4.023c-.307-1.1931-.989-2.25-2.046-3.1704-1.045-.9318-2.454-1.3977-4.227-1.3977-1.568 0-2.943.4091-4.125 1.2272-1.17.8069-2.085 1.9489-2.744 3.4262-.648 1.4659-.972 3.1875-.972 5.1647 0 2.0228.318 3.7841.955 5.2841.647 1.5 1.557 2.6648 2.727 3.4944 1.182.8295 2.568 1.2443 4.159 1.2443 1.046 0 1.994-.1818 2.847-.5455.852-.3636 1.574-.8863 2.164-1.5682.591-.6818 1.012-1.5 1.262-2.4545h4.023c-.228 1.5454-.79 2.9375-1.688 4.1761-.886 1.2273-2.062 2.2046-3.528 2.9318-1.455.716-3.148 1.0739-5.08 1.0739z"/><path d="m301.458 89.6109c-2.363 0-4.437-.5625-6.221-1.6875-1.773-1.125-3.159-2.6989-4.159-4.7216-.989-2.0227-1.483-4.3863-1.483-7.0909 0-2.7273.494-5.1079 1.483-7.142 1-2.0341 2.386-3.6137 4.159-4.7387 1.784-1.125 3.858-1.6875 6.221-1.6875 2.364 0 4.432.5625 6.205 1.6875 1.784 1.125 3.17 2.7046 4.159 4.7387 1 2.0341 1.5 4.4147 1.5 7.142 0 2.7046-.5 5.0682-1.5 7.0909-.989 2.0227-2.375 3.5966-4.159 4.7216-1.773 1.125-3.841 1.6875-6.205 1.6875zm0-3.6136c1.796 0 3.273-.4603 4.432-1.3807 1.159-.9205 2.017-2.1307 2.574-3.6307s.835-3.125.835-4.875-.278-3.3807-.835-4.892c-.557-1.5114-1.415-2.733-2.574-3.6648s-2.636-1.3977-4.432-1.3977c-1.795 0-3.272.4659-4.431 1.3977-1.16.9318-2.017 2.1534-2.574 3.6648-.557 1.5113-.836 3.142-.836 4.892s.279 3.375.836 4.875 1.414 2.7102 2.574 3.6307c1.159.9204 2.636 1.3807 4.431 1.3807z"/><path d="m267.64 89.0653h-10.773v-34.9091h11.25c3.387 0 6.285.6989 8.694 2.0966 2.409 1.3864 4.255 3.3807 5.539 5.983 1.285 2.5909 1.927 5.6932 1.927 9.3068 0 3.6364-.648 6.7671-1.944 9.3921-1.295 2.6136-3.181 4.625-5.659 6.0341-2.477 1.3977-5.488 2.0965-9.034 2.0965zm-6.545-3.75h6.272c2.887 0 5.279-.5568 7.177-1.6704 1.897-1.1137 3.312-2.6989 4.244-4.7557s1.398-4.5057 1.398-7.3466c0-2.8182-.461-5.2443-1.381-7.2784-.92-2.0454-2.295-3.6136-4.125-4.7045-1.83-1.1023-4.108-1.6535-6.835-1.6535h-6.75z"/><path d="m582.347 114.906c-1.051 0-1.958-.232-2.72-.696-.758-.468-1.343-1.122-1.755-1.96-.407-.843-.61-1.823-.61-2.94 0-1.118.203-2.103.61-2.955.412-.857.985-1.524 1.719-2.003.739-.483 1.601-.724 2.585-.724.569 0 1.13.095 1.684.284s1.058.497 1.512.923c.455.422.817.98 1.087 1.676s.405 1.553.405 2.571v.711h-8.409v-1.449h6.704c0-.616-.123-1.165-.369-1.648-.241-.483-.587-.864-1.037-1.143-.445-.28-.97-.419-1.577-.419-.667 0-1.245.165-1.732.497-.483.326-.855.753-1.116 1.278-.26.526-.39 1.089-.39 1.691v.965c0 .824.142 1.523.426 2.096.289.568.689 1.001 1.2 1.299.512.294 1.106.441 1.783.441.44 0 .838-.062 1.193-.185.36-.128.67-.317.931-.568.26-.256.461-.573.603-.952l1.62.455c-.171.549-.457 1.032-.86 1.449-.402.411-.899.733-1.491.965-.592.228-1.257.341-1.996.341z"/><path d="m575.051 106.213-1.506.426c-.094-.251-.234-.494-.419-.731-.18-.242-.426-.441-.738-.597-.313-.156-.713-.234-1.201-.234-.667 0-1.223.154-1.669.461-.44.303-.66.689-.66 1.158 0 .417.151.746.454.987.303.242.777.443 1.421.604l1.619.398c.976.236 1.702.599 2.181 1.086.478.483.717 1.106.717 1.868 0 .625-.18 1.184-.54 1.676-.355.493-.852.881-1.491 1.165s-1.383.426-2.23.426c-1.113 0-2.034-.241-2.763-.724s-1.191-1.189-1.385-2.117l1.591-.397c.151.587.438 1.027.859 1.321.426.293.983.44 1.669.44.781 0 1.402-.166 1.861-.497.464-.336.696-.739.696-1.207 0-.379-.133-.697-.398-.952-.265-.261-.672-.455-1.221-.583l-1.819-.426c-.999-.236-1.732-.603-2.201-1.101-.464-.501-.696-1.129-.696-1.882 0-.615.173-1.16.518-1.633.351-.474.826-.845 1.428-1.115.606-.27 1.292-.405 2.059-.405 1.08 0 1.928.237 2.543.71.62.474 1.061 1.099 1.321 1.875z"/><path d="m562.578 110.219v-6.449h1.676v10.909h-1.676v-1.847h-.114c-.256.554-.653 1.025-1.193 1.414-.54.383-1.222.575-2.046.575-.681 0-1.287-.149-1.818-.448-.53-.303-.947-.757-1.25-1.363-.303-.611-.454-1.38-.454-2.308v-6.932h1.676v6.818c0 .795.222 1.43.668 1.903.449.474 1.022.711 1.718.711.417 0 .841-.107 1.272-.32.435-.213.8-.54 1.093-.98.299-.44.448-1.002.448-1.683z"/><path d="m542.576 114.906c-.985 0-1.849-.234-2.592-.703-.739-.469-1.317-1.124-1.733-1.967-.412-.843-.618-1.828-.618-2.955 0-1.136.206-2.128.618-2.976.416-.847.994-1.505 1.733-1.974.743-.469 1.607-.703 2.592-.703s1.847.234 2.585.703c.744.469 1.321 1.127 1.733 1.974.417.848.625 1.84.625 2.976 0 1.127-.208 2.112-.625 2.955-.412.843-.989 1.498-1.733 1.967-.738.469-1.6.703-2.585.703zm0-1.505c.748 0 1.364-.192 1.847-.576.483-.383.84-.887 1.072-1.512s.348-1.302.348-2.032c0-.729-.116-1.408-.348-2.038s-.589-1.139-1.072-1.527-1.099-.582-1.847-.582-1.364.194-1.847.582-.84.897-1.072 1.527-.348 1.309-.348 2.038c0 .73.116 1.407.348 2.032s.589 1.129 1.072 1.512c.483.384 1.099.576 1.847.576z"/><path d="m535.74 103.77v1.42h-5.653v-1.42zm-4.006-2.614h1.676v10.398c0 .473.069.829.206 1.065.142.232.322.389.54.469.223.076.457.114.703.114.185 0 .337-.01.455-.029.118-.023.213-.042.284-.057l.341 1.506c-.114.043-.272.085-.476.128-.204.047-.462.071-.774.071-.474 0-.938-.102-1.392-.305-.45-.204-.824-.514-1.122-.931-.294-.416-.441-.942-.441-1.576z"/><path d="m511.592 114.679-3.324-10.909h1.762l2.358 8.352h.113l2.33-8.352h1.79l2.301 8.324h.113l2.358-8.324h1.762l-3.324 10.909h-1.648l-2.386-8.381h-.171l-2.386 8.381z"/><path d="m501.99 114.906c-.985 0-1.849-.234-2.592-.703-.739-.469-1.317-1.124-1.733-1.967-.412-.843-.618-1.828-.618-2.955 0-1.136.206-2.128.618-2.976.416-.847.994-1.505 1.733-1.974.743-.469 1.607-.703 2.592-.703s1.847.234 2.585.703c.744.469 1.321 1.127 1.733 1.974.417.848.625 1.84.625 2.976 0 1.127-.208 2.112-.625 2.955-.412.843-.989 1.498-1.733 1.967-.738.469-1.6.703-2.585.703zm0-1.505c.748 0 1.364-.192 1.847-.576.483-.383.84-.887 1.072-1.512s.348-1.302.348-2.032c0-.729-.116-1.408-.348-2.038s-.589-1.139-1.072-1.527-1.099-.582-1.847-.582-1.364.194-1.847.582-.84.897-1.072 1.527-.348 1.309-.348 2.038c0 .73.116 1.407.348 2.032s.589 1.129 1.072 1.512c.483.384 1.099.576 1.847.576z"/><path d="m487.418 108.116v6.563h-1.676v-14.545h1.676v5.34h.142c.256-.563.639-1.01 1.151-1.342.516-.336 1.202-.504 2.059-.504.744 0 1.395.149 1.953.447.559.294.992.746 1.3 1.357.313.606.469 1.378.469 2.315v6.932h-1.676v-6.818c0-.867-.225-1.537-.675-2.01-.445-.478-1.063-.717-1.854-.717-.549 0-1.041.116-1.477.348-.431.232-.772.57-1.023 1.015-.246.445-.369.985-.369 1.619z"/><path d="m470.094 108.117v6.562h-1.676v-10.909h1.619v1.705h.142c.256-.554.644-1 1.165-1.336.521-.341 1.193-.511 2.017-.511.738 0 1.385.151 1.939.454.554.299.984.753 1.292 1.364.308.606.462 1.373.462 2.301v6.932h-1.676v-6.818c0-.857-.223-1.525-.668-2.003-.445-.483-1.056-.724-1.832-.724-.535 0-1.013.116-1.435.348-.417.232-.746.57-.987 1.015-.242.445-.362.985-.362 1.62z"/><path d="m460.916 114.906c-.985 0-1.849-.234-2.593-.703-.738-.469-1.316-1.124-1.733-1.967-.411-.843-.617-1.828-.617-2.955 0-1.136.206-2.128.617-2.976.417-.847.995-1.505 1.733-1.974.744-.469 1.608-.703 2.593-.703s1.846.234 2.585.703c.743.469 1.321 1.127 1.733 1.974.417.848.625 1.84.625 2.976 0 1.127-.208 2.112-.625 2.955-.412.843-.99 1.498-1.733 1.967-.739.469-1.6.703-2.585.703zm0-1.505c.748 0 1.363-.192 1.846-.576.483-.383.841-.887 1.073-1.512s.348-1.302.348-2.032c0-.729-.116-1.408-.348-2.038s-.59-1.139-1.073-1.527-1.098-.582-1.846-.582-1.364.194-1.847.582-.84.897-1.072 1.527-.348 1.309-.348 2.038c0 .73.116 1.407.348 2.032s.589 1.129 1.072 1.512c.483.384 1.099.576 1.847.576z"/><path d="m448.137 106.213-1.506.426c-.094-.251-.234-.494-.419-.731-.18-.242-.426-.441-.738-.597-.313-.156-.713-.234-1.201-.234-.667 0-1.224.154-1.669.461-.44.303-.66.689-.66 1.158 0 .417.151.746.454.987.303.242.777.443 1.421.604l1.619.398c.976.236 1.702.599 2.181 1.086.478.483.717 1.106.717 1.868 0 .625-.18 1.184-.54 1.676-.355.493-.852.881-1.491 1.165-.64.284-1.383.426-2.231.426-1.112 0-2.033-.241-2.762-.724s-1.191-1.189-1.385-2.117l1.591-.397c.151.587.438 1.027.859 1.321.426.293.983.44 1.669.44.781 0 1.402-.166 1.861-.497.464-.336.696-.739.696-1.207 0-.379-.133-.697-.398-.952-.265-.261-.672-.455-1.221-.583l-1.819-.426c-.999-.236-1.733-.603-2.201-1.101-.464-.501-.696-1.129-.696-1.882 0-.615.172-1.16.518-1.633.351-.474.826-.845 1.428-1.115.606-.27 1.292-.405 2.059-.405 1.08 0 1.927.237 2.543.71.62.474 1.061 1.099 1.321 1.875z"/><path d="m430.387 108.117v6.562h-1.676v-10.909h1.619v1.705h.142c.256-.554.644-1 1.165-1.336.52-.341 1.193-.511 2.017-.511.738 0 1.385.151 1.939.454.554.299.984.753 1.292 1.364.308.606.462 1.373.462 2.301v6.932h-1.676v-6.818c0-.857-.223-1.525-.668-2.003-.445-.483-1.056-.724-1.832-.724-.535 0-1.014.116-1.435.348-.417.232-.746.57-.987 1.015-.242.445-.362.985-.362 1.62z"/><path d="m421.209 114.906c-.985 0-1.849-.234-2.593-.703-.738-.469-1.316-1.124-1.733-1.967-.411-.843-.617-1.828-.617-2.955 0-1.136.206-2.128.617-2.976.417-.847.995-1.505 1.733-1.974.744-.469 1.608-.703 2.593-.703s1.846.234 2.585.703c.743.469 1.321 1.127 1.733 1.974.417.848.625 1.84.625 2.976 0 1.127-.208 2.112-.625 2.955-.412.843-.99 1.498-1.733 1.967-.739.469-1.6.703-2.585.703zm0-1.505c.748 0 1.363-.192 1.846-.576.483-.383.841-.887 1.073-1.512s.348-1.302.348-2.032c0-.729-.116-1.408-.348-2.038s-.59-1.139-1.073-1.527-1.098-.582-1.846-.582-1.364.194-1.847.582-.84.897-1.072 1.527-.348 1.309-.348 2.038c0 .73.116 1.407.348 2.032s.589 1.129 1.072 1.512c.483.384 1.099.576 1.847.576z"/><path d="m412.031 114.679v-10.909h1.676v10.909zm.852-12.727c-.327 0-.608-.112-.845-.334-.232-.223-.348-.49-.348-.803 0-.312.116-.58.348-.802.237-.2228.518-.334.845-.334s.606.1112.838.334c.237.222.355.49.355.802 0 .313-.118.58-.355.803-.232.222-.511.334-.838.334z"/><path d="m409.51 103.77v1.42h-5.654v-1.42zm-4.006-2.614h1.676v10.398c0 .473.069.829.206 1.065.142.232.322.389.54.469.222.076.457.114.703.114.185 0 .336-.01.454-.029.119-.023.213-.042.285-.057l.34 1.506c-.113.043-.272.085-.475.128-.204.047-.462.071-.775.071-.473 0-.937-.102-1.392-.305-.449-.204-.823-.514-1.122-.931-.293-.416-.44-.942-.44-1.576z"/><path d="m398.025 114.906c-1.023 0-1.903-.241-2.642-.724s-1.307-1.148-1.704-1.996c-.398-.847-.597-1.816-.597-2.905 0-1.108.204-2.085.611-2.933.412-.852.985-1.517 1.719-1.996.738-.483 1.6-.724 2.585-.724.767 0 1.458.142 2.074.426.615.284 1.119.682 1.512 1.193.393.512.637 1.108.732 1.79h-1.676c-.128-.497-.412-.937-.852-1.321-.436-.388-1.023-.582-1.762-.582-.653 0-1.226.17-1.719.511-.487.336-.868.812-1.143 1.428-.27.61-.405 1.328-.405 2.152 0 .842.133 1.576.398 2.201.27.625.649 1.111 1.136 1.456.493.346 1.07.519 1.733.519.436 0 .831-.076 1.186-.228.355-.151.656-.369.902-.653s.422-.625.526-1.023h1.676c-.095.644-.329 1.224-.703 1.74-.37.512-.86.919-1.47 1.222-.606.298-1.312.447-2.117.447z"/><path d="m388.847 110.219v-6.449h1.676v10.909h-1.676v-1.847h-.113c-.256.554-.654 1.025-1.194 1.414-.539.383-1.221.575-2.045.575-.682 0-1.288-.149-1.818-.448-.531-.303-.947-.757-1.25-1.363-.303-.611-.455-1.38-.455-2.308v-6.932h1.676v6.818c0 .795.223 1.43.668 1.903.45.474 1.023.711 1.719.711.416 0 .84-.107 1.271-.32.436-.213.8-.54 1.094-.98.298-.44.447-1.002.447-1.683z"/><path d="m374.531 114.679v-10.909h1.619v1.648h.114c.199-.54.558-.978 1.079-1.314.521-.337 1.108-.505 1.762-.505.123 0 .277.003.461.007.185.005.325.012.419.022v1.704c-.056-.014-.187-.035-.39-.064-.199-.033-.41-.049-.632-.049-.531 0-1.004.111-1.421.333-.412.218-.738.521-.98.91-.237.383-.355.821-.355 1.314v6.903z"/><path d="m372.01 103.77v1.42h-5.654v-1.42zm-4.006-2.614h1.676v10.398c0 .473.069.829.206 1.065.142.232.322.389.54.469.222.076.457.114.703.114.185 0 .336-.01.454-.029.119-.023.213-.042.285-.057l.34 1.506c-.113.043-.272.085-.475.128-.204.047-.462.071-.775.071-.473 0-.937-.102-1.392-.305-.449-.204-.823-.514-1.122-.931-.293-.416-.44-.942-.44-1.576z"/><path d="m364.543 106.213-1.505.426c-.095-.251-.235-.494-.419-.731-.18-.242-.427-.441-.739-.597-.313-.156-.713-.234-1.2-.234-.668 0-1.224.154-1.669.461-.441.303-.661.689-.661 1.158 0 .417.152.746.455.987.303.242.776.443 1.42.604l1.619.398c.976.236 1.703.599 2.181 1.086.478.483.717 1.106.717 1.868 0 .625-.18 1.184-.54 1.676-.355.493-.852.881-1.491 1.165s-1.383.426-2.23.426c-1.113 0-2.034-.241-2.763-.724s-1.191-1.189-1.385-2.117l1.591-.397c.151.587.438 1.027.859 1.321.426.293.983.44 1.669.44.782 0 1.402-.166 1.861-.497.464-.336.696-.739.696-1.207 0-.379-.132-.697-.398-.952-.265-.261-.672-.455-1.221-.583l-1.818-.426c-.999-.236-1.733-.603-2.202-1.101-.464-.501-.696-1.129-.696-1.882 0-.615.173-1.16.518-1.633.351-.474.827-.845 1.428-1.115.606-.27 1.293-.405 2.06-.405 1.079 0 1.927.237 2.542.71.621.474 1.061 1.099 1.321 1.875z"/><path d="m346.793 108.117v6.562h-1.676v-10.909h1.619v1.705h.142c.256-.554.644-1 1.165-1.336.521-.341 1.193-.511 2.017-.511.739 0 1.385.151 1.939.454.554.299.985.753 1.292 1.364.308.606.462 1.373.462 2.301v6.932h-1.676v-6.818c0-.857-.223-1.525-.668-2.003-.445-.483-1.055-.724-1.832-.724-.535 0-1.013.116-1.435.348-.416.232-.745.57-.987 1.015-.241.445-.362.985-.362 1.62z"/><path d="m340.371 114.679v-10.909h1.676v10.909zm.852-12.727c-.327 0-.608-.112-.845-.334-.232-.223-.348-.49-.348-.803 0-.312.116-.58.348-.802.237-.2228.518-.334.845-.334s.606.1112.838.334c.237.222.355.49.355.802 0 .313-.118.58-.355.803-.232.222-.511.334-.838.334z"/><path d="m326.443 114.906c-.909 0-1.712-.229-2.408-.689-.696-.464-1.24-1.117-1.633-1.96-.393-.847-.59-1.849-.59-3.004 0-1.146.197-2.14.59-2.983s.94-1.494 1.641-1.953c.7-.459 1.51-.689 2.429-.689.71 0 1.271.118 1.683.355.416.232.734.497.951.795.223.294.396.535.519.725h.142v-5.369h1.676v14.545h-1.619v-1.676h-.199c-.123.199-.298.45-.526.753-.227.298-.551.566-.973.802-.421.232-.982.348-1.683.348zm.227-1.505c.673 0 1.241-.176 1.705-.526.464-.355.817-.845 1.058-1.47.242-.63.362-1.357.362-2.181 0-.814-.118-1.527-.355-2.137-.236-.616-.587-1.094-1.051-1.435-.464-.346-1.037-.518-1.719-.518-.71 0-1.302.182-1.775.546-.469.36-.822.85-1.058 1.471-.232.615-.348 1.306-.348 2.073 0 .777.118 1.482.355 2.117.241.63.596 1.132 1.065 1.506.474.369 1.061.554 1.761.554z"/><path d="m315.257 114.906c-1.051 0-1.958-.232-2.72-.696-.758-.468-1.342-1.122-1.754-1.96-.408-.843-.611-1.823-.611-2.94 0-1.118.203-2.103.611-2.955.412-.857.984-1.524 1.718-2.003.739-.483 1.601-.724 2.586-.724.568 0 1.129.095 1.683.284s1.058.497 1.513.923c.454.422.816.98 1.086 1.676s.405 1.553.405 2.571v.711h-8.409v-1.449h6.705c0-.616-.124-1.165-.37-1.648-.241-.483-.587-.864-1.037-1.143-.445-.28-.97-.419-1.576-.419-.668 0-1.246.165-1.733.497-.483.326-.855.753-1.115 1.278-.261.526-.391 1.089-.391 1.691v.965c0 .824.142 1.523.426 2.096.289.568.689 1.001 1.2 1.299.512.294 1.106.441 1.783.441.44 0 .838-.062 1.193-.185.36-.128.67-.317.931-.568.26-.256.461-.573.603-.952l1.62.455c-.171.549-.457 1.032-.86 1.449-.402.411-.899.733-1.491.965-.592.228-1.257.341-1.996.341z"/><path d="m307.613 100.134v14.545h-1.676v-14.545z"/><path d="m301.191 114.679v-10.909h1.676v10.909zm.852-12.727c-.326 0-.608-.112-.845-.334-.232-.223-.348-.49-.348-.803 0-.312.116-.58.348-.802.237-.2228.519-.334.845-.334.327 0 .606.1112.838.334.237.222.355.49.355.802 0 .313-.118.58-.355.803-.232.222-.511.334-.838.334z"/><path d="m293.132 114.935c-.692 0-1.319-.13-1.882-.391-.564-.265-1.011-.646-1.343-1.143-.331-.502-.497-1.108-.497-1.819 0-.625.123-1.131.369-1.519.247-.393.576-.701.988-.924.412-.222.866-.388 1.363-.497.502-.114 1.006-.203 1.513-.27.663-.085 1.2-.149 1.612-.192.417-.047.72-.125.909-.234.194-.109.292-.298.292-.568v-.057c0-.701-.192-1.245-.576-1.633-.379-.389-.954-.583-1.726-.583-.8 0-1.427.175-1.882.526-.454.35-.774.724-.958 1.122l-1.591-.568c.284-.663.662-1.179 1.136-1.549.478-.374.999-.634 1.562-.781.569-.151 1.127-.227 1.677-.227.35 0 .752.043 1.207.128.459.08.902.248 1.328.504.431.256.788.642 1.073 1.158.284.516.426 1.207.426 2.074v7.187h-1.676v-1.477h-.086c-.113.237-.303.49-.568.76s-.618.499-1.058.689c-.44.189-.978.284-1.612.284zm.255-1.506c.663 0 1.222-.13 1.677-.391.459-.26.804-.596 1.036-1.008.237-.412.356-.845.356-1.3v-1.534c-.071.085-.228.163-.469.234-.237.067-.512.126-.824.178-.308.047-.608.09-.902.128-.289.033-.523.061-.703.085-.436.057-.843.149-1.222.277-.374.123-.677.31-.909.561-.227.246-.341.583-.341 1.009 0 .582.216 1.022.647 1.321.435.293.987.44 1.654.44z"/><path d="m287.4 103.77v1.42h-5.653v-1.42zm-4.006-2.614h1.677v10.398c0 .473.068.829.206 1.065.142.232.322.389.539.469.223.076.457.114.703.114.185 0 .337-.01.455-.029.118-.023.213-.042.284-.057l.341 1.506c-.114.043-.272.085-.476.128-.203.047-.461.071-.774.071-.473 0-.937-.102-1.392-.305-.45-.204-.824-.514-1.122-.931-.294-.416-.441-.942-.441-1.576z"/><path d="m275.589 114.906c-1.051 0-1.958-.232-2.72-.696-.758-.468-1.342-1.122-1.754-1.96-.408-.843-.611-1.823-.611-2.94 0-1.118.203-2.103.611-2.955.412-.857.984-1.524 1.718-2.003.739-.483 1.601-.724 2.586-.724.568 0 1.129.095 1.683.284s1.058.497 1.513.923c.454.422.816.98 1.086 1.676s.405 1.553.405 2.571v.711h-8.409v-1.449h6.705c0-.616-.124-1.165-.37-1.648-.241-.483-.587-.864-1.037-1.143-.445-.28-.97-.419-1.576-.419-.668 0-1.246.165-1.733.497-.483.326-.855.753-1.115 1.278-.261.526-.391 1.089-.391 1.691v.965c0 .824.142 1.523.426 2.096.289.568.689 1.001 1.2 1.299.512.294 1.106.441 1.783.441.44 0 .838-.062 1.193-.185.36-.128.67-.317.931-.568.26-.256.461-.573.603-.952l1.62.455c-.171.549-.457 1.032-.86 1.449-.402.411-.899.733-1.491.965-.592.228-1.257.341-1.996.341z"/><path d="m261.356 114.679h-4.489v-14.545h4.688c1.411 0 2.618.291 3.622.873 1.004.578 1.773 1.409 2.308 2.493.535 1.08.803 2.372.803 3.878 0 1.515-.27 2.819-.81 3.913-.539 1.089-1.325 1.927-2.358 2.514-1.032.583-2.287.874-3.764.874zm-2.727-1.563h2.613c1.203 0 2.2-.232 2.991-.696.79-.464 1.38-1.124 1.768-1.981s.582-1.877.582-3.061c0-1.174-.191-2.185-.575-3.033-.383-.852-.956-1.505-1.719-1.96-.762-.459-1.711-.689-2.848-.689h-2.812z"/></g></svg>